<svg xmlns="http://www.w3.org/2000/svg" width="83" height="83" fill="none" viewBox="0 0 83 83">
  <path stroke="#00717B" stroke-width="3.5" d="M81.25 41.5c0 21.953-17.797 39.75-39.75 39.75S1.75 63.453 1.75 41.5 19.547 1.75 41.5 1.75 81.25 19.547 81.25 41.5z"/>
  <path fill="#00717B" d="M68 27.05v30.717a3.614 3.614 0 01-3.613 3.612h-8.434V40.904L41.5 51.747 27.047 40.904v20.478h-8.434A3.612 3.612 0 0115 57.767V27.05c0-4.467 5.099-7.018 8.672-4.337l3.375 2.533L41.5 36.085l14.453-10.843 3.375-2.528c3.57-2.679 8.672-.13 8.672 4.337v-.001z"/>
</svg>
