<svg xmlns="http://www.w3.org/2000/svg" width="1000" height="300" fill="none" viewBox="0 0 1000 300">
  <g clip-path="url(#clip0_150_4)">
    <path fill="#333" d="M25 204.167c-11.52 0-20.833 9.312-20.833 20.833 0 11.521 9.312 20.833 20.833 20.833 11.52 0 20.833-9.312 20.833-20.833 0-11.521-9.312-20.833-20.833-20.833zm8.958 29.791a2.068 2.068 0 01-1.468.61 2.067 2.067 0 01-1.47-.61l-6.02-6.02-6.02 6.02a2.076 2.076 0 11-2.938-2.937l6.02-6.021-6.02-6.021a2.076 2.076 0 112.937-2.937L25 222.063l6.02-6.021a2.088 2.088 0 011.47-.609 2.084 2.084 0 011.468.609 2.08 2.08 0 010 2.937L27.938 225l6.02 6.021c.792.792.792 2.125 0 2.937z"/>
    <path fill="#00717B" d="M75 204.167c-11.52 0-20.833 9.312-20.833 20.833 0 11.521 9.312 20.833 20.833 20.833 11.52 0 20.833-9.312 20.833-20.833 0-11.521-9.312-20.833-20.833-20.833zm8.958 29.791a2.068 2.068 0 01-1.468.61 2.067 2.067 0 01-1.47-.61l-6.02-6.02-6.02 6.02a2.076 2.076 0 11-2.938-2.937l6.02-6.021-6.02-6.021a2.076 2.076 0 112.937-2.937L75 222.063l6.02-6.021a2.088 2.088 0 011.47-.609 2.084 2.084 0 011.468.609 2.08 2.08 0 010 2.937L77.938 225l6.02 6.021c.792.792.792 2.125 0 2.937z"/>
    <path fill="#F29E03" d="M25 254.167c-11.52 0-20.833 9.312-20.833 20.833 0 11.521 9.312 20.833 20.833 20.833 11.52 0 20.833-9.312 20.833-20.833 0-11.521-9.312-20.833-20.833-20.833zm8.958 29.791a2.068 2.068 0 01-1.468.61 2.067 2.067 0 01-1.47-.61l-6.02-6.02-6.02 6.02a2.076 2.076 0 11-2.938-2.937l6.02-6.021-6.02-6.021a2.076 2.076 0 112.937-2.937L25 272.063l6.02-6.021a2.088 2.088 0 011.47-.609 2.084 2.084 0 011.468.609 2.08 2.08 0 010 2.937L27.938 275l6.02 6.021c.792.792.792 2.125 0 2.937z"/>
    <path fill="#fff" d="M75 254.167c-11.52 0-20.833 9.312-20.833 20.833 0 11.521 9.312 20.833 20.833 20.833 11.52 0 20.833-9.312 20.833-20.833 0-11.521-9.312-20.833-20.833-20.833zm8.958 29.791a2.068 2.068 0 01-1.468.61 2.067 2.067 0 01-1.47-.61l-6.02-6.02-6.02 6.02a2.076 2.076 0 11-2.938-2.937l6.02-6.021-6.02-6.021a2.076 2.076 0 112.937-2.937L75 272.063l6.02-6.021a2.088 2.088 0 011.47-.609 2.084 2.084 0 011.468.609 2.08 2.08 0 010 2.937L77.938 275l6.02 6.021c.792.792.792 2.125 0 2.937z"/>
    <g clip-path="url(#clip1_150_4)">
      <path stroke="#00717B" stroke-width="3.5" d="M97.892 50c0 26.45-21.443 47.892-47.892 47.892C23.55 97.892 2.108 76.449 2.108 50 2.108 23.55 23.551 2.108 50 2.108c26.45 0 47.892 21.443 47.892 47.892z"/>
      <path fill="#00717B" d="M81.928 32.59V69.6a4.354 4.354 0 01-4.353 4.352H67.413V49.28L50 62.347 32.587 49.282v24.672H22.425a4.35 4.35 0 01-4.353-4.355V32.59c0-5.382 6.144-8.455 10.448-5.225l4.067 3.052L50 43.476l17.413-13.064 4.067-3.046c4.3-3.227 10.448-.156 10.448 5.226v-.002z"/>
    </g>
    <g clip-path="url(#clip2_150_4)">
      <path fill="#00717B" d="M150 100c27.614 0 50-22.386 50-50S177.614 0 150 0s-50 22.386-50 50 22.386 50 50 50z"/>
      <path fill="#fff" d="M181.928 32.59V69.6a4.348 4.348 0 01-1.275 3.077 4.354 4.354 0 01-3.078 1.275h-10.162V49.28L150 62.347l-17.413-13.064v24.672h-10.162a4.346 4.346 0 01-3.079-1.275 4.346 4.346 0 01-1.274-3.08V32.59c0-5.382 6.144-8.455 10.448-5.225l4.067 3.052L150 43.476l17.413-13.064 4.067-3.046c4.301-3.227 10.448-.156 10.448 5.226v-.002z"/>
    </g>
    <g clip-path="url(#clip3_150_4)">
      <path stroke="#00717B" stroke-width="3.5" d="M250.301 98.193c26.45 0 47.892-21.442 47.892-47.892 0-26.45-21.442-47.891-47.892-47.891-26.449 0-47.891 21.442-47.891 47.891 0 26.45 21.442 47.892 47.891 47.892z"/>
      <path fill="#00717B" d="M263.372 29.698a1.247 1.247 0 00-1.248-1.247h-6.235a11.898 11.898 0 00-12.472 11.224v6.735h-6.236a1.243 1.243 0 00-1.152.77 1.242 1.242 0 00-.095.478v6.484a1.25 1.25 0 001.247 1.248h6.236v16.712a1.247 1.247 0 001.247 1.247h7.483a1.249 1.249 0 001.247-1.248V55.39h6.536a1.246 1.246 0 001.221-.922l1.796-6.486a1.254 1.254 0 00-.212-1.08 1.25 1.25 0 00-.985-.492h-8.356v-6.735a2.495 2.495 0 012.495-2.245h6.235a1.25 1.25 0 001.248-1.247v-6.485z"/>
    </g>
    <g clip-path="url(#clip4_150_4)">
      <path fill="#00717B" stroke="#00717B" stroke-width="3.5" d="M350 98.193c26.616 0 48.193-21.577 48.193-48.193 0-26.616-21.577-48.193-48.193-48.193-26.616 0-48.193 21.577-48.193 48.193 0 26.616 21.577 48.193 48.193 48.193z"/>
      <path fill="#fff" d="M363.153 29.267a1.253 1.253 0 00-1.255-1.255h-6.275a11.974 11.974 0 00-12.551 11.295v6.777h-6.274a1.257 1.257 0 00-1.256 1.256v6.525a1.257 1.257 0 001.256 1.255h6.274v16.817a1.259 1.259 0 001.256 1.255h7.53a1.257 1.257 0 001.254-1.255V55.121h6.577a1.257 1.257 0 001.229-.928l1.807-6.527a1.258 1.258 0 00-.211-1.088 1.259 1.259 0 00-.994-.494h-8.408v-6.777a2.514 2.514 0 012.511-2.259h6.275a1.253 1.253 0 001.255-1.255v-6.526z"/>
    </g>
    <g clip-path="url(#clip5_150_4)">
      <path fill="#00717B" d="M431.376 40.687V52.66L450 39.358l18.624 13.302V40.688L450 27.384l-18.624 13.304v-.001z"/>
      <path fill="#00717B" d="M431.376 59.313v11.972L450 57.983l18.624 13.303V59.313L450 46.01l-18.624 13.3v.003z"/>
      <path stroke="#00717B" stroke-width="3.5" d="M450 97.892c26.45 0 47.892-21.442 47.892-47.892 0-26.45-21.442-47.892-47.892-47.892-26.45 0-47.892 21.442-47.892 47.892 0 26.45 21.442 47.892 47.892 47.892z"/>
    </g>
    <g clip-path="url(#clip6_150_4)">
      <path fill="#00717B" stroke="#00717B" stroke-width="3.5" d="M550 97.892c26.449 0 47.892-21.443 47.892-47.892 0-26.45-21.443-47.892-47.892-47.892S502.108 23.551 502.108 50c0 26.45 21.443 47.892 47.892 47.892z"/>
      <path fill="#fff" d="M531.376 40.687V52.66L550 39.358l18.624 13.302V40.688L550 27.384l-18.624 13.304v-.001z"/>
      <path fill="#fff" d="M531.376 59.313v11.972L550 57.983l18.624 13.303V59.313L550 46.01l-18.624 13.3v.003z"/>
    </g>
    <path fill="#00717B" fill-rule="evenodd" d="M650 6.437c-25.229 0-45.654 20.322-45.654 45.346 0 18.376 11.012 34.188 26.862 41.301 1.658.745 3.28.45 4.546-.5a5.75 5.75 0 002.217-4.613v-2.375l-5.654-.767a1.893 1.893 0 01-.125-.02c-3.117-.609-5.221-1.704-6.763-3.284-1.295-1.329-2.087-2.92-2.759-4.27l-.233-.47a48.227 48.227 0 00-2.029-3.793c-.562-.892-1-1.35-1.433-1.638-1.1-.729-2.158-1.966-2.158-3.512a3 3 0 011.083-2.334 3.518 3.518 0 012.275-.759c.925 0 1.795.285 2.52.61.742.333 1.48.775 2.168 1.233 1.674 1.116 3.325 2.437 4.72 4.067 1.454 1.692 2.483 2.766 4.034 2.988 1.275.182 2.575.187 3.587.141a10.72 10.72 0 01.691-2.334 34.781 34.781 0 01-3.653-1.066c-2.725-.966-5.762-2.471-7.805-4.75-2.241-2.51-3.629-4.746-4.403-7.362-.754-2.55-.88-5.313-.88-8.713 0-5.209 2.253-9.597 3.946-11.926a36.066 36.066 0 01-1.396-6.253 14.65 14.65 0 01.004-4.033c.209-1.222.729-2.722 2.1-3.626 1.321-.88 2.872-.842 4.08-.617 1.253.238 2.558.76 3.758 1.355 1.954.966 3.896 2.259 5.349 3.354 2.51-.738 6.947-1.687 10.959-1.775h.092c4.017.087 8.254 1.036 10.7 1.771 1.458-1.092 3.396-2.388 5.346-3.35 1.2-.596 2.5-1.117 3.759-1.355 1.207-.225 2.757-.262 4.083.614 1.366.907 1.891 2.407 2.096 3.629.212 1.27.162 2.691 0 4.032a36.08 36.08 0 01-1.393 6.254c1.692 2.334 3.946 6.722 3.946 11.926 0 3.4-.125 6.162-.875 8.708-.779 2.625-2.166 4.858-4.408 7.366-2.042 2.28-5.08 3.784-7.804 4.751a35.25 35.25 0 01-4.425 1.237c.512 1.55.695 2.804.695 3.526v12.873c0 1.958.914 3.629 2.209 4.604 1.259.954 2.876 1.25 4.533.525 16-7.05 27.141-22.904 27.141-41.375.002-25.019-20.415-45.34-45.649-45.34zM639.483 77.96c-1.083.154-.003 0-.003 0h-.013l-.033.008-.121.016a27.52 27.52 0 01-1.864.154c-1.174.055-2.786.06-4.441-.178-3.296-.467-5.301-2.8-6.596-4.317l-.124-.142c-.424-.492-.88-.954-1.363-1.387.429.792.875 1.675 1.355 2.624l.04.085.214.433c.729 1.45 1.208 2.416 2.003 3.225.775.791 1.983 1.557 4.426 2.04l7.474 1.013a2.176 2.176 0 011.883 2.159v4.28c0 3.333-1.562 6.304-3.957 8.104a8.7 8.7 0 01-8.929.983C612.092 89.279 600 71.959 600 51.783c0-27.466 22.405-49.699 50-49.699s50 22.232 50 49.7c0 20.279-12.246 37.645-29.737 45.358a8.713 8.713 0 01-8.904-1.029 10.114 10.114 0 01-3.942-8.091V75.145c0-.292-.205-1.975-1.342-4.238a2.176 2.176 0 01.032-2.014 2.18 2.18 0 011.668-1.13c1.429-.16 3.837-.622 6.267-1.485 2.475-.874 4.695-2.074 6.016-3.55 1.964-2.192 2.942-3.875 3.479-5.696.558-1.887.7-4.084.7-7.47 0-4.755-2.5-8.75-3.65-10.038a2.179 2.179 0 01-.433-2.18c.583-1.64 1.292-4.195 1.563-6.474.132-1.146.141-2.105.024-2.795a1.912 1.912 0 00-.224-.722 2.026 2.026 0 00-.863.037c-.708.134-1.612.468-2.638.976-2.041 1.008-4.167 2.5-5.482 3.567a2.169 2.169 0 01-2.105.354A38.784 38.784 0 00650 30.399c-4.196.1-9.037 1.291-10.692 1.888a2.162 2.162 0 01-2.103-.354 32.388 32.388 0 00-5.485-3.567 10.868 10.868 0 00-2.64-.976 2.028 2.028 0 00-.86-.036 1.906 1.906 0 00-.224.72c-.116.691-.108 1.65.024 2.796.272 2.28.984 4.834 1.563 6.475a2.18 2.18 0 01-.434 2.18C628 40.811 625.5 44.806 625.5 49.561c0 3.383.142 5.583.7 7.47.542 1.821 1.517 3.5 3.475 5.696 1.325 1.476 3.542 2.674 6.021 3.55a29.99 29.99 0 006.262 1.483 2.172 2.172 0 011.811 2.909 2.168 2.168 0 01-.786 1.029c-.687.491-1.141 1.376-1.395 2.396a8.116 8.116 0 00-.234 1.604v.08a2.176 2.176 0 01-1.871 2.179v.001z" clip-rule="evenodd"/>
    <g clip-path="url(#clip7_150_4)">
      <path fill="#fff" d="M700 51.205c0-26.948 21.847-48.795 48.795-48.795h2.41C778.154 2.41 800 24.257 800 51.205 800 78.155 778.154 100 751.205 100h-2.41C721.847 100 700 78.154 700 51.205z"/>
      <path fill="#00717B" fill-rule="evenodd" d="M739.483 77.959c-1.083.154-.003 0-.003 0h-.013l-.033.008-.121.016a27.52 27.52 0 01-1.864.154c-1.174.055-2.786.06-4.441-.178-3.296-.467-5.301-2.8-6.596-4.317l-.124-.142c-.424-.492-.88-.954-1.363-1.387.429.792.875 1.675 1.355 2.624l.04.085.214.433c.729 1.45 1.208 2.416 2.003 3.225.775.791 1.983 1.557 4.426 2.04l7.474 1.013a2.176 2.176 0 011.883 2.159v4.28c0 3.333-1.562 6.304-3.957 8.104a8.7 8.7 0 01-8.929.983C712.092 89.279 700 71.959 700 51.783c0-27.466 22.405-49.699 50-49.699s50 22.232 50 49.7c0 20.279-12.246 37.645-29.737 45.358a8.713 8.713 0 01-8.904-1.029 10.114 10.114 0 01-3.942-8.091V75.145c0-.292-.205-1.975-1.342-4.238a2.188 2.188 0 01.033-2.014 2.187 2.187 0 011.667-1.13c1.429-.16 3.837-.622 6.267-1.485 2.475-.874 4.695-2.074 6.016-3.55 1.964-2.192 2.942-3.875 3.479-5.696.558-1.887.7-4.084.7-7.47 0-4.755-2.5-8.75-3.65-10.038a2.179 2.179 0 01-.433-2.18c.583-1.64 1.292-4.195 1.563-6.474.132-1.146.141-2.105.024-2.795a1.912 1.912 0 00-.224-.722 2.026 2.026 0 00-.863.037c-.708.134-1.612.468-2.638.976-2.041 1.008-4.167 2.5-5.482 3.567a2.167 2.167 0 01-2.105.354A38.788 38.788 0 00750 30.399c-4.196.1-9.037 1.291-10.692 1.888a2.162 2.162 0 01-2.103-.354 32.394 32.394 0 00-5.485-3.567 10.868 10.868 0 00-2.64-.976 2.028 2.028 0 00-.86-.036 1.906 1.906 0 00-.224.72c-.116.691-.108 1.65.024 2.796.272 2.28.984 4.834 1.563 6.475a2.18 2.18 0 01-.434 2.18C728 40.811 725.5 44.806 725.5 49.561c0 3.383.142 5.583.7 7.47.542 1.821 1.517 3.5 3.475 5.696 1.325 1.476 3.542 2.674 6.021 3.55a29.99 29.99 0 006.262 1.483 2.172 2.172 0 011.811 2.909 2.168 2.168 0 01-.786 1.029c-.687.491-1.141 1.376-1.395 2.396a8.116 8.116 0 00-.234 1.604v.08a2.178 2.178 0 01-1.871 2.18z" clip-rule="evenodd"/>
    </g>
    <g clip-path="url(#clip8_150_4)">
      <path stroke="#00717B" stroke-width="3.5" d="M850 97.892c26.45 0 47.892-21.442 47.892-47.892 0-26.45-21.442-47.892-47.892-47.892-26.45 0-47.892 21.442-47.892 47.892 0 26.45 21.442 47.892 47.892 47.892z"/>
      <path fill="#00717B" d="M831.33 37.22a5.824 5.824 0 005.906-5.82 5.82 5.82 0 00-1.735-4.147 5.827 5.827 0 00-4.171-1.675 5.822 5.822 0 000 11.643zm11.318 4.413V73.93h10.029V57.958c0-4.215.793-8.297 6.018-8.297 5.153 0 5.217 4.82 5.217 8.563v15.709h10.034V56.222c0-8.702-1.874-15.388-12.042-15.388-4.882 0-8.156 2.68-9.494 5.215h-.135v-4.416h-9.627zm-16.341 0h10.044V73.93h-10.044V41.632z"/>
    </g>
    <g clip-path="url(#clip9_150_4)">
      <path fill="#00717B" stroke="#00717B" stroke-width="3.5" d="M950 97.892c26.449 0 47.892-21.443 47.892-47.892 0-26.45-21.443-47.892-47.892-47.892S902.108 23.551 902.108 50c0 26.45 21.443 47.892 47.892 47.892z"/>
      <path fill="#fff" d="M931.33 37.22a5.829 5.829 0 004.905-2.561 5.816 5.816 0 10-9.638-6.516 5.816 5.816 0 001.766 8.212 5.82 5.82 0 002.967.865zm11.318 4.413V73.93h10.029V57.958c0-4.215.793-8.297 6.018-8.297 5.153 0 5.217 4.82 5.217 8.563v15.709h10.034V56.222c0-8.702-1.874-15.388-12.042-15.388-4.882 0-8.156 2.68-9.494 5.215h-.135v-4.416h-9.627zm-16.341 0h10.044V73.93h-10.044V41.632z"/>
    </g>
    <path fill="#F29E03" d="M75 132.563v31.612A12.5 12.5 0 1081.25 175v-62.963a4.998 4.998 0 00-6.687-4.712l-40 14.287a5 5 0 00-3.314 4.707v44.1a12.502 12.502 0 00-15.085 1.987 12.499 12.499 0 1021.336 8.845v-35.294L75 132.569v-.006z"/>
    <path fill="#333" d="M175 132.563v31.612a12.502 12.502 0 00-18.643 9.194 12.502 12.502 0 0022.311 9.241 12.503 12.503 0 002.583-7.61v-62.963a5.01 5.01 0 00-2.121-4.093 4.999 4.999 0 00-4.567-.619l-40 14.287a5 5 0 00-3.314 4.707v44.1a12.5 12.5 0 00-15.085 1.987 12.493 12.493 0 004.051 20.384 12.496 12.496 0 0014.699-3.933 12.493 12.493 0 002.586-7.606v-35.294l37.5-13.388v-.006zM246.575 181.537a4.157 4.157 0 006.85 0l37.5-54.166a4.158 4.158 0 00-3.425-6.537h-75a4.18 4.18 0 00-3.681 2.237 4.17 4.17 0 00.256 4.3l37.5 54.166z"/>
    <path fill="#00717B" d="M346.575 181.537a4.157 4.157 0 006.85 0l37.5-54.166a4.159 4.159 0 00.269-4.307 4.161 4.161 0 00-3.694-2.23h-75a4.169 4.169 0 00-3.683 2.236 4.173 4.173 0 00.258 4.301l37.5 54.166z"/>
    <g clip-path="url(#clip10_150_4)">
      <path fill="#fff" stroke="#F29E03" d="M471.871 147.621a8.84 8.84 0 018.699 14.747l-8.699-14.747v0zm0 0h-.006l-.054.015a8.848 8.848 0 00-3.75 2.232v.001l-23.209 23.209a15.43 15.43 0 00-4.056 7.167s0 0 0 0l-1.641 6.557a3.695 3.695 0 004.47 4.482h.001l6.558-1.641a15.422 15.422 0 007.167-4.056v0l23.218-23.219-8.698-14.747v0zm-26.622-37.838v-.391h-19.344a8.512 8.512 0 00-8.513 8.513v59.554a8.51 8.51 0 008.513 8.514h8.672l.075-.297 1.635-6.546a20.062 20.062 0 015.279-9.322v0l23.214-23.214a13.405 13.405 0 017.208-3.746l.325-.056v-6.326H452.97a7.729 7.729 0 01-7.721-7.731v-18.952zm25.319 22.051h.945l-.668-.668-20.306-20.306-.277.277h-.392v17.598a3.1 3.1 0 003.1 3.099h17.598z"/>
    </g>
    <path fill="#00717B" d="M623.345 143.373v-20.557h5.643c1.741 0 3.278.396 4.615 1.186 1.336.791 2.366 1.916 3.09 3.374.733 1.46 1.103 3.135 1.112 5.026v1.314c0 1.939-.366 3.638-1.099 5.096-.723 1.46-1.762 2.581-3.117 3.361-1.345.781-2.916 1.181-4.71 1.2h-5.534zm2.636-18.325v16.109h2.774c2.032 0 3.612-.65 4.738-1.949 1.136-1.298 1.703-3.148 1.703-5.548v-1.201c0-2.334-.536-4.146-1.607-5.435-1.062-1.299-2.572-1.958-4.532-1.976h-3.076zm31.201 8.711c0 2.013-.329 3.774-.989 5.28-.658 1.496-1.592 2.641-2.8 3.431-1.21.79-2.62 1.185-4.231 1.185-1.575 0-2.971-.395-4.188-1.185-1.218-.8-2.166-1.934-2.843-3.403-.668-1.478-1.011-3.186-1.03-5.125v-1.482c0-1.977.334-3.723 1.003-5.238.668-1.516 1.611-2.674 2.829-3.474 1.227-.809 2.627-1.214 4.202-1.214 1.602 0 3.012.4 4.229 1.2 1.227.79 2.171 1.943 2.829 3.459.66 1.506.989 3.261.989 5.266v1.3zm-2.622-1.328c0-2.437-.477-4.306-1.429-5.604-.952-1.309-2.284-1.964-3.996-1.964-1.666 0-2.98.655-3.942 1.964-.952 1.298-1.441 3.106-1.468 5.421v1.511c0 2.361.48 4.221 1.441 5.576.97 1.347 2.303 2.019 3.996 2.019 1.703 0 3.021-.635 3.955-1.906.934-1.279 1.415-3.111 1.443-5.491v-1.526zm10.89 4.462l.384 2.711.563-2.443 3.955-14.345h2.225l3.859 14.345.549 2.485.426-2.768 3.103-14.062h2.651l-4.848 20.557h-2.403l-4.119-14.98-.317-1.566-.315 1.566-4.272 14.98h-2.403l-4.834-20.557h2.637l3.159 14.077zm36.021 6.48h-2.651l-10.066-15.84v15.84h-2.65v-20.557h2.65l10.094 15.912v-15.91h2.623v20.555zm7.334-2.216h9.475v2.216h-12.126v-20.557h2.651v18.341zm26.958-7.398c0 2.013-.331 3.774-.99 5.28-.659 1.496-1.593 2.641-2.802 3.431-1.208.79-2.617 1.185-4.229 1.185-1.575 0-2.971-.395-4.188-1.185-1.218-.8-2.166-1.934-2.843-3.403-.668-1.478-1.011-3.186-1.03-5.125v-1.482c0-1.977.334-3.723 1.002-5.238.669-1.516 1.611-2.674 2.829-3.474 1.227-.809 2.628-1.214 4.202-1.214 1.603 0 3.013.4 4.231 1.2 1.226.79 2.169 1.943 2.828 3.459.659 1.506.99 3.261.99 5.266v1.3zm-2.624-1.328c0-2.437-.476-4.306-1.428-5.604-.952-1.309-2.285-1.964-3.997-1.964-1.665 0-2.98.655-3.941 1.964-.952 1.298-1.441 3.106-1.469 5.421v1.511c0 2.361.48 4.221 1.442 5.576.97 1.347 2.303 2.019 3.996 2.019 1.703 0 3.021-.635 3.955-1.906.934-1.279 1.415-3.111 1.442-5.491v-1.526zm17.318 5.577h-8.378l-1.881 5.365h-2.72l7.636-20.557h2.307l7.649 20.557h-2.704l-1.909-5.365zm-7.581-2.231h6.798l-3.407-9.614-3.391 9.614zm14.886 7.596v-20.557h5.644c1.74 0 3.278.396 4.615 1.186 1.337.791 2.366 1.916 3.09 3.374.732 1.46 1.103 3.135 1.112 5.026v1.314c0 1.939-.367 3.638-1.099 5.096-.723 1.46-1.763 2.581-3.117 3.361-1.346.781-2.916 1.181-4.71 1.2h-5.535zm2.637-18.325v16.109h2.774c2.033 0 3.611-.65 4.738-1.949 1.135-1.298 1.702-3.148 1.702-5.548v-1.201c0-2.334-.535-4.146-1.606-5.435-1.062-1.299-2.573-1.958-4.532-1.976h-3.076zm-99.344 31.504l6.537 16.772 6.537-16.773h3.419v20.557h-2.636v-8.006l.247-8.639-6.565 16.645h-2.018l-6.551-16.603.261 8.597v8.006h-2.637v-20.557l3.406.001zm26.861 10.32l5.22-10.32h2.993l-6.895 12.89v7.666h-2.636v-7.666l-6.893-12.891h3.021l5.19 10.321zm32.479 3.714c-.248 2.174-1.031 3.855-2.349 5.041-1.309 1.175-3.053 1.763-5.231 1.763-2.363 0-4.258-.87-5.686-2.612-1.419-1.741-2.128-4.071-2.128-6.988v-1.977c0-1.911.329-3.59.988-5.041.669-1.449 1.611-2.56 2.829-3.331 1.217-.782 2.628-1.172 4.23-1.172 2.123 0 3.826.612 5.108 1.836 1.282 1.213 2.029 2.899 2.239 5.054h-2.65c-.23-1.639-.728-2.824-1.498-3.558-.759-.735-1.826-1.101-3.199-1.101-1.685 0-3.008.639-3.969 1.919-.952 1.281-1.429 3.103-1.429 5.465v1.991c0 2.231.454 4.005 1.36 5.323.907 1.318 2.175 1.975 3.805 1.975 1.465 0 2.586-.337 3.364-1.015.788-.687 1.309-1.878 1.566-3.572h2.65zm10.231 2.922l5.713-16.957h2.884l-7.416 20.557h-2.335l-7.402-20.557h2.87l5.686 16.957zM500 118c0-9.941 8.059-18 18-18h81.609v100H521c-11.598 0-21-9.402-21-21v-61z"/>
    <path fill="#fff" d="M565.332 138.012h-9.316v-19.157h-12.422v19.157h-9.317l15.528 15.964 15.527-15.964zm13.471 20.855c-.652-.715-5.003-5.501-6.245-6.749a4.602 4.602 0 00-3.236-1.335h-5.456l9.516 9.559h-11.007a.838.838 0 00-.428.11.87.87 0 00-.317.315l-2.535 5.98h-18.582l-2.535-5.98a.868.868 0 00-.317-.314.84.84 0 00-.428-.111h-11.005l9.512-9.559h-5.454a4.612 4.612 0 00-3.236 1.335c-1.242 1.251-5.593 6.036-6.246 6.749-1.517 1.663-2.353 2.988-1.956 4.627l1.743 9.814c.398 1.641 2.146 2.988 3.888 2.988h50.657c1.741 0 3.49-1.347 3.887-2.988l1.743-9.814c.391-1.639-.441-2.964-1.963-4.627z"/>
    <path stroke="#00717B" stroke-width="3" d="M780.078 101.807H519.922c-10.032 0-18.164 8.361-18.164 18.675v59.036c0 10.314 8.132 18.675 18.164 18.675h260.156c10.032 0 18.164-8.361 18.164-18.675v-59.036c0-10.314-8.132-18.675-18.164-18.675z"/>
    <g>
      <path fill="#00717B" d="M623.345 243.373v-20.557h5.643c1.741 0 3.278.396 4.615 1.186 1.336.791 2.366 1.916 3.09 3.374.733 1.46 1.103 3.135 1.112 5.026v1.314c0 1.939-.366 3.638-1.099 5.096-.723 1.46-1.762 2.581-3.117 3.361-1.345.781-2.916 1.181-4.71 1.2h-5.534zm2.636-18.325v16.109h2.774c2.032 0 3.612-.65 4.738-1.949 1.136-1.298 1.703-3.148 1.703-5.548v-1.201c0-2.334-.536-4.146-1.607-5.435-1.062-1.299-2.572-1.958-4.532-1.976h-3.076zm31.201 8.711c0 2.013-.329 3.774-.989 5.28-.658 1.496-1.592 2.641-2.8 3.431-1.21.79-2.62 1.185-4.231 1.185-1.575 0-2.971-.395-4.188-1.185-1.218-.8-2.166-1.934-2.843-3.403-.668-1.478-1.011-3.186-1.03-5.125v-1.482c0-1.977.334-3.723 1.003-5.238.668-1.516 1.611-2.674 2.829-3.474 1.227-.809 2.627-1.214 4.202-1.214 1.602 0 3.012.4 4.229 1.2 1.227.79 2.171 1.943 2.829 3.459.66 1.506.989 3.261.989 5.266v1.3zm-2.622-1.328c0-2.437-.477-4.306-1.429-5.604-.953-1.309-2.284-1.964-3.996-1.964-1.666 0-2.98.655-3.942 1.964-.952 1.298-1.441 3.106-1.468 5.421v1.511c0 2.361.48 4.221 1.441 5.576.97 1.347 2.303 2.019 3.996 2.019 1.703 0 3.021-.635 3.955-1.906.934-1.279 1.415-3.111 1.443-5.491v-1.526zm10.89 4.462l.384 2.711.563-2.443 3.955-14.345h2.225l3.859 14.345.549 2.485.426-2.768 3.103-14.062h2.651l-4.848 20.557h-2.403l-4.119-14.98-.317-1.566-.315 1.566-4.272 14.98h-2.403l-4.834-20.557h2.637l3.159 14.077zm36.021 6.48h-2.651l-10.066-15.84v15.84h-2.65v-20.557h2.65l10.094 15.912v-15.91h2.623v20.555zm7.334-2.216h9.475v2.216h-12.126v-20.557h2.651v18.341zm26.957-7.398c0 2.013-.33 3.774-.989 5.28-.659 1.496-1.593 2.641-2.802 3.431-1.208.79-2.618 1.185-4.229 1.185-1.575 0-2.971-.395-4.188-1.185-1.218-.8-2.166-1.934-2.843-3.403-.668-1.478-1.011-3.186-1.03-5.125v-1.482c0-1.977.334-3.723 1.002-5.238.669-1.516 1.611-2.674 2.829-3.474 1.227-.809 2.628-1.214 4.202-1.214 1.603 0 3.013.4 4.231 1.2 1.226.79 2.169 1.943 2.828 3.459.659 1.506.989 3.261.989 5.266v1.3zm-2.623-1.328c0-2.437-.476-4.306-1.428-5.604-.952-1.309-2.285-1.964-3.997-1.964-1.665 0-2.98.655-3.941 1.964-.952 1.298-1.441 3.106-1.47 5.421v1.511c0 2.361.481 4.221 1.443 5.576.97 1.347 2.303 2.019 3.996 2.019 1.703 0 3.021-.635 3.955-1.906.934-1.279 1.415-3.111 1.442-5.491v-1.526zm17.318 5.577h-8.378l-1.881 5.365h-2.72l7.636-20.557h2.307l7.649 20.557h-2.704l-1.909-5.365zm-7.581-2.231h6.798l-3.407-9.614-3.391 9.614zm14.886 7.596v-20.557h5.644c1.74 0 3.278.396 4.615 1.186 1.337.791 2.366 1.916 3.09 3.374.732 1.46 1.103 3.135 1.112 5.026v1.314c0 1.939-.367 3.638-1.099 5.096-.723 1.46-1.763 2.581-3.117 3.361-1.346.781-2.916 1.181-4.71 1.2h-5.535zm2.637-18.325v16.109h2.774c2.033 0 3.611-.65 4.738-1.949 1.135-1.298 1.702-3.148 1.702-5.548v-1.201c0-2.334-.535-4.146-1.606-5.435-1.062-1.299-2.573-1.958-4.532-1.976h-3.076zm-99.344 31.504l6.537 16.772 6.537-16.773h3.419v20.557h-2.636v-8.006l.247-8.639-6.565 16.645h-2.018l-6.551-16.603.261 8.597v8.006h-2.637v-20.557l3.406.001zm26.861 10.32l5.22-10.32h2.993l-6.895 12.89v7.666h-2.636v-7.666l-6.893-12.891h3.021l5.19 10.321zm32.479 3.714c-.248 2.174-1.031 3.855-2.349 5.041-1.309 1.175-3.053 1.763-5.231 1.763-2.363 0-4.258-.87-5.686-2.612-1.419-1.741-2.128-4.071-2.128-6.988v-1.977c0-1.911.329-3.59.988-5.041.669-1.449 1.611-2.56 2.829-3.331 1.217-.782 2.628-1.172 4.23-1.172 2.123 0 3.826.612 5.108 1.836 1.282 1.213 2.029 2.899 2.239 5.054h-2.65c-.23-1.639-.728-2.824-1.498-3.558-.759-.735-1.826-1.101-3.199-1.101-1.685 0-3.008.639-3.969 1.919-.952 1.281-1.429 3.103-1.429 5.465v1.991c0 2.231.454 4.005 1.36 5.323.907 1.318 2.175 1.976 3.805 1.976 1.465 0 2.586-.338 3.364-1.016.788-.687 1.309-1.878 1.566-3.572h2.65zm10.231 2.922l5.713-16.957h2.884l-7.416 20.557h-2.335l-7.402-20.557h2.87l5.686 16.957zm68.788-47.002c0-14.639-11.543-26.506-25.781-26.506H599.609v100h174.024c14.238 0 25.781-11.867 25.781-26.506v-46.988zm-234.082 11.506h-9.316v-19.157h-12.422v19.157h-9.317l15.528 15.964 15.527-15.964zm13.471 20.855c-.652-.715-5.003-5.501-6.245-6.749a4.604 4.604 0 00-3.236-1.335h-5.456l9.516 9.559h-11.007a.838.838 0 00-.428.11.87.87 0 00-.317.315l-2.535 5.98h-18.582l-2.535-5.98a.868.868 0 00-.317-.314.84.84 0 00-.428-.111h-11.005l9.512-9.559h-5.454a4.612 4.612 0 00-3.236 1.335c-1.242 1.251-5.593 6.036-6.246 6.749-1.517 1.663-2.353 2.988-1.956 4.627l1.743 9.814c.398 1.641 2.146 2.988 3.888 2.988h50.657c1.741 0 3.49-1.347 3.887-2.988l1.743-9.814c.391-1.639-.441-2.964-1.963-4.627z"/>
      <path stroke="#00717B" stroke-width="3" d="M780.078 201.807H519.922c-10.031 0-18.164 8.362-18.164 18.675v59.036c0 10.313 8.133 18.675 18.164 18.675h260.156c10.031 0 18.164-8.362 18.164-18.675v-59.036c0-10.313-8.133-18.675-18.164-18.675z"/>
    </g>
    <g>
      <path fill="#fff" d="M900 100c-55.229 0-100 44.771-100 100s44.771 100 100 100 100-44.771 100-100-44.771-100-100-100z"/>
      <path fill="#F2994A" d="M900 100c-55.229 0-100 44.771-100 100s44.771 100 100 100 100-44.771 100-100-44.771-100-100-100zm-67.114 73.242h134.228v53.516H832.886v-53.516z"/>
    </g>
  </g>
  <defs>
    <clipPath id="clip0_150_4">
      <path fill="#fff" d="M0 0h1000v300H0z"/>
    </clipPath>
    <clipPath id="clip1_150_4">
      <path fill="#fff" d="M0 0h100v100H0z"/>
    </clipPath>
    <clipPath id="clip2_150_4">
      <path fill="#fff" d="M0 0h100v100H0z" transform="translate(100)"/>
    </clipPath>
    <clipPath id="clip3_150_4">
      <path fill="#fff" d="M0 0h100v100H0z" transform="translate(200)"/>
    </clipPath>
    <clipPath id="clip4_150_4">
      <path fill="#fff" d="M0 0h100v100H0z" transform="translate(300)"/>
    </clipPath>
    <clipPath id="clip5_150_4">
      <path fill="#fff" d="M0 0h100v100H0z" transform="translate(400)"/>
    </clipPath>
    <clipPath id="clip6_150_4">
      <path fill="#fff" d="M0 0h100v100H0z" transform="translate(500)"/>
    </clipPath>
    <clipPath id="clip7_150_4">
      <path fill="#fff" d="M0 0h100v100H0z" transform="translate(700)"/>
    </clipPath>
    <clipPath id="clip8_150_4">
      <path fill="#fff" d="M0 0h100v100H0z" transform="translate(800)"/>
    </clipPath>
    <clipPath id="clip9_150_4">
      <path fill="#fff" d="M0 0h100v100H0z" transform="translate(900)"/>
    </clipPath>
    <clipPath id="clip10_150_4">
      <path fill="#fff" d="M0 0h66.557v83H0z" transform="translate(417 109)"/>
    </clipPath>
  </defs>
</svg>
