<svg xmlns="http://www.w3.org/2000/svg" width="900" height="200" fill="none" viewBox="0 0 900 200">
  <g clip-path="url(#a)">
    <path fill="#00717B" stroke="#fff" stroke-width="2" d="M57.5 5a7.5 7.5 0 0 0-7.5 7.5v25a7.5 7.5 0 0 0 7.5 7.5h30a7.5 7.5 0 0 0 7.5-7.5v-25A7.5 7.5 0 0 0 87.5 5h-30Zm5 25h20a2.5 2.5 0 0 1 0 5h-20a2.5 2.5 0 0 1 0-5ZM60 17.5a2.5 2.5 0 0 1 2.5-2.5h20a2.5 2.5 0 0 1 0 5h-20a2.5 2.5 0 0 1-2.5-2.5ZM23 15h22v5H23c-4.48 0-8 3.565-8 7.83v33.55c0 4.265 3.52 7.83 8 7.83h8V85h.015l.01-.005 21.38-15.785H77c4.48 0 8-3.565 8-7.83V50h2.5c.855 0 1.69-.085 2.5-.25v11.63c0 7.09-5.82 12.83-13 12.83H54.05L33.995 89.015a5.045 5.045 0 0 1-7-.995A4.89 4.89 0 0 1 26 85.07V74.21h-3c-7.18 0-13-5.745-13-12.83V27.83C10 20.745 15.82 15 23 15Z"/>
    <path fill="#F29E03" stroke="#fff" stroke-width="2" d="M157.5 5a7.499 7.499 0 0 0-7.5 7.5v25a7.498 7.498 0 0 0 7.5 7.5h30a7.499 7.499 0 0 0 7.5-7.5v-25a7.498 7.498 0 0 0-7.5-7.5h-30Zm5 25h20a2.501 2.501 0 0 1 0 5h-20a2.501 2.501 0 0 1 0-5ZM160 17.5a2.5 2.5 0 0 1 2.5-2.5h20a2.501 2.501 0 0 1 0 5h-20a2.501 2.501 0 0 1-2.5-2.5ZM123 15h22v5h-22c-4.48 0-8 3.565-8 7.83v33.55c0 4.265 3.52 7.83 8 7.83h8V85h.015l.01-.005 21.38-15.785H177c4.48 0 8-3.565 8-7.83V50h2.5c.855 0 1.69-.085 2.5-.25v11.63c0 7.09-5.82 12.83-13 12.83h-22.95l-20.055 14.805a5.044 5.044 0 0 1-7-.995 4.889 4.889 0 0 1-.995-2.95V74.21h-3c-7.18 0-13-5.745-13-12.83V27.83c0-7.085 5.82-12.83 13-12.83Z"/>
    <path stroke="#fff" stroke-linecap="round" stroke-linejoin="round" stroke-width="7" d="M255.935 43.068a18.2 18.2 0 0 0-25.734 0L217.33 55.935a18.199 18.199 0 0 0 25.738 25.737l6.433-6.433"/>
    <path stroke="#00717B" stroke-linecap="round" stroke-linejoin="round" stroke-width="3" d="M255.935 43.068a18.2 18.2 0 0 0-25.734 0L217.33 55.935a18.199 18.199 0 0 0 25.738 25.737l6.433-6.433"/>
    <path stroke="#fff" stroke-linecap="round" stroke-linejoin="round" stroke-width="7" d="M243.068 55.935a18.2 18.2 0 0 0 25.733 0l12.871-12.867a18.199 18.199 0 0 0-25.737-25.738l-6.434 6.434"/>
    <path stroke="#00717B" stroke-linecap="round" stroke-linejoin="round" stroke-width="3" d="M243.068 55.935a18.2 18.2 0 0 0 25.733 0l12.871-12.867a18.199 18.199 0 0 0-25.737-25.738l-6.434 6.434"/>
    <path stroke="#fff" stroke-linecap="round" stroke-linejoin="round" stroke-width="7" d="M355.935 43.068a18.2 18.2 0 0 0-25.734 0L317.33 55.935a18.199 18.199 0 0 0 25.738 25.737l6.433-6.433"/>
    <path stroke="#F29E03" stroke-linecap="round" stroke-linejoin="round" stroke-width="3" d="M355.935 43.068a18.2 18.2 0 0 0-25.734 0L317.33 55.935a18.199 18.199 0 0 0 25.738 25.737l6.433-6.433"/>
    <path stroke="#fff" stroke-linecap="round" stroke-linejoin="round" stroke-width="7" d="M343.068 55.935a18.2 18.2 0 0 0 25.733 0l12.871-12.867a18.2 18.2 0 1 0-25.737-25.738l-6.434 6.434"/>
    <path stroke="#F29E03" stroke-linecap="round" stroke-linejoin="round" stroke-width="3" d="M343.068 55.935a18.2 18.2 0 0 0 25.733 0l12.871-12.867a18.2 18.2 0 1 0-25.737-25.738l-6.434 6.434"/>
    <path fill="#00717B" d="M476.918 76.473a27.932 27.932 0 0 0-2.227-23.242l-6.64-11.524a7.11 7.11 0 0 0-3.555-3.047 7.03 7.03 0 0 0-8.594 10.078L445.746 31.16a6.989 6.989 0 0 0-3.594-3.047 7.03 7.03 0 0 0-8.593 10.078l-3.125-5.39a6.876 6.876 0 0 0-3.555-3.047l-.938-1.602a7.035 7.035 0 0 1 12.188-7.031l3.125 5.43a7.043 7.043 0 0 1-.701-5.339 7.023 7.023 0 0 1 3.279-4.27 7.035 7.035 0 0 1 9.609 2.578l10.157 17.578a7.025 7.025 0 0 1-.701-5.339 7.034 7.034 0 0 1 12.888-1.693l6.641 11.485a28.167 28.167 0 0 1-5.508 34.922Z" opacity=".2"/>
    <mask id="b" fill="#fff">
      <path d="M476.008 27.573a10.156 10.156 0 0 0-6.172-4.727 10.001 10.001 0 0 0-7.695 1.016 9.722 9.722 0 0 0-3.008 2.617l-5.469-9.453a10.16 10.16 0 0 0-10.111-5.016 10.159 10.159 0 0 0-3.756 1.266 10.578 10.578 0 0 0-3.281 3.008 9.849 9.849 0 0 0-4.336-2.383 10.001 10.001 0 0 0-7.695 1.016 10.155 10.155 0 0 0-4.727 6.171 9.757 9.757 0 0 0-.195 4.375c-.97.238-1.903.606-2.774 1.094a10.195 10.195 0 0 0-3.711 13.907l.782 1.328a9.498 9.498 0 0 0-3.79 1.289 10.153 10.153 0 0 0-3.71 13.867l14.453 25.039a31.288 31.288 0 0 0 42.695 11.445A30.86 30.86 0 0 0 477.141 77.3a31.213 31.213 0 0 0 5.508-38.242l-6.641-11.484Zm-33.086-8.867a3.904 3.904 0 0 1 5.352 1.445l8.32 14.414a10.55 10.55 0 0 0-2.149.938 10.303 10.303 0 0 0-3.007 2.617l-5.469-9.453a10.001 10.001 0 0 0-4.063-3.907l-.429-.703a3.948 3.948 0 0 1 1.445-5.351Zm-15.312 1.601a3.944 3.944 0 0 1 5.351 1.446l1.289 2.265c-.746.24-1.466.553-2.148.938a9.769 9.769 0 0 0-3.282 3.008 9.904 9.904 0 0 0-2.226-1.563l-.391-.742a3.903 3.903 0 0 1-.408-2.968 3.918 3.918 0 0 1 1.815-2.384Zm44.414 52.54a24.74 24.74 0 0 1-11.641 15.156 25.002 25.002 0 0 1-34.141-9.141l-14.453-25.04a3.904 3.904 0 0 1 .269-4.333 3.903 3.903 0 0 1 4.106-1.408 4.023 4.023 0 0 1 2.383 1.836l9.375 16.25a3.2 3.2 0 0 0 2.695 1.562 3.126 3.126 0 0 0 2.696-4.687l-14.844-25.703a3.92 3.92 0 1 1 6.797-3.907l14.844 25.703a3.126 3.126 0 1 0 5.39-3.125l-11.719-20.312a3.944 3.944 0 0 1 1.446-5.352 3.906 3.906 0 0 1 5.312 1.446l16.406 28.437a3.207 3.207 0 0 0 2.735 1.563 3.358 3.358 0 0 0 1.562-.43 3.125 3.125 0 0 0 1.133-4.258l-6.25-10.86a3.866 3.866 0 0 1-.39-2.929 3.734 3.734 0 0 1 1.835-2.383 3.678 3.678 0 0 1 2.93-.39 3.828 3.828 0 0 1 2.383 1.797l6.641 11.523a24.816 24.816 0 0 1 2.5 18.984Zm7.862-13.77c-.186 1.049-1.653 1.054-1.924.024-.733-2.79-1.804-6.283-3.009-8.364l-6.64-11.523a10.277 10.277 0 0 0-4.063-3.907l-.43-.703a3.946 3.946 0 0 1-.39-2.969 4.024 4.024 0 0 1 1.836-2.382 3.865 3.865 0 0 1 5.312 1.445l6.641 11.484a25.044 25.044 0 0 1 3.245 10.41c.145 1.754-.189 4.304-.578 6.485Zm-14.425-48.692 1.602-6.054a3.117 3.117 0 0 1 1.453-1.906 3.128 3.128 0 0 1 4.281 1.132 3.127 3.127 0 0 1 .32 2.375l-1.64 6.055a3.087 3.087 0 0 1-3.008 2.305l-.82-.079a3.124 3.124 0 0 1-2.188-3.828Zm10.274 3.594 3.593-5.117a3.165 3.165 0 0 1 4.375-.781 3.117 3.117 0 0 1 1.283 2.033 3.12 3.12 0 0 1-.541 2.342l-3.593 5.117a3.085 3.085 0 0 1-4.336.742 3.122 3.122 0 0 1-.781-4.336Zm17.148 8.438-5.117 3.593a3.36 3.36 0 0 1-1.797.547 3.125 3.125 0 0 1-1.797-5.664l5.117-3.594a3.129 3.129 0 0 1 3.487-.102c.349.22.651.507.888.845a3.165 3.165 0 0 1-.781 4.375Z"/>
    </mask>
    <path fill="#00717B" stroke="#fff" stroke-width="4" d="M476.008 27.573a10.156 10.156 0 0 0-6.172-4.727 10.001 10.001 0 0 0-7.695 1.016 9.722 9.722 0 0 0-3.008 2.617l-5.469-9.453a10.16 10.16 0 0 0-10.111-5.016 10.159 10.159 0 0 0-3.756 1.266 10.578 10.578 0 0 0-3.281 3.008 9.849 9.849 0 0 0-4.336-2.383 10.001 10.001 0 0 0-7.695 1.016 10.155 10.155 0 0 0-4.727 6.171 9.757 9.757 0 0 0-.195 4.375c-.97.238-1.903.606-2.774 1.094a10.195 10.195 0 0 0-3.711 13.907l.782 1.328a9.498 9.498 0 0 0-3.79 1.289 10.153 10.153 0 0 0-3.71 13.867l14.453 25.039a31.288 31.288 0 0 0 42.695 11.445A30.86 30.86 0 0 0 477.141 77.3a31.213 31.213 0 0 0 5.508-38.242l-6.641-11.484Zm-33.086-8.867a3.904 3.904 0 0 1 5.352 1.445l8.32 14.414a10.55 10.55 0 0 0-2.149.938 10.303 10.303 0 0 0-3.007 2.617l-5.469-9.453a10.001 10.001 0 0 0-4.063-3.907l-.429-.703a3.948 3.948 0 0 1 1.445-5.351Zm-15.312 1.601a3.944 3.944 0 0 1 5.351 1.446l1.289 2.265c-.746.24-1.466.553-2.148.938a9.769 9.769 0 0 0-3.282 3.008 9.904 9.904 0 0 0-2.226-1.563l-.391-.742a3.903 3.903 0 0 1-.408-2.968 3.918 3.918 0 0 1 1.815-2.384Zm44.414 52.54a24.74 24.74 0 0 1-11.641 15.156 25.002 25.002 0 0 1-34.141-9.141l-14.453-25.04a3.904 3.904 0 0 1 .269-4.333 3.903 3.903 0 0 1 4.106-1.408 4.023 4.023 0 0 1 2.383 1.836l9.375 16.25a3.2 3.2 0 0 0 2.695 1.562 3.126 3.126 0 0 0 2.696-4.687l-14.844-25.703a3.92 3.92 0 1 1 6.797-3.907l14.844 25.703a3.126 3.126 0 1 0 5.39-3.125l-11.719-20.312a3.944 3.944 0 0 1 1.446-5.352 3.906 3.906 0 0 1 5.312 1.446l16.406 28.437a3.207 3.207 0 0 0 2.735 1.563 3.358 3.358 0 0 0 1.562-.43 3.125 3.125 0 0 0 1.133-4.258l-6.25-10.86a3.866 3.866 0 0 1-.39-2.929 3.734 3.734 0 0 1 1.835-2.383 3.678 3.678 0 0 1 2.93-.39 3.828 3.828 0 0 1 2.383 1.797l6.641 11.523a24.816 24.816 0 0 1 2.5 18.984Zm7.862-13.77c-.186 1.049-1.653 1.054-1.924.024-.733-2.79-1.804-6.283-3.009-8.364l-6.64-11.523a10.277 10.277 0 0 0-4.063-3.907l-.43-.703a3.946 3.946 0 0 1-.39-2.969 4.024 4.024 0 0 1 1.836-2.382 3.865 3.865 0 0 1 5.312 1.445l6.641 11.484a25.044 25.044 0 0 1 3.245 10.41c.145 1.754-.189 4.304-.578 6.485Zm-14.425-48.692 1.602-6.054a3.117 3.117 0 0 1 1.453-1.906 3.128 3.128 0 0 1 4.281 1.132 3.127 3.127 0 0 1 .32 2.375l-1.64 6.055a3.087 3.087 0 0 1-3.008 2.305l-.82-.079a3.124 3.124 0 0 1-2.188-3.828Zm10.274 3.594 3.593-5.117a3.165 3.165 0 0 1 4.375-.781 3.117 3.117 0 0 1 1.283 2.033 3.12 3.12 0 0 1-.541 2.342l-3.593 5.117a3.085 3.085 0 0 1-4.336.742 3.122 3.122 0 0 1-.781-4.336Zm17.148 8.438-5.117 3.593a3.36 3.36 0 0 1-1.797.547 3.125 3.125 0 0 1-1.797-5.664l5.117-3.594a3.129 3.129 0 0 1 3.487-.102c.349.22.651.507.888.845a3.165 3.165 0 0 1-.781 4.375Z" mask="url(#b)"/>
    <path fill="#F29E03" d="M574.918 77.473a27.932 27.932 0 0 0-2.227-23.242l-6.64-11.524a7.11 7.11 0 0 0-3.555-3.047 7.03 7.03 0 0 0-8.594 10.078L543.746 32.16a6.989 6.989 0 0 0-3.594-3.047 7.03 7.03 0 0 0-8.593 10.078l-3.125-5.39a6.876 6.876 0 0 0-3.555-3.047l-.938-1.602a7.035 7.035 0 0 1 12.188-7.031l3.125 5.43a7.043 7.043 0 0 1-.701-5.339 7.023 7.023 0 0 1 3.279-4.27 7.035 7.035 0 0 1 9.609 2.578l10.157 17.578a7.025 7.025 0 0 1-.701-5.339 7.034 7.034 0 0 1 12.888-1.693l6.641 11.485a28.167 28.167 0 0 1-5.508 34.922Z" opacity=".2"/>
    <mask id="c" fill="#fff">
      <path d="M576.008 27.573a10.156 10.156 0 0 0-6.172-4.727 10.001 10.001 0 0 0-7.695 1.016 9.722 9.722 0 0 0-3.008 2.617l-5.469-9.453a10.16 10.16 0 0 0-10.111-5.016 10.159 10.159 0 0 0-3.756 1.266 10.578 10.578 0 0 0-3.281 3.008 9.849 9.849 0 0 0-4.336-2.383 10.001 10.001 0 0 0-7.695 1.016 10.155 10.155 0 0 0-4.727 6.171 9.757 9.757 0 0 0-.195 4.375c-.97.238-1.903.606-2.774 1.094a10.195 10.195 0 0 0-3.711 13.907l.782 1.328a9.498 9.498 0 0 0-3.79 1.289 10.153 10.153 0 0 0-3.71 13.867l14.453 25.039a31.288 31.288 0 0 0 42.695 11.445A30.86 30.86 0 0 0 577.141 77.3a31.213 31.213 0 0 0 5.508-38.242l-6.641-11.484Zm-33.086-8.867a3.904 3.904 0 0 1 5.352 1.445l8.32 14.414a10.55 10.55 0 0 0-2.149.938 10.303 10.303 0 0 0-3.007 2.617l-5.469-9.453a10.001 10.001 0 0 0-4.063-3.907l-.429-.703a3.948 3.948 0 0 1 1.445-5.351Zm-15.312 1.601a3.944 3.944 0 0 1 5.351 1.446l1.289 2.265c-.746.24-1.466.553-2.148.938a9.769 9.769 0 0 0-3.282 3.008 9.904 9.904 0 0 0-2.226-1.563l-.391-.742a3.903 3.903 0 0 1-.408-2.968 3.918 3.918 0 0 1 1.815-2.384Zm44.414 52.54a24.74 24.74 0 0 1-11.641 15.156 25.002 25.002 0 0 1-34.141-9.141l-14.453-25.04a3.904 3.904 0 0 1 .269-4.333 3.903 3.903 0 0 1 4.106-1.408 4.023 4.023 0 0 1 2.383 1.836l9.375 16.25a3.2 3.2 0 0 0 2.695 1.562 3.126 3.126 0 0 0 2.696-4.687l-14.844-25.703a3.92 3.92 0 1 1 6.797-3.907l14.844 25.703a3.126 3.126 0 1 0 5.39-3.125l-11.719-20.312a3.944 3.944 0 0 1 1.446-5.352 3.906 3.906 0 0 1 5.312 1.446l16.406 28.437a3.207 3.207 0 0 0 2.735 1.563 3.358 3.358 0 0 0 1.562-.43 3.125 3.125 0 0 0 1.133-4.258l-6.25-10.86a3.866 3.866 0 0 1-.39-2.929 3.734 3.734 0 0 1 1.835-2.383 3.678 3.678 0 0 1 2.93-.39 3.828 3.828 0 0 1 2.383 1.797l6.641 11.523a24.816 24.816 0 0 1 2.5 18.984Zm7.862-13.77c-.186 1.049-1.653 1.054-1.924.024-.733-2.79-1.804-6.283-3.009-8.364l-6.64-11.523a10.277 10.277 0 0 0-4.063-3.907l-.43-.703a3.946 3.946 0 0 1-.39-2.969 4.024 4.024 0 0 1 1.836-2.382 3.865 3.865 0 0 1 5.312 1.445l6.641 11.484a25.044 25.044 0 0 1 3.245 10.41c.145 1.754-.189 4.304-.578 6.485Zm-14.425-48.692 1.602-6.054a3.117 3.117 0 0 1 1.453-1.906 3.128 3.128 0 0 1 4.281 1.132 3.127 3.127 0 0 1 .32 2.375l-1.64 6.055a3.087 3.087 0 0 1-3.008 2.305l-.82-.079a3.124 3.124 0 0 1-2.188-3.828Zm10.274 3.594 3.593-5.117a3.165 3.165 0 0 1 4.375-.781 3.117 3.117 0 0 1 1.283 2.033 3.12 3.12 0 0 1-.541 2.342l-3.593 5.117a3.085 3.085 0 0 1-4.336.742 3.122 3.122 0 0 1-.781-4.336Zm17.148 8.438-5.117 3.593a3.36 3.36 0 0 1-1.797.547 3.125 3.125 0 0 1-1.797-5.664l5.117-3.594a3.129 3.129 0 0 1 3.487-.102c.349.22.651.507.888.845a3.165 3.165 0 0 1-.781 4.375Z"/>
    </mask>
    <path fill="#F29E03" stroke="#fff" stroke-width="4" d="M576.008 27.573a10.156 10.156 0 0 0-6.172-4.727 10.001 10.001 0 0 0-7.695 1.016 9.722 9.722 0 0 0-3.008 2.617l-5.469-9.453a10.16 10.16 0 0 0-10.111-5.016 10.159 10.159 0 0 0-3.756 1.266 10.578 10.578 0 0 0-3.281 3.008 9.849 9.849 0 0 0-4.336-2.383 10.001 10.001 0 0 0-7.695 1.016 10.155 10.155 0 0 0-4.727 6.171 9.757 9.757 0 0 0-.195 4.375c-.97.238-1.903.606-2.774 1.094a10.195 10.195 0 0 0-3.711 13.907l.782 1.328a9.498 9.498 0 0 0-3.79 1.289 10.153 10.153 0 0 0-3.71 13.867l14.453 25.039a31.288 31.288 0 0 0 42.695 11.445A30.86 30.86 0 0 0 577.141 77.3a31.213 31.213 0 0 0 5.508-38.242l-6.641-11.484Zm-33.086-8.867a3.904 3.904 0 0 1 5.352 1.445l8.32 14.414a10.55 10.55 0 0 0-2.149.938 10.303 10.303 0 0 0-3.007 2.617l-5.469-9.453a10.001 10.001 0 0 0-4.063-3.907l-.429-.703a3.948 3.948 0 0 1 1.445-5.351Zm-15.312 1.601a3.944 3.944 0 0 1 5.351 1.446l1.289 2.265c-.746.24-1.466.553-2.148.938a9.769 9.769 0 0 0-3.282 3.008 9.904 9.904 0 0 0-2.226-1.563l-.391-.742a3.903 3.903 0 0 1-.408-2.968 3.918 3.918 0 0 1 1.815-2.384Zm44.414 52.54a24.74 24.74 0 0 1-11.641 15.156 25.002 25.002 0 0 1-34.141-9.141l-14.453-25.04a3.904 3.904 0 0 1 .269-4.333 3.903 3.903 0 0 1 4.106-1.408 4.023 4.023 0 0 1 2.383 1.836l9.375 16.25a3.2 3.2 0 0 0 2.695 1.562 3.126 3.126 0 0 0 2.696-4.687l-14.844-25.703a3.92 3.92 0 1 1 6.797-3.907l14.844 25.703a3.126 3.126 0 1 0 5.39-3.125l-11.719-20.312a3.944 3.944 0 0 1 1.446-5.352 3.906 3.906 0 0 1 5.312 1.446l16.406 28.437a3.207 3.207 0 0 0 2.735 1.563 3.358 3.358 0 0 0 1.562-.43 3.125 3.125 0 0 0 1.133-4.258l-6.25-10.86a3.866 3.866 0 0 1-.39-2.929 3.734 3.734 0 0 1 1.835-2.383 3.678 3.678 0 0 1 2.93-.39 3.828 3.828 0 0 1 2.383 1.797l6.641 11.523a24.816 24.816 0 0 1 2.5 18.984Zm7.862-13.77c-.186 1.049-1.653 1.054-1.924.024-.733-2.79-1.804-6.283-3.009-8.364l-6.64-11.523a10.277 10.277 0 0 0-4.063-3.907l-.43-.703a3.946 3.946 0 0 1-.39-2.969 4.024 4.024 0 0 1 1.836-2.382 3.865 3.865 0 0 1 5.312 1.445l6.641 11.484a25.044 25.044 0 0 1 3.245 10.41c.145 1.754-.189 4.304-.578 6.485Zm-14.425-48.692 1.602-6.054a3.117 3.117 0 0 1 1.453-1.906 3.128 3.128 0 0 1 4.281 1.132 3.127 3.127 0 0 1 .32 2.375l-1.64 6.055a3.087 3.087 0 0 1-3.008 2.305l-.82-.079a3.124 3.124 0 0 1-2.188-3.828Zm10.274 3.594 3.593-5.117a3.165 3.165 0 0 1 4.375-.781 3.117 3.117 0 0 1 1.283 2.033 3.12 3.12 0 0 1-.541 2.342l-3.593 5.117a3.085 3.085 0 0 1-4.336.742 3.122 3.122 0 0 1-.781-4.336Zm17.148 8.438-5.117 3.593a3.36 3.36 0 0 1-1.797.547 3.125 3.125 0 0 1-1.797-5.664l5.117-3.594a3.129 3.129 0 0 1 3.487-.102c.349.22.651.507.888.845a3.165 3.165 0 0 1-.781 4.375Z" mask="url(#c)"/>
    <path fill="#fff" d="M650 96c3.031 0 5.938-1.198 8.081-3.332a11.349 11.349 0 0 0 3.348-8.042h-22.858c0 3.016 1.205 5.91 3.348 8.042A11.455 11.455 0 0 0 650 96Zm35.543-22.749c1.274 2.542 2.748 4.556 4.457 5.687h-80c1.709-1.131 3.183-3.145 4.457-5.687 5.143-10.237 6.972-29.118 6.972-34.123 0-13.763 9.828-25.251 22.885-27.873a5.665 5.665 0 0 1 1.448-4.383A5.717 5.717 0 0 1 650 5a5.736 5.736 0 0 1 4.238 1.872 5.683 5.683 0 0 1 1.448 4.383 28.605 28.605 0 0 1 16.435 9.876 28.357 28.357 0 0 1 6.45 17.997c0 5.005 1.829 23.886 6.972 34.123Z"/>
    <path fill="#fff" d="M650 96c3.031 0 5.938-1.198 8.081-3.332a11.349 11.349 0 0 0 3.348-8.042h-22.858c0 3.016 1.205 5.91 3.348 8.042A11.455 11.455 0 0 0 650 96Zm35.543-22.749c1.274 2.542 2.748 4.556 4.457 5.687h-80c1.709-1.131 3.183-3.145 4.457-5.687 5.143-10.237 6.972-29.118 6.972-34.123 0-13.763 9.828-25.251 22.885-27.873a5.665 5.665 0 0 1 1.448-4.383A5.717 5.717 0 0 1 650 5a5.736 5.736 0 0 1 4.238 1.872 5.683 5.683 0 0 1 1.448 4.383 28.605 28.605 0 0 1 16.435 9.876 28.357 28.357 0 0 1 6.45 17.997c0 5.005 1.829 23.886 6.972 34.123Z"/>
    <path stroke="#00717B" stroke-width="2" d="M650 96c3.031 0 5.938-1.198 8.081-3.332a11.349 11.349 0 0 0 3.348-8.042h-22.858c0 3.016 1.205 5.91 3.348 8.042A11.455 11.455 0 0 0 650 96Zm35.543-22.749c1.274 2.542 2.748 4.556 4.457 5.687h-80c1.709-1.131 3.183-3.145 4.457-5.687 5.143-10.237 6.972-29.118 6.972-34.123 0-13.763 9.828-25.251 22.885-27.873a5.665 5.665 0 0 1 1.448-4.383A5.717 5.717 0 0 1 650 5a5.736 5.736 0 0 1 4.238 1.872 5.683 5.683 0 0 1 1.448 4.383 28.605 28.605 0 0 1 16.435 9.876 28.357 28.357 0 0 1 6.45 17.997c0 5.005 1.829 23.886 6.972 34.123Z"/>
    <path fill="#fff" d="M650 196c3.031 0 5.938-1.198 8.081-3.331a11.352 11.352 0 0 0 3.348-8.043h-22.858c0 3.016 1.205 5.909 3.348 8.043A11.455 11.455 0 0 0 650 196Zm35.543-22.749c1.274 2.542 2.748 4.556 4.457 5.687h-80c1.709-1.131 3.183-3.145 4.457-5.687 5.143-10.237 6.972-29.118 6.972-34.123 0-13.763 9.828-25.251 22.885-27.873a5.68 5.68 0 0 1 3.368-5.766 5.743 5.743 0 0 1 4.636 0 5.703 5.703 0 0 1 3.11 3.422c.25.755.337 1.553.258 2.344a28.61 28.61 0 0 1 16.435 9.876 28.356 28.356 0 0 1 6.45 17.997c0 5.005 1.829 23.886 6.972 34.123Z"/>
    <path fill="#fff" d="M650 196c3.031 0 5.938-1.198 8.081-3.331a11.352 11.352 0 0 0 3.348-8.043h-22.858c0 3.016 1.205 5.909 3.348 8.043A11.455 11.455 0 0 0 650 196Zm35.543-22.749c1.274 2.542 2.748 4.556 4.457 5.687h-80c1.709-1.131 3.183-3.145 4.457-5.687 5.143-10.237 6.972-29.118 6.972-34.123 0-13.763 9.828-25.251 22.885-27.873a5.68 5.68 0 0 1 3.368-5.766 5.743 5.743 0 0 1 4.636 0 5.703 5.703 0 0 1 3.11 3.422c.25.755.337 1.553.258 2.344a28.61 28.61 0 0 1 16.435 9.876 28.356 28.356 0 0 1 6.45 17.997c0 5.005 1.829 23.886 6.972 34.123Z"/>
    <path stroke="#00717B" stroke-width="2" d="M650 196c3.031 0 5.938-1.198 8.081-3.331a11.352 11.352 0 0 0 3.348-8.043h-22.858c0 3.016 1.205 5.909 3.348 8.043A11.455 11.455 0 0 0 650 196Zm35.543-22.749c1.274 2.542 2.748 4.556 4.457 5.687h-80c1.709-1.131 3.183-3.145 4.457-5.687 5.143-10.237 6.972-29.118 6.972-34.123 0-13.763 9.828-25.251 22.885-27.873a5.68 5.68 0 0 1 3.368-5.766 5.743 5.743 0 0 1 4.636 0 5.703 5.703 0 0 1 3.11 3.422c.25.755.337 1.553.258 2.344a28.61 28.61 0 0 1 16.435 9.876 28.356 28.356 0 0 1 6.45 17.997c0 5.005 1.829 23.886 6.972 34.123Z"/>
    <rect width="3" height="101" x="683.711" y="113.293" fill="#00717B" stroke="#fff" rx="1.5" transform="rotate(45 683.711 113.293)"/>
    <path fill="#fff" d="M750 96c3.031 0 5.938-1.198 8.081-3.332a11.349 11.349 0 0 0 3.348-8.042h-22.858c0 3.016 1.205 5.91 3.348 8.042A11.455 11.455 0 0 0 750 96Zm35.543-22.749c1.274 2.542 2.748 4.556 4.457 5.687h-80c1.709-1.131 3.183-3.145 4.457-5.687 5.143-10.237 6.972-29.118 6.972-34.123 0-13.763 9.828-25.251 22.885-27.873a5.665 5.665 0 0 1 1.448-4.383A5.717 5.717 0 0 1 750 5a5.736 5.736 0 0 1 4.238 1.872 5.683 5.683 0 0 1 1.448 4.383 28.605 28.605 0 0 1 16.435 9.876 28.357 28.357 0 0 1 6.45 17.997c0 5.005 1.829 23.886 6.972 34.123Z"/>
    <path fill="#fff" d="M750 96c3.031 0 5.938-1.198 8.081-3.332a11.349 11.349 0 0 0 3.348-8.042h-22.858c0 3.016 1.205 5.91 3.348 8.042A11.455 11.455 0 0 0 750 96Zm35.543-22.749c1.274 2.542 2.748 4.556 4.457 5.687h-80c1.709-1.131 3.183-3.145 4.457-5.687 5.143-10.237 6.972-29.118 6.972-34.123 0-13.763 9.828-25.251 22.885-27.873a5.665 5.665 0 0 1 1.448-4.383A5.717 5.717 0 0 1 750 5a5.736 5.736 0 0 1 4.238 1.872 5.683 5.683 0 0 1 1.448 4.383 28.605 28.605 0 0 1 16.435 9.876 28.357 28.357 0 0 1 6.45 17.997c0 5.005 1.829 23.886 6.972 34.123Z"/>
    <path stroke="#F29E03" stroke-width="2" d="M750 96c3.031 0 5.938-1.198 8.081-3.332a11.349 11.349 0 0 0 3.348-8.042h-22.858c0 3.016 1.205 5.91 3.348 8.042A11.455 11.455 0 0 0 750 96Zm35.543-22.749c1.274 2.542 2.748 4.556 4.457 5.687h-80c1.709-1.131 3.183-3.145 4.457-5.687 5.143-10.237 6.972-29.118 6.972-34.123 0-13.763 9.828-25.251 22.885-27.873a5.665 5.665 0 0 1 1.448-4.383A5.717 5.717 0 0 1 750 5a5.736 5.736 0 0 1 4.238 1.872 5.683 5.683 0 0 1 1.448 4.383 28.605 28.605 0 0 1 16.435 9.876 28.357 28.357 0 0 1 6.45 17.997c0 5.005 1.829 23.886 6.972 34.123Z"/>
    <path fill="#fff" d="M750 196c3.031 0 5.938-1.198 8.081-3.331a11.352 11.352 0 0 0 3.348-8.043h-22.858c0 3.016 1.205 5.909 3.348 8.043A11.455 11.455 0 0 0 750 196Zm35.543-22.749c1.274 2.542 2.748 4.556 4.457 5.687h-80c1.709-1.131 3.183-3.145 4.457-5.687 5.143-10.237 6.972-29.118 6.972-34.123 0-13.763 9.828-25.251 22.885-27.873a5.68 5.68 0 0 1 3.368-5.766 5.743 5.743 0 0 1 4.636 0 5.703 5.703 0 0 1 3.11 3.422c.25.755.337 1.553.258 2.344a28.61 28.61 0 0 1 16.435 9.876 28.356 28.356 0 0 1 6.45 17.997c0 5.005 1.829 23.886 6.972 34.123Z"/>
    <path fill="#fff" d="M750 196c3.031 0 5.938-1.198 8.081-3.331a11.352 11.352 0 0 0 3.348-8.043h-22.858c0 3.016 1.205 5.909 3.348 8.043A11.455 11.455 0 0 0 750 196Zm35.543-22.749c1.274 2.542 2.748 4.556 4.457 5.687h-80c1.709-1.131 3.183-3.145 4.457-5.687 5.143-10.237 6.972-29.118 6.972-34.123 0-13.763 9.828-25.251 22.885-27.873a5.68 5.68 0 0 1 3.368-5.766 5.743 5.743 0 0 1 4.636 0 5.703 5.703 0 0 1 3.11 3.422c.25.755.337 1.553.258 2.344a28.61 28.61 0 0 1 16.435 9.876 28.356 28.356 0 0 1 6.45 17.997c0 5.005 1.829 23.886 6.972 34.123Z"/>
    <path stroke="#F29E03" stroke-width="2" d="M750 196c3.031 0 5.938-1.198 8.081-3.331a11.352 11.352 0 0 0 3.348-8.043h-22.858c0 3.016 1.205 5.909 3.348 8.043A11.455 11.455 0 0 0 750 196Zm35.543-22.749c1.274 2.542 2.748 4.556 4.457 5.687h-80c1.709-1.131 3.183-3.145 4.457-5.687 5.143-10.237 6.972-29.118 6.972-34.123 0-13.763 9.828-25.251 22.885-27.873a5.68 5.68 0 0 1 3.368-5.766 5.743 5.743 0 0 1 4.636 0 5.703 5.703 0 0 1 3.11 3.422c.25.755.337 1.553.258 2.344a28.61 28.61 0 0 1 16.435 9.876 28.356 28.356 0 0 1 6.45 17.997c0 5.005 1.829 23.886 6.972 34.123Z"/>
    <rect width="3" height="101" x="783.711" y="113.293" fill="#F29E03" stroke="#fff" rx="1.5" transform="rotate(45 783.711 113.293)"/>
    <path fill="#fff" d="M78 107.53c0-.663-.268-1.299-.746-1.768a2.57 2.57 0 0 0-1.8-.732H62.728c-6.41-.314-12.684 1.875-17.454 6.09-4.77 4.215-7.647 10.112-8.002 16.402v13.496H24.547a2.576 2.576 0 0 0-1.799.733 2.484 2.484 0 0 0-.747 1.767v12.994c0 .663.27 1.298.747 1.767a2.573 2.573 0 0 0 1.8.733h12.726V192.5c0 .663.269 1.298.746 1.767a2.573 2.573 0 0 0 1.8.733h15.27a2.57 2.57 0 0 0 1.798-.734 2.479 2.479 0 0 0 .746-1.766v-33.488h13.34a2.578 2.578 0 0 0 1.568-.505c.451-.334.777-.807.924-1.343l3.665-12.996a2.447 2.447 0 0 0-.429-2.168 2.532 2.532 0 0 0-.89-.722 2.585 2.585 0 0 0-1.124-.26H57.635v-13.496a4.967 4.967 0 0 1 1.66-3.215 5.142 5.142 0 0 1 3.432-1.283h12.727a2.57 2.57 0 0 0 1.8-.733 2.474 2.474 0 0 0 .746-1.767V107.53Z"/>
    <path fill="#00717B" d="M178 107.53c0-.663-.268-1.299-.746-1.768a2.568 2.568 0 0 0-1.8-.732h-12.727c-6.408-.314-12.683 1.875-17.453 6.09s-7.647 10.112-8.001 16.402v13.496h-12.727a2.575 2.575 0 0 0-1.799.733 2.483 2.483 0 0 0-.747 1.767v12.994c.001.663.269 1.298.746 1.767a2.575 2.575 0 0 0 1.8.733h12.727V192.5c0 .663.269 1.298.746 1.767a2.573 2.573 0 0 0 1.8.733h15.272a2.568 2.568 0 0 0 1.798-.734 2.48 2.48 0 0 0 .746-1.766v-33.488h13.34a2.577 2.577 0 0 0 1.568-.505 2.49 2.49 0 0 0 .924-1.343l3.666-12.996a2.466 2.466 0 0 0-.43-2.168 2.53 2.53 0 0 0-.89-.722 2.584 2.584 0 0 0-1.124-.26h-17.054v-13.496a4.965 4.965 0 0 1 1.661-3.215 5.14 5.14 0 0 1 3.431-1.283h12.727c.675 0 1.323-.264 1.8-.733a2.472 2.472 0 0 0 .746-1.767V107.53Z"/>
    <path fill="#fff" d="M215.672 126.663a10.844 10.844 0 0 0 9.131-4.769 10.843 10.843 0 0 0 1.021-10.25 10.832 10.832 0 1 0-10.152 15.019Zm21.067 8.213v60.12h18.668v-29.732c0-7.845 1.476-15.443 11.203-15.443 9.592 0 9.711 8.971 9.711 15.939V195h18.677v-32.967c0-16.197-3.488-28.644-22.416-28.644-9.087 0-15.181 4.988-17.672 9.709h-.252v-8.222h-17.919Zm-30.417 0h18.695v60.12h-18.695v-60.12ZM495 121.679a36.997 36.997 0 0 1-10.603 2.905 18.514 18.514 0 0 0 8.118-10.218 36.876 36.876 0 0 1-11.725 4.479 18.469 18.469 0 0 0-31.464 16.845 52.427 52.427 0 0 1-38.059-19.295 18.452 18.452 0 0 0-2.498 9.283 18.475 18.475 0 0 0 8.213 15.371 18.405 18.405 0 0 1-8.363-2.311v.238a18.471 18.471 0 0 0 14.812 18.106c-2.72.737-5.571.845-8.339.318a18.474 18.474 0 0 0 17.25 12.818 37.054 37.054 0 0 1-22.934 7.908c-1.473 0-2.945-.086-4.408-.258a52.224 52.224 0 0 0 28.301 8.296c33.969 0 52.539-28.134 52.539-52.535 0-.793-.02-1.593-.056-2.386a37.55 37.55 0 0 0 9.208-9.552l.008-.012Z"/>
    <path fill="#00717B" d="M595 121.679a36.997 36.997 0 0 1-10.603 2.905 18.514 18.514 0 0 0 8.118-10.218 36.876 36.876 0 0 1-11.725 4.479 18.469 18.469 0 0 0-31.464 16.845 52.427 52.427 0 0 1-38.059-19.295 18.452 18.452 0 0 0-2.498 9.283 18.475 18.475 0 0 0 8.213 15.371 18.405 18.405 0 0 1-8.363-2.311v.238a18.471 18.471 0 0 0 14.812 18.106c-2.72.737-5.571.845-8.339.318a18.474 18.474 0 0 0 17.25 12.818 37.054 37.054 0 0 1-22.934 7.908c-1.473 0-2.945-.086-4.408-.258a52.224 52.224 0 0 0 28.301 8.296c33.969 0 52.539-28.134 52.539-52.535 0-.793-.02-1.593-.056-2.386a37.55 37.55 0 0 0 9.208-9.552l.008-.012Zm-279.331 4.984a10.844 10.844 0 0 0 9.131-4.769 10.835 10.835 0 0 0 1.022-10.25 10.827 10.827 0 0 0-3.554-4.524 10.83 10.83 0 1 0-12.122 17.932 10.833 10.833 0 0 0 5.523 1.611Zm21.068 8.213v60.12h18.668v-29.732c0-7.845 1.476-15.443 11.202-15.443 9.592 0 9.711 8.971 9.711 15.939V195h18.677v-32.967c0-16.197-3.487-28.644-22.415-28.644-9.088 0-15.181 4.988-17.673 9.709h-.251v-8.222h-17.919Zm-30.418 0h18.695v60.12h-18.695v-60.12Z"/>
    <path fill="#333" d="M846.575 81.537a4.161 4.161 0 0 0 5.36 1.323 4.161 4.161 0 0 0 1.49-1.323l37.5-54.166a4.158 4.158 0 0 0-3.425-6.537h-75a4.177 4.177 0 0 0-4.151 4.423 4.17 4.17 0 0 0 .726 2.114l37.5 54.166Z"/>
    <path fill="#F29E03" d="M846.575 181.537a4.157 4.157 0 0 0 6.85 0l37.5-54.166a4.159 4.159 0 0 0 .269-4.307 4.161 4.161 0 0 0-3.694-2.23h-75a4.169 4.169 0 0 0-3.683 2.236 4.173 4.173 0 0 0 .258 4.301l37.5 54.166Z"/>
  </g>
  <defs>
    <clipPath id="a">
      <path fill="#fff" d="M0 0h900v200H0z"/>
    </clipPath>
  </defs>
</svg>
