<svg xmlns="http://www.w3.org/2000/svg" width="1000" height="400" fill="none" viewBox="0 0 1000 400">
  <g clip-path="url(#clip0_150_4)">
    <path fill="#00717B" stroke="#fff" stroke-width="2" d="M229.43 340.849l-.668-.669-8.575 8.575a19.75 19.75 0 000 27.933 19.751 19.751 0 0027.933 0h0l11.425-11.431a19.744 19.744 0 005.499-17.303 19.75 19.75 0 00-10.95-14.481l-.638-.305-.501.5-3.662 3.662-.001.001a7.29 7.29 0 00-1.116 1.442l-.656 1.113 1.241.356a11.498 11.498 0 017.916 14.083 11.495 11.495 0 01-2.965 5.105l-.001.001-11.418 11.424a11.508 11.508 0 01-19.644-8.136c0-3.052 1.212-5.979 3.37-8.136l.001-.001 4.955-4.949.409-.408-.149-.558a24.089 24.089 0 01-.789-7.343l.023-.022v-.421l-1.039-.032zm11.025-12.356h0a19.744 19.744 0 00-5.499 17.303 19.75 19.75 0 0010.95 14.481l.639.305.5-.5 4.844-4.85 1.222-1.225-1.671-.448a11.502 11.502 0 01-5.152-19.239l.001-.001 11.418-11.424v-.001a11.506 11.506 0 0119.644 8.137c0 3.052-1.212 5.979-3.37 8.136l-.001.001-4.955 4.949-.409.408.149.558c.672 2.52.93 5.131.768 7.723l-.165 2.64 1.87-1.87 8.575-8.575a19.752 19.752 0 00-27.933-27.933l-11.425 11.425z"/>
    <path fill="#fff" stroke="#fff" stroke-width="2" d="M660.929 384.626v-1h-24.858v1c0 3.283 1.311 6.431 3.642 8.751A12.459 12.459 0 00648.5 397c3.295 0 6.455-1.303 8.787-3.623a12.347 12.347 0 003.642-8.751zm24.008-11.823l-.001-.001c-2.501-4.979-4.225-12.135-5.321-18.738-1.094-6.59-1.544-12.504-1.544-14.936v0a29.36 29.36 0 00-6.677-18.632 29.6 29.6 0 00-16.184-10.041 6.655 6.655 0 00-1.732-4.256A6.723 6.723 0 00648.5 304a6.723 6.723 0 00-4.978 2.199 6.703 6.703 0 00-1.4 2.398 6.654 6.654 0 00-.332 1.856c-13.098 3.024-22.861 14.716-22.861 28.675 0 2.432-.45 8.346-1.544 14.936-1.096 6.603-2.82 13.759-5.321 18.738l-.001.001c-1.244 2.482-2.621 4.312-4.115 5.302l-2.769 1.833h86.642l-2.769-1.833c-1.494-.99-2.871-2.82-4.115-5.302z"/>
    <path fill="#00717B" d="M632.425 379.047h55.368c-1.683-1.125-3.136-3.125-4.391-5.651-5.066-10.172-6.867-28.933-6.867-33.906 0-1.492-.113-2.955-.338-4.385l-5.28 5.301c.112 4 .884 12.172 2.572 20.23.907 4.334 2.122 8.85 3.732 12.76h-39.167l-5.629 5.651zm31.416-56.001a22.403 22.403 0 00-10.966-5.708l-4.486-.921-4.486.91a22.513 22.513 0 00-12.951 7.855 22.665 22.665 0 00-5.079 14.308c0 3.549-.755 12.415-2.584 21.146a97.869 97.869 0 01-.935 4.058l-4.652 4.67-4.652 4.671c5.054-10.172 7.194-29.572 7.194-34.545 0-13.675 9.682-25.09 22.544-27.695a5.678 5.678 0 011.427-4.356 5.627 5.627 0 014.174-1.86 5.617 5.617 0 014.175 1.86 5.676 5.676 0 011.426 4.356 28.009 28.009 0 0113.831 7.255l-3.98 3.996zm-4.194 61.652c0 2.997-1.186 5.872-3.297 7.992a11.238 11.238 0 01-7.961 3.31 11.24 11.24 0 01-7.961-3.31 11.328 11.328 0 01-3.297-7.992h22.516zm-52.773 3.532a3.005 3.005 0 000 4.238 2.98 2.98 0 004.222 0l83.03-83.352a3.003 3.003 0 00-.969-4.888 2.984 2.984 0 00-2.285 0 2.978 2.978 0 00-.968.65l-83.03 83.352z"/>
    <path fill="#fff" stroke="#fff" stroke-width="2" d="M760.929 384.626v-1h-24.858v1c0 3.283 1.311 6.431 3.642 8.751A12.459 12.459 0 00748.5 397c3.295 0 6.455-1.303 8.787-3.623a12.347 12.347 0 003.642-8.751zm24.008-11.823l-.001-.001c-2.501-4.979-4.225-12.135-5.321-18.738-1.094-6.59-1.544-12.504-1.544-14.936v0a29.36 29.36 0 00-6.677-18.632 29.6 29.6 0 00-16.184-10.041 6.655 6.655 0 00-1.732-4.256A6.723 6.723 0 00748.5 304a6.723 6.723 0 00-4.978 2.199 6.703 6.703 0 00-1.4 2.398 6.654 6.654 0 00-.332 1.856c-13.098 3.024-22.861 14.716-22.861 28.675 0 2.432-.45 8.346-1.544 14.936-1.096 6.603-2.82 13.759-5.321 18.738l-.001.001c-1.244 2.482-2.621 4.312-4.115 5.302l-2.769 1.833h86.642l-2.769-1.833c-1.494-.99-2.871-2.82-4.115-5.302z"/>
    <path fill="#F29E03" d="M732.425 379.047h55.368c-1.683-1.125-3.136-3.125-4.391-5.651-5.066-10.172-6.867-28.933-6.867-33.906 0-1.492-.113-2.955-.338-4.385l-5.28 5.301c.112 4 .884 12.172 2.572 20.23.907 4.334 2.122 8.85 3.732 12.76h-39.167l-5.629 5.651zm31.416-56.001a22.403 22.403 0 00-10.966-5.708l-4.486-.921-4.486.91a22.513 22.513 0 00-12.951 7.855 22.665 22.665 0 00-5.079 14.308c0 3.549-.755 12.415-2.584 21.146a97.869 97.869 0 01-.935 4.058l-9.304 9.341c5.054-10.172 7.194-29.572 7.194-34.545 0-13.675 9.682-25.09 22.544-27.695a5.678 5.678 0 011.427-4.356 5.627 5.627 0 014.174-1.86 5.617 5.617 0 014.175 1.86 5.676 5.676 0 011.426 4.356 28.009 28.009 0 0113.831 7.255l-3.98 3.996zm-4.194 61.652c0 2.997-1.186 5.872-3.297 7.992a11.238 11.238 0 01-7.961 3.31 11.24 11.24 0 01-7.961-3.31 11.328 11.328 0 01-3.297-7.992h22.516zm-52.773 3.532a3.005 3.005 0 000 4.238 2.98 2.98 0 004.222 0l83.03-83.352a3.003 3.003 0 00-.969-4.888 2.984 2.984 0 00-2.285 0 2.978 2.978 0 00-.968.65l-83.03 83.352z"/>
    <path fill="#fff" stroke="#fff" stroke-width="2" d="M462.429 384.626v-1h-24.858v1c0 3.283 1.311 6.431 3.642 8.751A12.459 12.459 0 00450 397c3.295 0 6.455-1.303 8.787-3.623a12.347 12.347 0 003.642-8.751zm24.008-11.823l-.001-.001c-2.501-4.979-4.225-12.135-5.321-18.738-1.094-6.59-1.544-12.504-1.544-14.936v0a29.36 29.36 0 00-6.677-18.632 29.6 29.6 0 00-16.184-10.041 6.655 6.655 0 00-1.732-4.256A6.723 6.723 0 00450 304a6.723 6.723 0 00-4.978 2.199 6.703 6.703 0 00-1.4 2.398 6.654 6.654 0 00-.332 1.856c-13.098 3.024-22.861 14.716-22.861 28.675 0 2.432-.45 8.346-1.544 14.936-1.096 6.603-2.82 13.759-5.321 18.738l-.001.001c-1.244 2.482-2.621 4.312-4.115 5.302l-2.769 1.833h86.642l-2.769-1.833c-1.494-.99-2.871-2.82-4.115-5.302z"/>
    <path fill="#00717B" d="M450 396c3.031 0 5.938-1.198 8.081-3.331a11.352 11.352 0 003.348-8.043h-22.858c0 3.016 1.205 5.909 3.348 8.043A11.455 11.455 0 00450 396zm0-80.087l-4.554.916a22.881 22.881 0 00-13.145 7.903 22.69 22.69 0 00-5.158 14.396c0 3.572-.766 12.495-2.623 21.282-.914 4.362-2.149 8.906-3.789 12.841h58.538c-1.64-3.935-2.869-8.474-3.789-12.841-1.857-8.787-2.623-17.71-2.623-21.282a22.692 22.692 0 00-5.16-14.393 22.892 22.892 0 00-13.143-7.901l-4.554-.927v.006zm35.543 57.338c1.274 2.542 2.748 4.556 4.457 5.687h-80c1.709-1.131 3.183-3.145 4.457-5.687 5.143-10.237 6.972-29.118 6.972-34.123 0-13.763 9.828-25.251 22.885-27.873a5.68 5.68 0 013.368-5.766 5.743 5.743 0 014.636 0 5.703 5.703 0 013.11 3.422c.25.755.337 1.553.258 2.344a28.61 28.61 0 0116.435 9.876 28.356 28.356 0 016.45 17.997c0 5.005 1.829 23.886 6.972 34.123z"/>
    <path fill="#fff" stroke="#fff" stroke-width="2" d="M562.429 384.626v-1h-24.858v1c0 3.283 1.311 6.431 3.642 8.751A12.459 12.459 0 00550 397c3.295 0 6.455-1.303 8.787-3.623a12.347 12.347 0 003.642-8.751zm24.008-11.823l-.001-.001c-2.501-4.979-4.225-12.135-5.321-18.738-1.094-6.59-1.544-12.504-1.544-14.936v0a29.36 29.36 0 00-6.677-18.632 29.6 29.6 0 00-16.184-10.041 6.655 6.655 0 00-1.732-4.256A6.723 6.723 0 00550 304a6.723 6.723 0 00-4.978 2.199 6.703 6.703 0 00-1.4 2.398 6.654 6.654 0 00-.332 1.856c-13.098 3.024-22.861 14.716-22.861 28.675 0 2.432-.45 8.346-1.544 14.936-1.096 6.603-2.82 13.759-5.321 18.738l-.001.001c-1.244 2.482-2.621 4.312-4.115 5.302l-2.769 1.833h86.642l-2.769-1.833c-1.494-.99-2.871-2.82-4.115-5.302z"/>
    <path fill="#F29E03" d="M550 396c3.031 0 5.938-1.198 8.081-3.331a11.352 11.352 0 003.348-8.043h-22.858c0 3.016 1.205 5.909 3.348 8.043A11.455 11.455 0 00550 396zm0-80.087l-4.554.916a22.881 22.881 0 00-13.145 7.903 22.69 22.69 0 00-5.158 14.396c0 3.572-.766 12.495-2.623 21.282-.914 4.362-2.149 8.906-3.789 12.841h58.538c-1.64-3.935-2.869-8.474-3.789-12.841-1.857-8.787-2.623-17.71-2.623-21.282a22.692 22.692 0 00-5.16-14.393 22.892 22.892 0 00-13.143-7.901l-4.554-.927v.006zm35.543 57.338c1.274 2.542 2.748 4.556 4.457 5.687h-80c1.709-1.131 3.183-3.145 4.457-5.687 5.143-10.237 6.972-29.118 6.972-34.123 0-13.763 9.828-25.251 22.885-27.873a5.68 5.68 0 013.368-5.766 5.743 5.743 0 014.636 0 5.703 5.703 0 013.11 3.422c.25.755.337 1.553.258 2.344a28.61 28.61 0 0116.435 9.876 28.356 28.356 0 016.45 17.997c0 5.005 1.829 23.886 6.972 34.123z"/>
    <path fill="#F29E03" stroke="#fff" stroke-width="2" d="M329.43 340.849l-.668-.669-8.575 8.575a19.754 19.754 0 000 27.933 19.751 19.751 0 0027.933 0h0l11.425-11.431a19.744 19.744 0 005.499-17.303 19.75 19.75 0 00-10.95-14.481l-.638-.305-.501.5-3.662 3.662-.001.001a7.29 7.29 0 00-1.116 1.442l-.656 1.113 1.241.356a11.498 11.498 0 017.916 14.083 11.495 11.495 0 01-2.965 5.105l-.001.001-11.418 11.424a11.508 11.508 0 01-19.644-8.136c0-3.052 1.212-5.979 3.37-8.136l.001-.001 4.955-4.949.409-.408-.149-.558a24.089 24.089 0 01-.789-7.343l.023-.022v-.421l-1.039-.032zm11.025-12.356h0a19.744 19.744 0 00-5.499 17.303 19.75 19.75 0 0010.95 14.481l.639.305.5-.5 4.844-4.85 1.222-1.225-1.671-.448a11.502 11.502 0 01-5.152-19.239l.001-.001 11.418-11.424v-.001a11.506 11.506 0 0119.644 8.137c0 3.052-1.212 5.979-3.37 8.136l-.001.001-4.955 4.949-.409.408.149.558c.672 2.52.93 5.131.768 7.723l-.165 2.64 1.87-1.87 8.575-8.575a19.748 19.748 0 000-27.933 19.751 19.751 0 00-27.933 0l-11.425 11.425zM146 315v-1h-23c-7.72 0-14 6.18-14 13.83v33.55c0 7.65 6.28 13.83 14 13.83h2V385.071a5.9 5.9 0 001.198 3.554l.003.003a6.046 6.046 0 008.387 1.192h.001l19.79-14.61H177c7.72 0 14-6.175 14-13.83V348.526l-1.2.244c-.743.152-1.512.23-2.3.23H184v12.38c0 3.702-3.062 6.83-7 6.83h-24.924l-.265.196L132 383.032V368.21h-9c-3.938 0-7-3.128-7-6.83v-33.55c0-3.702 3.062-6.83 7-6.83h23v-6zm11.5-11a8.5 8.5 0 00-8.5 8.5v25a8.5 8.5 0 008.5 8.5h30a8.5 8.5 0 008.5-8.5v-25a8.5 8.5 0 00-8.5-8.5h-30zm5 27h20a1.503 1.503 0 011.5 1.5 1.503 1.503 0 01-1.5 1.5h-20a1.503 1.503 0 01-1.5-1.5 1.503 1.503 0 011.5-1.5zm-1.5-13.5a1.503 1.503 0 011.5-1.5h20a1.503 1.503 0 011.5 1.5 1.503 1.503 0 01-1.5 1.5h-20a1.503 1.503 0 01-1.5-1.5z"/>
    <path fill="#00717B" stroke="#fff" stroke-width="2" d="M46 315v-1H23c-7.72 0-14 6.18-14 13.83v33.55c0 7.65 6.28 13.83 14 13.83h2V385.071a5.892 5.892 0 001.198 3.554l.003.003a6.046 6.046 0 008.387 1.192h0l19.791-14.61H77c7.72 0 14-6.175 14-13.83V348.526l-1.2.244c-.743.152-1.512.23-2.3.23H84v12.38c0 3.702-3.062 6.83-7 6.83H52.075l-.264.196L32 383.032V368.21h-9c-3.938 0-7-3.128-7-6.83v-33.55c0-3.702 3.062-6.83 7-6.83h23v-6zm11.5-11a8.5 8.5 0 00-8.5 8.5v25a8.5 8.5 0 008.5 8.5h30a8.5 8.5 0 008.5-8.5v-25a8.5 8.5 0 00-8.5-8.5h-30zm5 27h20a1.501 1.501 0 010 3h-20a1.501 1.501 0 010-3zM61 317.5a1.502 1.502 0 011.5-1.5h20a1.501 1.501 0 010 3h-20a1.501 1.501 0 01-1.5-1.5z"/>
    <mask id="a" width="90" height="96" x="303.773" y="201.327" fill="#000" maskUnits="userSpaceOnUse">
      <path fill="#fff" d="M303.773 201.327h90v96h-90z"/>
      <path d="M374.336 227.227a9.41 9.41 0 00-5.703-4.375 9.214 9.214 0 00-7.11.937 9.375 9.375 0 00-3.437 3.438l-6.094-10.547a9.359 9.359 0 00-5.694-4.375 9.373 9.373 0 00-7.118.937 9.142 9.142 0 00-3.516 3.594 9.37 9.37 0 00-9.206-3.026 9.377 9.377 0 00-6.966 6.737 9.11 9.11 0 000 4.805 8.902 8.902 0 00-3.32 1.171 9.389 9.389 0 00-4.375 5.694 9.388 9.388 0 00.937 7.119l1.407 2.422a9.254 9.254 0 00-4.688 1.25 9.414 9.414 0 00-3.437 12.812l14.453 25.039a30.503 30.503 0 0028.999 15.085 30.513 30.513 0 0026.001-19.811 30.666 30.666 0 005.508-37.422l-6.641-11.484zm-9.141-17.383l1.641-6.055a2.347 2.347 0 012.782-1.382 2.344 2.344 0 011.71 2.593l-1.601 6.055a2.304 2.304 0 01-2.266 1.718 1.512 1.512 0 01-.586-.078 2.345 2.345 0 01-1.68-2.851zm10.196 3.828l3.554-5.117a2.359 2.359 0 013.282-.586 2.359 2.359 0 01.586 3.281l-3.594 5.117a2.314 2.314 0 01-1.914 1.016 2.57 2.57 0 01-1.367-.43 2.379 2.379 0 01-.547-3.281zm16.054 7.383l-5.117 3.554a2.258 2.258 0 01-1.367.43 2.34 2.34 0 01-2.196-3.096c.159-.469.463-.876.868-1.162l5.117-3.594a2.359 2.359 0 013.668 2.348 2.359 2.359 0 01-.973 1.52z"/>
      <path d="M374.336 227.227a9.41 9.41 0 00-5.703-4.375 9.214 9.214 0 00-7.11.937 9.375 9.375 0 00-3.437 3.438l-6.094-10.547a9.359 9.359 0 00-5.694-4.375 9.373 9.373 0 00-7.118.937 9.142 9.142 0 00-3.516 3.594 9.37 9.37 0 00-9.206-3.026 9.377 9.377 0 00-6.966 6.737 9.11 9.11 0 000 4.805 8.902 8.902 0 00-3.32 1.171 9.389 9.389 0 00-4.375 5.694 9.388 9.388 0 00.937 7.119l1.407 2.422a9.254 9.254 0 00-4.688 1.25 9.414 9.414 0 00-3.437 12.812l14.453 25.039a30.503 30.503 0 0028.999 15.085 30.513 30.513 0 0026.001-19.811 30.666 30.666 0 005.508-37.422l-6.641-11.484zm-35-7.11a4.61 4.61 0 012.187-2.812 4.709 4.709 0 011.734-.589 4.702 4.702 0 014.673 2.307l8.867 15.313a9.487 9.487 0 00-2.969 1.133 8.818 8.818 0 00-3.437 3.437l-6.094-10.586a9.731 9.731 0 00-3.945-3.711l-.547-.898a4.802 4.802 0 01-.469-3.594zm-15.313 1.641a4.693 4.693 0 013.918-3.444 4.692 4.692 0 014.676 2.311l1.836 3.164a9.375 9.375 0 00-6.523 4.727 8.95 8.95 0 00-2.891-2.266l-.547-.938a4.728 4.728 0 01-.469-3.554zm35.743 66.172a25.823 25.823 0 01-35.235-9.414l-14.453-25.039a4.687 4.687 0 011.719-6.407 4.694 4.694 0 016.406 1.719l9.375 16.25a2.342 2.342 0 002.031 1.172 2.492 2.492 0 001.172-.313 2.338 2.338 0 00.86-3.203l-14.844-25.703a4.69 4.69 0 118.125-4.687l14.844 25.703a2.338 2.338 0 001.423 1.093 2.344 2.344 0 002.639-3.437l-11.719-20.312a4.726 4.726 0 01.336-5.203c.376-.49.846-.899 1.383-1.204a4.729 4.729 0 016.406 1.719l16.407 28.438a2.346 2.346 0 002.031 1.171c.41-.011.811-.118 1.172-.312a2.383 2.383 0 00.859-3.203l-6.25-10.86a4.65 4.65 0 011.719-6.367 4.604 4.604 0 013.536-.498 4.619 4.619 0 012.831 2.178l6.641 11.523a25.749 25.749 0 01-1.855 28.568 25.74 25.74 0 01-7.559 6.628zm17.578-21.914a30.001 30.001 0 00-4.102-15.625l-6.64-11.524a9.3 9.3 0 00-3.907-3.672l-.547-.937a4.538 4.538 0 01-.468-3.555 4.61 4.61 0 012.187-2.851 4.724 4.724 0 016.406 1.718l6.641 11.485a26.02 26.02 0 01.43 24.961zm-12.149-56.172l1.641-6.055a2.347 2.347 0 012.782-1.382 2.344 2.344 0 011.71 2.593l-1.601 6.055a2.304 2.304 0 01-2.266 1.718 1.512 1.512 0 01-.586-.078 2.345 2.345 0 01-1.68-2.851zm10.196 3.828l3.554-5.117a2.359 2.359 0 013.282-.586 2.359 2.359 0 01.586 3.281l-3.594 5.117a2.314 2.314 0 01-1.914 1.016 2.57 2.57 0 01-1.367-.43 2.379 2.379 0 01-.547-3.281zm16.054 7.383l-5.117 3.554a2.258 2.258 0 01-1.367.43 2.34 2.34 0 01-2.196-3.096c.159-.469.463-.876.868-1.162l5.117-3.594a2.359 2.359 0 013.668 2.348 2.359 2.359 0 01-.973 1.52z"/>
    </mask>
    <path fill="#fff" d="M374.336 227.227a9.41 9.41 0 00-5.703-4.375 9.214 9.214 0 00-7.11.937 9.375 9.375 0 00-3.437 3.438l-6.094-10.547a9.359 9.359 0 00-5.694-4.375 9.373 9.373 0 00-7.118.937 9.142 9.142 0 00-3.516 3.594 9.37 9.37 0 00-9.206-3.026 9.377 9.377 0 00-6.966 6.737 9.11 9.11 0 000 4.805 8.902 8.902 0 00-3.32 1.171 9.389 9.389 0 00-4.375 5.694 9.388 9.388 0 00.937 7.119l1.407 2.422a9.254 9.254 0 00-4.688 1.25 9.414 9.414 0 00-3.437 12.812l14.453 25.039a30.503 30.503 0 0028.999 15.085 30.513 30.513 0 0026.001-19.811 30.666 30.666 0 005.508-37.422l-6.641-11.484zm-9.141-17.383l1.641-6.055a2.347 2.347 0 012.782-1.382 2.344 2.344 0 011.71 2.593l-1.601 6.055a2.304 2.304 0 01-2.266 1.718 1.512 1.512 0 01-.586-.078 2.345 2.345 0 01-1.68-2.851zm10.196 3.828l3.554-5.117a2.359 2.359 0 013.282-.586 2.359 2.359 0 01.586 3.281l-3.594 5.117a2.314 2.314 0 01-1.914 1.016 2.57 2.57 0 01-1.367-.43 2.379 2.379 0 01-.547-3.281zm16.054 7.383l-5.117 3.554a2.258 2.258 0 01-1.367.43 2.34 2.34 0 01-2.196-3.096c.159-.469.463-.876.868-1.162l5.117-3.594a2.359 2.359 0 013.668 2.348 2.359 2.359 0 01-.973 1.52z"/>
    <path fill="#00717B" d="M374.336 227.227a9.41 9.41 0 00-5.703-4.375 9.214 9.214 0 00-7.11.937 9.375 9.375 0 00-3.437 3.438l-6.094-10.547a9.359 9.359 0 00-5.694-4.375 9.373 9.373 0 00-7.118.937 9.142 9.142 0 00-3.516 3.594 9.37 9.37 0 00-9.206-3.026 9.377 9.377 0 00-6.966 6.737 9.11 9.11 0 000 4.805 8.902 8.902 0 00-3.32 1.171 9.389 9.389 0 00-4.375 5.694 9.388 9.388 0 00.937 7.119l1.407 2.422a9.254 9.254 0 00-4.688 1.25 9.414 9.414 0 00-3.437 12.812l14.453 25.039a30.503 30.503 0 0028.999 15.085 30.513 30.513 0 0026.001-19.811 30.666 30.666 0 005.508-37.422l-6.641-11.484zm-35-7.11a4.61 4.61 0 012.187-2.812 4.709 4.709 0 011.734-.589 4.702 4.702 0 014.673 2.307l8.867 15.313a9.487 9.487 0 00-2.969 1.133 8.818 8.818 0 00-3.437 3.437l-6.094-10.586a9.731 9.731 0 00-3.945-3.711l-.547-.898a4.802 4.802 0 01-.469-3.594zm-15.313 1.641a4.693 4.693 0 013.918-3.444 4.692 4.692 0 014.676 2.311l1.836 3.164a9.375 9.375 0 00-6.523 4.727 8.95 8.95 0 00-2.891-2.266l-.547-.938a4.728 4.728 0 01-.469-3.554zm35.743 66.172a25.823 25.823 0 01-35.235-9.414l-14.453-25.039a4.687 4.687 0 011.719-6.407 4.694 4.694 0 016.406 1.719l9.375 16.25a2.342 2.342 0 002.031 1.172 2.492 2.492 0 001.172-.313 2.338 2.338 0 00.86-3.203l-14.844-25.703a4.69 4.69 0 118.125-4.687l14.844 25.703a2.338 2.338 0 001.423 1.093 2.344 2.344 0 002.639-3.437l-11.719-20.312a4.726 4.726 0 01.336-5.203c.376-.49.846-.899 1.383-1.204a4.729 4.729 0 016.406 1.719l16.407 28.438a2.346 2.346 0 002.031 1.171c.41-.011.811-.118 1.172-.312a2.383 2.383 0 00.859-3.203l-6.25-10.86a4.65 4.65 0 011.719-6.367 4.604 4.604 0 013.536-.498 4.619 4.619 0 012.831 2.178l6.641 11.523a25.749 25.749 0 01-1.855 28.568 25.74 25.74 0 01-7.559 6.628zm17.578-21.914a30.001 30.001 0 00-4.102-15.625l-6.64-11.524a9.3 9.3 0 00-3.907-3.672l-.547-.937a4.538 4.538 0 01-.468-3.555 4.61 4.61 0 012.187-2.851 4.724 4.724 0 016.406 1.718l6.641 11.485a26.02 26.02 0 01.43 24.961zm-12.149-56.172l1.641-6.055a2.347 2.347 0 012.782-1.382 2.344 2.344 0 011.71 2.593l-1.601 6.055a2.304 2.304 0 01-2.266 1.718 1.512 1.512 0 01-.586-.078 2.345 2.345 0 01-1.68-2.851zm10.196 3.828l3.554-5.117a2.359 2.359 0 013.282-.586 2.359 2.359 0 01.586 3.281l-3.594 5.117a2.314 2.314 0 01-1.914 1.016 2.57 2.57 0 01-1.367-.43 2.379 2.379 0 01-.547-3.281zm16.054 7.383l-5.117 3.554a2.258 2.258 0 01-1.367.43 2.34 2.34 0 01-2.196-3.096c.159-.469.463-.876.868-1.162l5.117-3.594a2.359 2.359 0 013.668 2.348 2.359 2.359 0 01-.973 1.52z"/>
    <path fill="#fff" d="M374.336 227.227l.866-.501h-.001l-.865.501zm-5.703-4.375l-.265.964.005.001.26-.965zm-7.11.937l.5.866.006-.003-.506-.863zm-3.437 3.438l-.866.5.867 1.5.865-1.501-.866-.499zm-6.094-10.547l-.866.499v.001l.866-.5zm-12.812-3.438l.495.869.005-.003-.5-.866zm-3.516 3.594l-.758.652.947 1.101.691-1.277-.88-.476zm-16.172 3.711l.965.264.002-.008-.967-.256zm0 4.805l.14.99 1.124-.159-.299-1.095-.965.264zm-3.32 1.171l.499.867.007-.004.007-.004-.513-.859zm-3.438 12.813l-.866.5.002.002.864-.502zm1.407 2.422l-.005 1 1.746.008-.877-1.51-.864.502zm-4.688 1.25l-.502-.865h-.001l.503.865zm-3.437 12.812l-.868.497.002.003.866-.5zm14.453 25.039l-.866.5.001.002.865-.502zm55-4.726l-.689-.725-.169.16-.08.218.938.347zm5.508-37.422l.868-.496-.003-.005-.865.501zm-15.782-28.867l-.965-.262-.003.013.968.249zm1.641-6.055l-.927-.376-.022.056-.016.059.965.261zm4.492 1.211l.967.256.015-.057.008-.058-.99-.141zm-1.601 6.055l-.967-.256-.001.002.968.254zm-2.266 1.718l.016-.999-.039-.001-.04.002.063.998zm-.586-.078l.322-.946-.035-.012-.035-.009-.252.967zm8.516.977l.821.571v-.001l-.821-.57zm3.554-5.117l-.82-.572-.001.001.821.571zm3.868 2.695l.818.575.002-.003-.82-.572zm-3.594 5.117l-.819-.575-.005.008-.005.008.829.559zm-1.914 1.016l-.023 1H377.303l.002-1zm-1.367-.43l-.592.806.019.014.019.013.554-.833zm15.507 4.102l.571.821.001-.001-.572-.82zm-5.117 3.554l-.57-.821-.008.006-.008.005.586.81zm-1.367.43l.017-1h-.007l-.01 1zm-1.328-4.258l-.575-.818-.002.002.577.816zm5.117-3.594l-.572-.82-.003.002.575.818zm-13.549 9.539a10.408 10.408 0 00-6.309-4.84l-.519 1.931a8.41 8.41 0 015.097 3.911l1.731-1.002zm-6.303-4.839a10.225 10.225 0 00-4.045-.278l.261 1.983a8.233 8.233 0 013.254.224l.53-1.929zm-4.045-.278a10.23 10.23 0 00-3.836 1.318l1.012 1.725a8.227 8.227 0 013.085-1.06l-.261-1.983zm-3.829 1.314a10.359 10.359 0 00-3.804 3.804l1.732.999a8.376 8.376 0 013.071-3.071l-.999-1.732zm-2.072 3.803l-6.094-10.547-1.732 1.001 6.094 10.547 1.732-1.001zm-6.093-10.546a10.377 10.377 0 00-2.669-3.047l-1.219 1.586a8.37 8.37 0 012.155 2.46l1.733-.999zm-2.669-3.047a10.386 10.386 0 00-3.632-1.794l-.519 1.932a8.357 8.357 0 012.932 1.448l1.219-1.586zm-3.632-1.794a10.383 10.383 0 00-4.043-.265l.261 1.983a8.371 8.371 0 013.263.214l.519-1.932zm-4.043-.265c-1.351.178-2.655.62-3.836 1.302l1.001 1.732a8.372 8.372 0 013.096-1.051l-.261-1.983zm-3.83 1.299a10.152 10.152 0 00-3.901 3.987l1.76.952a8.133 8.133 0 013.131-3.201l-.99-1.738zm-2.263 3.811a10.376 10.376 0 00-4.627-3.093l-.625 1.9a8.377 8.377 0 013.736 2.497l1.516-1.304zm-4.627-3.093a10.377 10.377 0 00-5.561-.256l.448 1.949a8.38 8.38 0 014.488.207l.625-1.9zm-5.561-.256a10.375 10.375 0 00-4.892 2.655l1.39 1.437a8.392 8.392 0 013.95-2.143l-.448-1.949zm-4.892 2.655a10.363 10.363 0 00-2.816 4.801l1.933.512a8.376 8.376 0 012.273-3.876l-1.39-1.437zm-2.814 4.793a10.096 10.096 0 000 5.333l1.929-.528a8.104 8.104 0 010-4.277l-1.929-.528zm.824 4.078a9.919 9.919 0 00-3.693 1.304l1.026 1.717a7.905 7.905 0 012.947-1.04l-.28-1.981zm-3.679 1.296a10.38 10.38 0 00-3.048 2.669l1.586 1.218a8.365 8.365 0 012.46-2.154l-.998-1.733zm-3.048 2.669a10.359 10.359 0 00-1.793 3.632l1.931.518a8.383 8.383 0 011.448-2.932l-1.586-1.218zm-1.793 3.632a10.36 10.36 0 00-.266 4.042l1.983-.261a8.371 8.371 0 01.214-3.263l-1.931-.518zm-.266 4.042c.178 1.352.62 2.656 1.302 3.836l1.732-1a8.37 8.37 0 01-1.051-3.097l-1.983.261zm1.304 3.838l1.406 2.422 1.729-1.004-1.406-2.422-1.729 1.004zm2.275.92a10.265 10.265 0 00-5.194 1.385l1.004 1.73a8.251 8.251 0 014.181-1.115l.009-2zm-5.195 1.385a10.419 10.419 0 00-4.822 6.304l1.932.518a8.417 8.417 0 013.896-5.093l-1.006-1.729zm-4.822 6.304a10.412 10.412 0 001.02 7.87l1.736-.993a8.417 8.417 0 01-.824-6.359l-1.932-.518zm1.022 7.873l14.453 25.039 1.732-1-14.453-25.039-1.732 1zm14.454 25.041a31.5 31.5 0 0012.712 12.139l.923-1.774a29.499 29.499 0 01-11.905-11.369l-1.73 1.004zm12.712 12.139a31.503 31.503 0 0017.238 3.44l-.171-1.993a29.5 29.5 0 01-16.144-3.221l-.923 1.774zm17.238 3.44a31.508 31.508 0 0016.398-6.33l-1.212-1.591a29.506 29.506 0 01-15.357 5.928l.171 1.993zm16.398-6.33a31.51 31.51 0 0010.455-14.13l-1.876-.694a29.508 29.508 0 01-9.791 13.233l1.212 1.591zm10.206-13.752a31.662 31.662 0 009.511-18.34l-1.978-.291a29.67 29.67 0 01-8.911 17.181l1.378 1.45zm9.511-18.34a31.664 31.664 0 00-3.824-20.303l-1.737.992a29.663 29.663 0 013.583 19.02l1.978.291zm-3.827-20.308l-6.64-11.484-1.732 1.001 6.641 11.485 1.731-1.002zm-15.681-28.105l1.64-6.054-1.93-.523-1.641 6.054 1.931.523zm1.602-5.94a1.34 1.34 0 01.647-.698l-.89-1.791a3.344 3.344 0 00-1.611 1.737l1.854.752zm.647-.698c.294-.146.631-.179.947-.094l.521-1.931a3.342 3.342 0 00-2.358.234l.89 1.791zm.947-.094c.317.085.592.284.772.557l1.67-1.101a3.345 3.345 0 00-1.921-1.387l-.521 1.931zm.772.557c.181.274.255.605.209.929l1.98.282a3.346 3.346 0 00-.519-2.312l-1.67 1.101zm.232.814l-1.601 6.055 1.933.511 1.602-6.054-1.934-.512zm-1.602 6.057c-.074.282-.24.531-.473.707l1.209 1.594a3.306 3.306 0 001.199-1.793l-1.935-.508zm-.473.707c-.232.177-.517.27-.809.266l-.032 1.999a3.302 3.302 0 002.05-.671l-1.209-1.594zm-.888.267a.51.51 0 01-.201-.026l-.644 1.893c.312.106.642.15.971.129l-.126-1.996zm-.271-.047a1.347 1.347 0 01-.82-.619l-1.723 1.015a3.344 3.344 0 002.039 1.539l.504-1.935zm-.82-.619a1.343 1.343 0 01-.143-1.016l-1.937-.498a3.34 3.34 0 00.357 2.529l1.723-1.015zm9.905 3.133l3.555-5.117-1.643-1.141-3.555 5.117 1.643 1.141zm3.554-5.116c.205-.295.52-.496.874-.559l-.351-1.969a3.351 3.351 0 00-2.164 1.385l1.641 1.143zm.874-.559c.355-.064.72.016 1.015.222l1.143-1.641a3.353 3.353 0 00-2.509-.55l.351 1.969zm1.015.222c.295.206.496.521.56.875l1.969-.352a3.359 3.359 0 00-1.386-2.164l-1.143 1.641zm.56.875c.063.354-.017.719-.223 1.014l1.641 1.144a3.36 3.36 0 00.551-2.51l-1.969.352zm-.221 1.011l-3.594 5.117 1.637 1.15 3.594-5.117-1.637-1.15zm-3.604 5.133c-.12.177-.281.322-.47.423l.937 1.766a3.302 3.302 0 001.191-1.07l-1.658-1.119zm-.47.423c-.189.1-.4.152-.614.152l-.003 2a3.3 3.3 0 001.554-.386l-.937-1.766zm-.592.152a1.577 1.577 0 01-.837-.263l-1.107 1.666a3.588 3.588 0 001.898.597l.046-2zm-.799-.236a1.38 1.38 0 01-.546-.888l-1.973.329c.145.87.625 1.649 1.336 2.171l1.183-1.612zm-.546-.888c-.059-.355.023-.72.229-1.016l-1.642-1.142a3.381 3.381 0 00-.56 2.487l1.973-.329zm14.892 4.974l-5.117 3.555 1.141 1.643 5.117-3.555-1.141-1.643zm-5.133 3.566c-.222.161-.49.245-.764.24l-.034 2a3.266 3.266 0 001.97-.619l-1.172-1.621zm-.771.24a1.348 1.348 0 01-.788-.265l-1.193 1.605a3.347 3.347 0 001.961.66l.02-2zm-.788-.265a1.349 1.349 0 01-.481-.678l-1.909.595a3.35 3.35 0 001.197 1.688l1.193-1.605zm-.481-.678a1.344 1.344 0 01.011-.832l-1.895-.642a3.347 3.347 0 00-.025 2.069l1.909-.595zm.011-.832c.091-.269.265-.502.497-.666l-1.154-1.633a3.338 3.338 0 00-1.238 1.657l1.895.642zm.495-.664l5.117-3.594-1.15-1.637-5.117 3.594 1.15 1.637zm5.114-3.592c.295-.206.66-.286 1.014-.223l.352-1.969a3.36 3.36 0 00-2.51.551l1.144 1.641zm1.014-.223c.354.064.669.265.875.56l1.641-1.143a3.359 3.359 0 00-2.164-1.386l-.352 1.969zm.875.56c.206.295.286.66.222 1.015l1.969.351a3.353 3.353 0 00-.55-2.509l-1.641 1.143zm.222 1.015a1.353 1.353 0 01-.559.874l1.143 1.641a3.351 3.351 0 001.385-2.164l-1.969-.351zm-52.097.757l-1.931-.522-.002.007-.001.007 1.934.508zm2.187-2.812l.982 1.742.009-.005.01-.006-1.001-1.731zm6.407 1.718l-1.733.999.002.004 1.731-1.003zm8.867 15.313l.39 1.962 2.741-.546-1.4-2.418-1.731 1.002zm-2.969 1.133l.97 1.749.023-.013.023-.013-1.016-1.723zm-3.437 3.437l-1.734.998 1.766 3.067 1.717-3.095-1.749-.97zm-6.094-10.586l1.733-.997-.006-.01-.005-.01-1.722 1.017zm-3.945-3.711l-1.709 1.04.294.484.504.257.911-1.781zm-.547-.898l-1.739.987.015.027.015.026 1.709-1.04zm-15.782-1.953l-1.932-.514-.001.004 1.933.51zm8.594-1.133l-1.734.997.004.007 1.73-1.004zm1.836 3.164l.364 1.967 2.79-.516-1.424-2.455-1.73 1.004zm-6.523 4.727l-1.531 1.287 1.884 2.24 1.402-2.569-1.755-.958zm-2.891-2.266l-1.727 1.008.303.52.54.266.884-1.794zm-.547-.938l-1.735.994.004.007.004.007 1.727-1.008zm35.274 62.618l.999 1.732-.999-1.732zm-35.235-9.414l-1.732.999.002.004 1.73-1.003zm-14.453-25.039l-1.732.999 1.732-.999zm8.125-4.688l-1.732 1 1.732-1zm9.375 16.25l-1.732 1 1.732-1zm2.031 1.172l.002 2h.03l-.032-2zm1.172-.313l.969 1.75.015-.008.015-.009-.999-1.733zm.86-3.203l-1.732 1.001 1.732-1.001zm-14.844-25.703l-1.732 1 1.732-1zm8.125-4.687l-1.732.999v.001l1.732-1zm14.844 25.703l1.732-1-1.732 1zm4.062-2.344l-1.732 1 1.732-1zm-11.719-20.312l-1.735.994.003.005 1.732-.999zm-.468-3.555l1.933.51.003-.008-1.936-.502zm2.187-2.852l-.986-1.74-.001.001.987 1.739zm6.406 1.719l1.733-.999-.004-.007-.004-.007-1.725 1.013zm16.407 28.438l-1.733.999.001.001 1.732-1zm2.031 1.171l.001 2h.052l-.053-2zm1.172-.312l.949 1.76.039-.021.038-.023-1.026-1.716zm.859-3.203l1.748-.972-.007-.013-.007-.013-1.734.998zm-6.25-10.86l1.734-.997-.003-.005-1.731 1.002zm1.719-6.367l.991 1.737.017-.009.016-.01-1.024-1.718zm6.367 1.68l-1.738.989.005.01 1.733-.999zm6.641 11.523l-1.733.999.002.003 1.731-1.002zm8.164 13.282l-2-.032 3.771.961-1.771-.929zm-4.102-15.625l-1.733.998.007.012 1.726-1.01zm-6.64-11.524l1.732-.998-.001-.002-1.731 1zm-3.907-3.672l-1.727 1.008.301.516.535.267.891-1.791zm-.547-.937l1.728-1.008-.005-.008-.005-.009-1.718 1.025zm-.468-3.555l1.924.544.006-.02.006-.022-1.936-.502zm2.187-2.851l-.986-1.74h-.001l.987 1.74zm6.406 1.718l1.732-1.001-.007-.011-1.725 1.012zm6.641 11.485l1.738-.99-.007-.011-1.731 1.001zm-35.647-20.416c.09-.334.246-.647.459-.92l-3.158-2.456a6.621 6.621 0 00-1.163 2.332l3.862 1.044zm.459-.92c.212-.273.477-.502.779-.672l-1.963-3.485a6.619 6.619 0 00-1.974 1.701l3.158 2.456zm.798-.683c.306-.176.643-.291.993-.337l-.521-3.966c-.872.115-1.712.4-2.473.84l2.001 3.463zm.993-.337a2.685 2.685 0 011.048.069l1.036-3.863a6.693 6.693 0 00-2.605-.172l.521 3.966zm1.048.069c.341.091.66.249.94.464l2.437-3.171a6.654 6.654 0 00-2.341-1.156l-1.036 3.863zm.94.464c.281.216.515.484.692.79l3.466-1.997a6.679 6.679 0 00-1.721-1.964l-2.437 3.171zm.694.794l8.867 15.312 3.462-2.004-8.868-15.313-3.461 2.005zm10.208 12.348a11.496 11.496 0 00-3.595 1.372l2.032 3.446a7.47 7.47 0 012.343-.894l-.78-3.924zm-3.549 1.346a10.83 10.83 0 00-4.216 4.216l3.498 1.94a6.833 6.833 0 012.658-2.658l-1.94-3.498zm-.734 4.188l-6.094-10.585-3.466 1.995 6.093 10.586 3.467-1.996zm-6.105-10.605a11.727 11.727 0 00-4.757-4.474l-1.821 3.561a7.718 7.718 0 013.134 2.948l3.444-2.035zm-3.959-3.734l-.547-.898-3.417 2.08.547.898 3.417-2.08zm-.516-.846a2.8 2.8 0 01-.274-2.097l-3.868-1.017a6.797 6.797 0 00.664 5.089l3.478-1.975zm-15.588-.451c.137-.515.424-.977.823-1.329l-2.64-3.004a6.683 6.683 0 00-2.048 3.305l3.865 1.028zm.823-1.329c.4-.351.896-.576 1.423-.646l-.522-3.965a6.681 6.681 0 00-3.541 1.607l2.64 3.004zm1.423-.646a2.7 2.7 0 011.542.255l1.772-3.586a6.687 6.687 0 00-3.836-.634l.522 3.965zm1.542.255a2.68 2.68 0 011.139 1.07l3.468-1.994a6.688 6.688 0 00-2.835-2.662l-1.772 3.586zm1.143 1.077l1.836 3.164 3.46-2.008-1.836-3.164-3.46 2.008zm3.202.193a11.39 11.39 0 00-4.605 1.974l2.347 3.24a7.362 7.362 0 012.986-1.28l-.728-3.934zm-4.605 1.974a11.375 11.375 0 00-3.31 3.761l3.511 1.917a7.378 7.378 0 012.146-2.438l-2.347-3.24zm-.024 3.432a10.957 10.957 0 00-3.537-2.772l-1.768 3.588a6.954 6.954 0 012.244 1.759l3.061-2.575zm-2.693-1.986l-.547-.937-3.455 2.015.547.938 3.455-2.016zm-.539-.924a2.728 2.728 0 01-.271-2.05l-3.867-1.02a6.724 6.724 0 00.667 5.058l3.471-1.988zm32.539 61.879a23.822 23.822 0 01-18.049 2.378l-1.032 3.864a27.818 27.818 0 0021.079-2.777l-1.998-3.465zm-18.049 2.378a23.824 23.824 0 01-14.457-11.063l-3.46 2.007a27.82 27.82 0 0016.885 12.92l1.032-3.864zm-14.455-11.059l-14.453-25.039-3.464 1.999 14.453 25.039 3.464-1.999zm-14.452-25.039a2.685 2.685 0 01-.338-.994l-3.966.521c.115.871.4 1.711.839 2.472l3.465-1.999zm-.338-.994a2.699 2.699 0 01.069-1.047l-3.863-1.037a6.693 6.693 0 00-.172 2.605l3.966-.521zm.069-1.047c.092-.341.25-.661.465-.942l-3.173-2.436a6.703 6.703 0 00-1.155 2.341l3.863 1.037zm.465-.942a2.68 2.68 0 01.789-.691l-1.999-3.465a6.699 6.699 0 00-1.963 1.72l3.173 2.436zm.789-.691c.306-.177.644-.291.994-.337l-.52-3.966a6.682 6.682 0 00-2.473.838l1.999 3.465zm.994-.337a2.683 2.683 0 011.048.069l1.036-3.864a6.687 6.687 0 00-2.604-.171l.52 3.966zm1.048.069c.341.091.661.249.941.464l2.436-3.172a6.68 6.68 0 00-2.341-1.156l-1.036 3.864zm.941.464a2.7 2.7 0 01.692.79l3.465-1.999a6.702 6.702 0 00-1.721-1.963l-2.436 3.172zm.692.79l9.375 16.25 3.464-1.999-9.375-16.25-3.464 1.999zm9.375 16.25a4.35 4.35 0 001.591 1.591l1.999-3.465a.346.346 0 01-.126-.126l-3.464 2zm1.591 1.591a4.354 4.354 0 002.174.581l-.003-4a.346.346 0 01-.172-.046l-1.999 3.465zm2.204.581a4.503 4.503 0 002.109-.563l-1.937-3.499a.508.508 0 01-.235.062l.063 4zm2.139-.58a4.349 4.349 0 001.276-1.117l-3.172-2.437a.358.358 0 01-.101.089l1.997 3.465zm1.276-1.117c.347-.453.603-.969.751-1.521l-3.864-1.036a.363.363 0 01-.059.12l3.172 2.437zm.751-1.521a4.368 4.368 0 00.111-1.692l-3.966.522a.337.337 0 01-.009.134l3.864 1.036zm.111-1.692a4.344 4.344 0 00-.546-1.606l-3.463 2.001a.354.354 0 01.043.127l3.966-.522zm-.545-1.606l-14.844-25.703-3.464 2 14.844 25.704 3.464-2.001zm-14.844-25.702a2.694 2.694 0 01-.268-2.042l-3.863-1.036a6.688 6.688 0 00.667 5.077l3.464-1.999zm-.268-2.042a2.692 2.692 0 011.254-1.633l-1.999-3.464a6.687 6.687 0 00-3.118 4.061l3.863 1.036zm1.254-1.633a2.691 2.691 0 012.041-.268l1.037-3.863a6.688 6.688 0 00-5.077.667l1.999 3.464zm2.041-.268c.69.185 1.277.636 1.634 1.254l3.464-1.999a6.687 6.687 0 00-4.061-3.118l-1.037 3.863zm1.634 1.255l14.844 25.703 3.464-2-14.844-25.704-3.464 2.001zm14.843 25.702c.285.495.665.928 1.118 1.275l2.436-3.172a.349.349 0 01-.089-.102l-3.465 1.999zm1.118 1.275c.452.348.969.603 1.52.751l1.036-3.864a.363.363 0 01-.12-.059l-2.436 3.172zm1.52.751a4.368 4.368 0 001.692.111l-.521-3.966a.342.342 0 01-.135-.009l-1.036 3.864zm1.692.111a4.342 4.342 0 001.605-.544l-1.999-3.465a.354.354 0 01-.127.043l.521 3.966zm1.605-.544a4.35 4.35 0 001.275-1.118l-3.172-2.436a.349.349 0 01-.102.089l1.999 3.465zm1.275-1.118c.348-.452.603-.969.751-1.52l-3.864-1.037a.359.359 0 01-.059.121l3.172 2.436zm.751-1.52a4.368 4.368 0 00.111-1.692l-3.966.521a.336.336 0 01-.009.134l3.864 1.037zm.111-1.692a4.336 4.336 0 00-.544-1.605l-3.465 1.999a.354.354 0 01.043.127l3.966-.521zm-.544-1.605l-11.719-20.313-3.465 1.999 11.719 20.313 3.465-1.999zm-11.716-20.307a2.73 2.73 0 01-.271-2.051l-3.867-1.02a6.727 6.727 0 00.667 5.059l3.471-1.988zm-.268-2.059a2.6 2.6 0 01.455-.933l-3.174-2.434a6.597 6.597 0 00-1.153 2.363l3.872 1.004zm.455-.933a2.61 2.61 0 01.783-.681l-1.974-3.479a6.591 6.591 0 00-1.983 1.726l3.174 2.434zm.782-.681a2.725 2.725 0 012.051-.261l1.037-3.863a6.73 6.73 0 00-5.06.644l1.972 3.48zm2.051-.261a2.723 2.723 0 011.645 1.253l3.449-2.026a6.723 6.723 0 00-4.057-3.09l-1.037 3.863zm1.637 1.24l16.406 28.437 3.465-1.999-16.406-28.437-3.465 1.999zm16.407 28.438a4.34 4.34 0 001.591 1.59l1.999-3.465a.336.336 0 01-.126-.125l-3.464 2zm1.591 1.59a4.34 4.34 0 002.173.581l-.002-4a.333.333 0 01-.172-.046l-1.999 3.465zm2.225.581a4.618 4.618 0 002.068-.552l-1.898-3.521a.61.61 0 01-.277.074l.107 3.999zm2.145-.596a4.383 4.383 0 001.984-2.625l-3.864-1.037a.376.376 0 01-.173.229l2.053 3.433zm1.984-2.625c.295-1.1.15-2.271-.403-3.266l-3.496 1.944a.378.378 0 01.035.285l3.864 1.037zm-.417-3.292l-6.25-10.859-3.467 1.995 6.25 10.859 3.467-1.995zm-6.253-10.864a2.639 2.639 0 01-.334-.982l-3.966.521c.114.869.399 1.707.838 2.466l3.462-2.005zm-.334-.982a2.643 2.643 0 01.069-1.036l-3.862-1.042a6.643 6.643 0 00-.173 2.599l3.966-.521zm.069-1.036c.091-.337.247-.653.461-.929l-3.165-2.446a6.648 6.648 0 00-1.158 2.333l3.862 1.042zm.461-.929c.214-.276.48-.508.783-.681l-1.982-3.474a6.645 6.645 0 00-1.966 1.709l3.165 2.446zm.816-.7c.298-.178.629-.294.973-.343l-.558-3.961a6.617 6.617 0 00-2.463.868l2.048 3.436zm.973-.343a2.624 2.624 0 011.029.061l1.021-3.868a6.63 6.63 0 00-2.608-.154l.558 3.961zm1.029.061c.336.089.651.243.926.455l2.439-3.17a6.61 6.61 0 00-2.344-1.153l-1.021 3.868zm.926.455c.275.212.505.476.677.778l3.476-1.978a6.595 6.595 0 00-1.714-1.97l-2.439 3.17zm.682.788l6.641 11.523 3.466-1.997-6.641-11.524-3.466 1.998zm6.643 11.526a23.74 23.74 0 012.989 8.778l3.966-.525a27.744 27.744 0 00-3.493-10.257l-3.462 2.004zm2.989 8.778c.41 3.094.206 6.238-.6 9.253l3.864 1.034a27.747 27.747 0 00.702-10.812l-3.966.525zm-.6 9.253a23.747 23.747 0 01-4.1 8.317l3.174 2.435a27.754 27.754 0 004.79-9.718l-3.864-1.034zm-4.1 8.317a23.728 23.728 0 01-6.972 6.113l1.999 3.465a27.726 27.726 0 008.147-7.143l-3.174-2.435zm13.606-14.037a32.006 32.006 0 00-4.375-16.666l-3.453 2.02a28.004 28.004 0 013.828 14.583l4 .063zm-4.369-16.655l-6.641-11.523-3.465 1.997 6.64 11.523 3.466-1.997zm-6.642-11.525a11.293 11.293 0 00-4.746-4.462l-1.783 3.581a7.292 7.292 0 013.066 2.882l3.463-2.001zm-3.91-3.679l-.547-.938-3.455 2.016.547.937 3.455-2.015zm-.557-.955a2.537 2.537 0 01-.336-.966l-3.965.523a6.53 6.53 0 00.866 2.492l3.435-2.049zm-.336-.966a2.529 2.529 0 01.074-1.02l-3.849-1.088a6.53 6.53 0 00-.19 2.631l3.965-.523zm.086-1.062c.087-.338.242-.655.455-.932l-3.174-2.435a6.597 6.597 0 00-1.153 2.363l3.872 1.004zm.455-.932c.213-.278.479-.509.783-.682l-1.974-3.479a6.62 6.62 0 00-1.983 1.726l3.174 2.435zm.782-.681a2.73 2.73 0 012.051-.262l1.037-3.863a6.725 6.725 0 00-5.06.645l1.972 3.48zm2.051-.262a2.73 2.73 0 011.645 1.253l3.449-2.025a6.729 6.729 0 00-4.057-3.091l-1.037 3.863zm1.638 1.241l6.641 11.485 3.462-2.002-6.64-11.485-3.463 2.002zm6.634 11.473a24.012 24.012 0 013.143 11.471l3.999-.069a28.013 28.013 0 00-3.666-13.381l-3.476 1.979zm3.143 11.471a24.019 24.019 0 01-2.746 11.571l3.542 1.859a28.01 28.01 0 003.203-13.499l-3.999.069z" mask="url(#a)"/>
    <mask id="b" width="90" height="96" x="403.773" y="201.327" fill="#000" maskUnits="userSpaceOnUse">
      <path fill="#fff" d="M403.773 201.327h90v96h-90z"/>
      <path d="M474.336 227.227a9.41 9.41 0 00-5.703-4.375 9.214 9.214 0 00-7.11.937 9.375 9.375 0 00-3.437 3.438l-6.094-10.547a9.359 9.359 0 00-5.694-4.375 9.373 9.373 0 00-7.118.937 9.142 9.142 0 00-3.516 3.594 9.37 9.37 0 00-9.206-3.026 9.377 9.377 0 00-6.966 6.737 9.11 9.11 0 000 4.805 8.902 8.902 0 00-3.32 1.171 9.389 9.389 0 00-4.375 5.694 9.388 9.388 0 00.937 7.119l1.407 2.422a9.254 9.254 0 00-4.688 1.25 9.414 9.414 0 00-3.437 12.812l14.453 25.039a30.503 30.503 0 0028.999 15.085 30.513 30.513 0 0026.001-19.811 30.666 30.666 0 005.508-37.422l-6.641-11.484zm-9.141-17.383l1.641-6.055a2.347 2.347 0 012.782-1.382 2.344 2.344 0 011.71 2.593l-1.601 6.055a2.304 2.304 0 01-2.266 1.718 1.512 1.512 0 01-.586-.078 2.345 2.345 0 01-1.68-2.851zm10.196 3.828l3.554-5.117a2.359 2.359 0 013.282-.586 2.359 2.359 0 01.586 3.281l-3.594 5.117a2.314 2.314 0 01-1.914 1.016 2.57 2.57 0 01-1.367-.43 2.379 2.379 0 01-.547-3.281zm16.054 7.383l-5.117 3.554a2.258 2.258 0 01-1.367.43 2.34 2.34 0 01-2.196-3.096c.159-.469.463-.876.868-1.162l5.117-3.594a2.359 2.359 0 013.668 2.348 2.359 2.359 0 01-.973 1.52z"/>
      <path d="M474.336 227.227a9.41 9.41 0 00-5.703-4.375 9.214 9.214 0 00-7.11.937 9.375 9.375 0 00-3.437 3.438l-6.094-10.547a9.359 9.359 0 00-5.694-4.375 9.373 9.373 0 00-7.118.937 9.142 9.142 0 00-3.516 3.594 9.37 9.37 0 00-9.206-3.026 9.377 9.377 0 00-6.966 6.737 9.11 9.11 0 000 4.805 8.902 8.902 0 00-3.32 1.171 9.389 9.389 0 00-4.375 5.694 9.388 9.388 0 00.937 7.119l1.407 2.422a9.254 9.254 0 00-4.688 1.25 9.414 9.414 0 00-3.437 12.812l14.453 25.039a30.503 30.503 0 0028.999 15.085 30.513 30.513 0 0026.001-19.811 30.666 30.666 0 005.508-37.422l-6.641-11.484zm-35-7.11a4.61 4.61 0 012.187-2.812 4.709 4.709 0 011.734-.589 4.702 4.702 0 014.673 2.307l8.867 15.313a9.487 9.487 0 00-2.969 1.133 8.818 8.818 0 00-3.437 3.437l-6.094-10.586a9.731 9.731 0 00-3.945-3.711l-.547-.898a4.802 4.802 0 01-.469-3.594zm-15.313 1.641a4.693 4.693 0 013.918-3.444 4.692 4.692 0 014.676 2.311l1.836 3.164a9.375 9.375 0 00-6.523 4.727 8.95 8.95 0 00-2.891-2.266l-.547-.938a4.728 4.728 0 01-.469-3.554zm35.743 66.172a25.823 25.823 0 01-35.235-9.414l-14.453-25.039a4.687 4.687 0 011.719-6.407 4.694 4.694 0 016.406 1.719l9.375 16.25a2.342 2.342 0 002.031 1.172 2.492 2.492 0 001.172-.313 2.338 2.338 0 00.86-3.203l-14.844-25.703a4.69 4.69 0 118.125-4.687l14.844 25.703a2.338 2.338 0 001.423 1.093 2.344 2.344 0 002.639-3.437l-11.719-20.312a4.726 4.726 0 01.336-5.203c.376-.49.846-.899 1.383-1.204a4.729 4.729 0 016.406 1.719l16.407 28.438a2.346 2.346 0 002.031 1.171c.41-.011.811-.118 1.172-.312a2.383 2.383 0 00.859-3.203l-6.25-10.86a4.65 4.65 0 011.719-6.367 4.604 4.604 0 013.536-.498 4.619 4.619 0 012.831 2.178l6.641 11.523a25.749 25.749 0 01-1.855 28.568 25.74 25.74 0 01-7.559 6.628zm17.578-21.914a30.001 30.001 0 00-4.102-15.625l-6.64-11.524a9.3 9.3 0 00-3.907-3.672l-.547-.937a4.538 4.538 0 01-.468-3.555 4.61 4.61 0 012.187-2.851 4.724 4.724 0 016.406 1.718l6.641 11.485a26.02 26.02 0 01.43 24.961zm-12.149-56.172l1.641-6.055a2.347 2.347 0 012.782-1.382 2.344 2.344 0 011.71 2.593l-1.601 6.055a2.304 2.304 0 01-2.266 1.718 1.512 1.512 0 01-.586-.078 2.345 2.345 0 01-1.68-2.851zm10.196 3.828l3.554-5.117a2.359 2.359 0 013.282-.586 2.359 2.359 0 01.586 3.281l-3.594 5.117a2.314 2.314 0 01-1.914 1.016 2.57 2.57 0 01-1.367-.43 2.379 2.379 0 01-.547-3.281zm16.054 7.383l-5.117 3.554a2.258 2.258 0 01-1.367.43 2.34 2.34 0 01-2.196-3.096c.159-.469.463-.876.868-1.162l5.117-3.594a2.359 2.359 0 013.668 2.348 2.359 2.359 0 01-.973 1.52z"/>
    </mask>
    <path fill="#fff" d="M474.336 227.227a9.41 9.41 0 00-5.703-4.375 9.214 9.214 0 00-7.11.937 9.375 9.375 0 00-3.437 3.438l-6.094-10.547a9.359 9.359 0 00-5.694-4.375 9.373 9.373 0 00-7.118.937 9.142 9.142 0 00-3.516 3.594 9.37 9.37 0 00-9.206-3.026 9.377 9.377 0 00-6.966 6.737 9.11 9.11 0 000 4.805 8.902 8.902 0 00-3.32 1.171 9.389 9.389 0 00-4.375 5.694 9.388 9.388 0 00.937 7.119l1.407 2.422a9.254 9.254 0 00-4.688 1.25 9.414 9.414 0 00-3.437 12.812l14.453 25.039a30.503 30.503 0 0028.999 15.085 30.513 30.513 0 0026.001-19.811 30.666 30.666 0 005.508-37.422l-6.641-11.484zm-9.141-17.383l1.641-6.055a2.347 2.347 0 012.782-1.382 2.344 2.344 0 011.71 2.593l-1.601 6.055a2.304 2.304 0 01-2.266 1.718 1.512 1.512 0 01-.586-.078 2.345 2.345 0 01-1.68-2.851zm10.196 3.828l3.554-5.117a2.359 2.359 0 013.282-.586 2.359 2.359 0 01.586 3.281l-3.594 5.117a2.314 2.314 0 01-1.914 1.016 2.57 2.57 0 01-1.367-.43 2.379 2.379 0 01-.547-3.281zm16.054 7.383l-5.117 3.554a2.258 2.258 0 01-1.367.43 2.34 2.34 0 01-2.196-3.096c.159-.469.463-.876.868-1.162l5.117-3.594a2.359 2.359 0 013.668 2.348 2.359 2.359 0 01-.973 1.52z"/>
    <path fill="#F29E03" d="M474.336 227.227a9.41 9.41 0 00-5.703-4.375 9.214 9.214 0 00-7.11.937 9.375 9.375 0 00-3.437 3.438l-6.094-10.547a9.359 9.359 0 00-5.694-4.375 9.373 9.373 0 00-7.118.937 9.142 9.142 0 00-3.516 3.594 9.37 9.37 0 00-9.206-3.026 9.377 9.377 0 00-6.966 6.737 9.11 9.11 0 000 4.805 8.902 8.902 0 00-3.32 1.171 9.389 9.389 0 00-4.375 5.694 9.388 9.388 0 00.937 7.119l1.407 2.422a9.254 9.254 0 00-4.688 1.25 9.414 9.414 0 00-3.437 12.812l14.453 25.039a30.503 30.503 0 0028.999 15.085 30.513 30.513 0 0026.001-19.811 30.666 30.666 0 005.508-37.422l-6.641-11.484zm-35-7.11a4.61 4.61 0 012.187-2.812 4.709 4.709 0 011.734-.589 4.702 4.702 0 014.673 2.307l8.867 15.313a9.487 9.487 0 00-2.969 1.133 8.818 8.818 0 00-3.437 3.437l-6.094-10.586a9.731 9.731 0 00-3.945-3.711l-.547-.898a4.802 4.802 0 01-.469-3.594zm-15.313 1.641a4.693 4.693 0 013.918-3.444 4.692 4.692 0 014.676 2.311l1.836 3.164a9.375 9.375 0 00-6.523 4.727 8.95 8.95 0 00-2.891-2.266l-.547-.938a4.728 4.728 0 01-.469-3.554zm35.743 66.172a25.823 25.823 0 01-35.235-9.414l-14.453-25.039a4.687 4.687 0 011.719-6.407 4.694 4.694 0 016.406 1.719l9.375 16.25a2.342 2.342 0 002.031 1.172 2.492 2.492 0 001.172-.313 2.338 2.338 0 00.86-3.203l-14.844-25.703a4.69 4.69 0 118.125-4.687l14.844 25.703a2.338 2.338 0 001.423 1.093 2.344 2.344 0 002.639-3.437l-11.719-20.312a4.726 4.726 0 01.336-5.203c.376-.49.846-.899 1.383-1.204a4.729 4.729 0 016.406 1.719l16.407 28.438a2.346 2.346 0 002.031 1.171c.41-.011.811-.118 1.172-.312a2.383 2.383 0 00.859-3.203l-6.25-10.86a4.65 4.65 0 011.719-6.367 4.604 4.604 0 013.536-.498 4.619 4.619 0 012.831 2.178l6.641 11.523a25.749 25.749 0 01-1.855 28.568 25.74 25.74 0 01-7.559 6.628zm17.578-21.914a30.001 30.001 0 00-4.102-15.625l-6.64-11.524a9.3 9.3 0 00-3.907-3.672l-.547-.937a4.538 4.538 0 01-.468-3.555 4.61 4.61 0 012.187-2.851 4.724 4.724 0 016.406 1.718l6.641 11.485a26.02 26.02 0 01.43 24.961zm-12.149-56.172l1.641-6.055a2.347 2.347 0 012.782-1.382 2.344 2.344 0 011.71 2.593l-1.601 6.055a2.304 2.304 0 01-2.266 1.718 1.512 1.512 0 01-.586-.078 2.345 2.345 0 01-1.68-2.851zm10.196 3.828l3.554-5.117a2.359 2.359 0 013.282-.586 2.359 2.359 0 01.586 3.281l-3.594 5.117a2.314 2.314 0 01-1.914 1.016 2.57 2.57 0 01-1.367-.43 2.379 2.379 0 01-.547-3.281zm16.054 7.383l-5.117 3.554a2.258 2.258 0 01-1.367.43 2.34 2.34 0 01-2.196-3.096c.159-.469.463-.876.868-1.162l5.117-3.594a2.359 2.359 0 013.668 2.348 2.359 2.359 0 01-.973 1.52z"/>
    <path fill="#fff" d="M474.336 227.227l.866-.501h-.001l-.865.501zm-5.703-4.375l-.265.964.005.001.26-.965zm-7.11.937l.5.866.006-.003-.506-.863zm-3.437 3.438l-.866.5.867 1.5.865-1.501-.866-.499zm-6.094-10.547l-.866.499v.001l.866-.5zm-12.812-3.438l.495.869.005-.003-.5-.866zm-3.516 3.594l-.758.652.947 1.101.691-1.277-.88-.476zm-16.172 3.711l.965.264.002-.008-.967-.256zm0 4.805l.14.99 1.124-.159-.299-1.095-.965.264zm-3.32 1.171l.499.867.007-.004.007-.004-.513-.859zm-3.438 12.813l-.866.5.002.002.864-.502zm1.407 2.422l-.005 1 1.746.008-.877-1.51-.864.502zm-4.688 1.25l-.502-.865h-.001l.503.865zm-3.437 12.812l-.868.497.002.003.866-.5zm14.453 25.039l-.866.5.001.002.865-.502zm55-4.726l-.689-.725-.169.16-.08.218.938.347zm5.508-37.422l.868-.496-.003-.005-.865.501zm-15.782-28.867l-.965-.262-.003.013.968.249zm1.641-6.055l-.927-.376-.022.056-.016.059.965.261zm4.492 1.211l.967.256.015-.057.008-.058-.99-.141zm-1.601 6.055l-.967-.256-.001.002.968.254zm-2.266 1.718l.016-.999-.039-.001-.04.002.063.998zm-.586-.078l.322-.946-.035-.012-.035-.009-.252.967zm8.516.977l.821.571v-.001l-.821-.57zm3.554-5.117l-.82-.572-.001.001.821.571zm3.868 2.695l.818.575.002-.003-.82-.572zm-3.594 5.117l-.819-.575-.005.008-.005.008.829.559zm-1.914 1.016l-.023 1H477.303l.002-1zm-1.367-.43l-.592.806.019.014.019.013.554-.833zm15.507 4.102l.571.821.001-.001-.572-.82zm-5.117 3.554l-.57-.821-.008.006-.008.005.586.81zm-1.367.43l.017-1h-.007l-.01 1zm-1.328-4.258l-.575-.818-.002.002.577.816zm5.117-3.594l-.572-.82-.003.002.575.818zm-13.549 9.539a10.408 10.408 0 00-6.309-4.84l-.519 1.931a8.41 8.41 0 015.097 3.911l1.731-1.002zm-6.303-4.839a10.225 10.225 0 00-4.045-.278l.261 1.983a8.233 8.233 0 013.254.224l.53-1.929zm-4.045-.278a10.23 10.23 0 00-3.836 1.318l1.012 1.725a8.227 8.227 0 013.085-1.06l-.261-1.983zm-3.829 1.314a10.359 10.359 0 00-3.804 3.804l1.732.999a8.376 8.376 0 013.071-3.071l-.999-1.732zm-2.072 3.803l-6.094-10.547-1.732 1.001 6.094 10.547 1.732-1.001zm-6.093-10.546a10.377 10.377 0 00-2.669-3.047l-1.219 1.586a8.37 8.37 0 012.155 2.46l1.733-.999zm-2.669-3.047a10.386 10.386 0 00-3.632-1.794l-.519 1.932a8.357 8.357 0 012.932 1.448l1.219-1.586zm-3.632-1.794a10.383 10.383 0 00-4.043-.265l.261 1.983a8.371 8.371 0 013.263.214l.519-1.932zm-4.043-.265c-1.351.178-2.655.62-3.836 1.302l1.001 1.732a8.372 8.372 0 013.096-1.051l-.261-1.983zm-3.83 1.299a10.152 10.152 0 00-3.901 3.987l1.76.952a8.133 8.133 0 013.131-3.201l-.99-1.738zm-2.263 3.811a10.376 10.376 0 00-4.627-3.093l-.625 1.9a8.377 8.377 0 013.736 2.497l1.516-1.304zm-4.627-3.093a10.377 10.377 0 00-5.561-.256l.448 1.949a8.38 8.38 0 014.488.207l.625-1.9zm-5.561-.256a10.375 10.375 0 00-4.892 2.655l1.39 1.437a8.392 8.392 0 013.95-2.143l-.448-1.949zm-4.892 2.655a10.363 10.363 0 00-2.816 4.801l1.933.512a8.376 8.376 0 012.273-3.876l-1.39-1.437zm-2.814 4.793a10.096 10.096 0 000 5.333l1.929-.528a8.104 8.104 0 010-4.277l-1.929-.528zm.824 4.078a9.919 9.919 0 00-3.693 1.304l1.026 1.717a7.905 7.905 0 012.947-1.04l-.28-1.981zm-3.679 1.296a10.38 10.38 0 00-3.048 2.669l1.586 1.218a8.365 8.365 0 012.46-2.154l-.998-1.733zm-3.048 2.669a10.359 10.359 0 00-1.793 3.632l1.931.518a8.383 8.383 0 011.448-2.932l-1.586-1.218zm-1.793 3.632a10.36 10.36 0 00-.266 4.042l1.983-.261a8.371 8.371 0 01.214-3.263l-1.931-.518zm-.266 4.042c.178 1.352.62 2.656 1.302 3.836l1.732-1a8.37 8.37 0 01-1.051-3.097l-1.983.261zm1.304 3.838l1.406 2.422 1.729-1.004-1.406-2.422-1.729 1.004zm2.275.92a10.265 10.265 0 00-5.194 1.385l1.004 1.73a8.251 8.251 0 014.181-1.115l.009-2zm-5.195 1.385a10.419 10.419 0 00-4.822 6.304l1.932.518a8.417 8.417 0 013.896-5.093l-1.006-1.729zm-4.822 6.304a10.412 10.412 0 001.02 7.87l1.736-.993a8.417 8.417 0 01-.824-6.359l-1.932-.518zm1.022 7.873l14.453 25.039 1.732-1-14.453-25.039-1.732 1zm14.454 25.041a31.5 31.5 0 0012.712 12.139l.923-1.774a29.499 29.499 0 01-11.905-11.369l-1.73 1.004zm12.712 12.139a31.503 31.503 0 0017.238 3.44l-.171-1.993a29.5 29.5 0 01-16.144-3.221l-.923 1.774zm17.238 3.44a31.508 31.508 0 0016.398-6.33l-1.212-1.591a29.506 29.506 0 01-15.357 5.928l.171 1.993zm16.398-6.33a31.51 31.51 0 0010.455-14.13l-1.876-.694a29.508 29.508 0 01-9.791 13.233l1.212 1.591zm10.206-13.752a31.662 31.662 0 009.511-18.34l-1.978-.291a29.67 29.67 0 01-8.911 17.181l1.378 1.45zm9.511-18.34a31.664 31.664 0 00-3.824-20.303l-1.737.992a29.663 29.663 0 013.583 19.02l1.978.291zm-3.827-20.308l-6.64-11.484-1.732 1.001 6.641 11.485 1.731-1.002zm-15.681-28.105l1.64-6.054-1.93-.523-1.641 6.054 1.931.523zm1.602-5.94a1.34 1.34 0 01.647-.698l-.89-1.791a3.344 3.344 0 00-1.611 1.737l1.854.752zm.647-.698c.294-.146.631-.179.947-.094l.521-1.931a3.342 3.342 0 00-2.358.234l.89 1.791zm.947-.094c.317.085.592.284.772.557l1.67-1.101a3.345 3.345 0 00-1.921-1.387l-.521 1.931zm.772.557c.181.274.255.605.209.929l1.98.282a3.346 3.346 0 00-.519-2.312l-1.67 1.101zm.232.814l-1.601 6.055 1.933.511 1.602-6.054-1.934-.512zm-1.602 6.057c-.074.282-.24.531-.473.707l1.209 1.594a3.306 3.306 0 001.199-1.793l-1.935-.508zm-.473.707c-.232.177-.517.27-.809.266l-.032 1.999a3.302 3.302 0 002.05-.671l-1.209-1.594zm-.888.267a.51.51 0 01-.201-.026l-.644 1.893c.312.106.642.15.971.129l-.126-1.996zm-.271-.047a1.347 1.347 0 01-.82-.619l-1.723 1.015a3.344 3.344 0 002.039 1.539l.504-1.935zm-.82-.619a1.343 1.343 0 01-.143-1.016l-1.937-.498a3.34 3.34 0 00.357 2.529l1.723-1.015zm9.905 3.133l3.555-5.117-1.643-1.141-3.555 5.117 1.643 1.141zm3.554-5.116c.205-.295.52-.496.874-.559l-.351-1.969a3.351 3.351 0 00-2.164 1.385l1.641 1.143zm.874-.559c.355-.064.72.016 1.015.222l1.143-1.641a3.353 3.353 0 00-2.509-.55l.351 1.969zm1.015.222c.295.206.496.521.56.875l1.969-.352a3.359 3.359 0 00-1.386-2.164l-1.143 1.641zm.56.875c.063.354-.017.719-.223 1.014l1.641 1.144a3.36 3.36 0 00.551-2.51l-1.969.352zm-.221 1.011l-3.594 5.117 1.637 1.15 3.594-5.117-1.637-1.15zm-3.604 5.133c-.12.177-.281.322-.47.423l.937 1.766a3.302 3.302 0 001.191-1.07l-1.658-1.119zm-.47.423c-.189.1-.4.152-.614.152l-.003 2a3.3 3.3 0 001.554-.386l-.937-1.766zm-.592.152a1.577 1.577 0 01-.837-.263l-1.107 1.666a3.588 3.588 0 001.898.597l.046-2zm-.799-.236a1.38 1.38 0 01-.546-.888l-1.973.329c.145.87.625 1.649 1.336 2.171l1.183-1.612zm-.546-.888c-.059-.355.023-.72.229-1.016l-1.642-1.142a3.381 3.381 0 00-.56 2.487l1.973-.329zm14.892 4.974l-5.117 3.555 1.141 1.643 5.117-3.555-1.141-1.643zm-5.133 3.566c-.222.161-.49.245-.764.24l-.034 2a3.266 3.266 0 001.97-.619l-1.172-1.621zm-.771.24a1.348 1.348 0 01-.788-.265l-1.193 1.605a3.347 3.347 0 001.961.66l.02-2zm-.788-.265a1.349 1.349 0 01-.481-.678l-1.909.595a3.35 3.35 0 001.197 1.688l1.193-1.605zm-.481-.678a1.344 1.344 0 01.011-.832l-1.895-.642a3.347 3.347 0 00-.025 2.069l1.909-.595zm.011-.832c.091-.269.265-.502.497-.666l-1.154-1.633a3.338 3.338 0 00-1.238 1.657l1.895.642zm.495-.664l5.117-3.594-1.15-1.637-5.117 3.594 1.15 1.637zm5.114-3.592c.295-.206.66-.286 1.014-.223l.352-1.969a3.36 3.36 0 00-2.51.551l1.144 1.641zm1.014-.223c.354.064.669.265.875.56l1.641-1.143a3.359 3.359 0 00-2.164-1.386l-.352 1.969zm.875.56c.206.295.286.66.222 1.015l1.969.351a3.353 3.353 0 00-.55-2.509l-1.641 1.143zm.222 1.015a1.353 1.353 0 01-.559.874l1.143 1.641a3.351 3.351 0 001.385-2.164l-1.969-.351zm-52.097.757l-1.931-.522-.002.007-.001.007 1.934.508zm2.187-2.812l.982 1.742.009-.005.01-.006-1.001-1.731zm6.407 1.718l-1.733.999.002.004 1.731-1.003zm8.867 15.313l.39 1.962 2.741-.546-1.4-2.418-1.731 1.002zm-2.969 1.133l.97 1.749.023-.013.023-.013-1.016-1.723zm-3.437 3.437l-1.734.998 1.766 3.067 1.717-3.095-1.749-.97zm-6.094-10.586l1.733-.997-.006-.01-.005-.01-1.722 1.017zm-3.945-3.711l-1.709 1.04.294.484.504.257.911-1.781zm-.547-.898l-1.739.987.015.027.015.026 1.709-1.04zm-15.782-1.953l-1.932-.514-.001.004 1.933.51zm8.594-1.133l-1.734.997.004.007 1.73-1.004zm1.836 3.164l.364 1.967 2.79-.516-1.424-2.455-1.73 1.004zm-6.523 4.727l-1.531 1.287 1.884 2.24 1.402-2.569-1.755-.958zm-2.891-2.266l-1.727 1.008.303.52.54.266.884-1.794zm-.547-.938l-1.735.994.004.007.004.007 1.727-1.008zm35.274 62.618l.999 1.732-.999-1.732zm-35.235-9.414l-1.732.999.002.004 1.73-1.003zm-14.453-25.039l-1.732.999 1.732-.999zm8.125-4.688l-1.732 1 1.732-1zm9.375 16.25l-1.732 1 1.732-1zm2.031 1.172l.002 2h.03l-.032-2zm1.172-.313l.969 1.75.015-.008.015-.009-.999-1.733zm.86-3.203l-1.732 1.001 1.732-1.001zm-14.844-25.703l-1.732 1 1.732-1zm8.125-4.687l-1.732.999v.001l1.732-1zm14.844 25.703l1.732-1-1.732 1zm4.062-2.344l-1.732 1 1.732-1zm-11.719-20.312l-1.735.994.003.005 1.732-.999zm-.468-3.555l1.933.51.003-.008-1.936-.502zm2.187-2.852l-.986-1.74-.001.001.987 1.739zm6.406 1.719l1.733-.999-.004-.007-.004-.007-1.725 1.013zm16.407 28.438l-1.733.999.001.001 1.732-1zm2.031 1.171l.001 2h.052l-.053-2zm1.172-.312l.949 1.76.039-.021.038-.023-1.026-1.716zm.859-3.203l1.748-.972-.007-.013-.007-.013-1.734.998zm-6.25-10.86l1.734-.997-.003-.005-1.731 1.002zm1.719-6.367l.991 1.737.017-.009.016-.01-1.024-1.718zm6.367 1.68l-1.738.989.005.01 1.733-.999zm6.641 11.523l-1.733.999.002.003 1.731-1.002zm8.164 13.282l-2-.032 3.771.961-1.771-.929zm-4.102-15.625l-1.733.998.007.012 1.726-1.01zm-6.64-11.524l1.732-.998-.001-.002-1.731 1zm-3.907-3.672l-1.727 1.008.301.516.535.267.891-1.791zm-.547-.937l1.728-1.008-.005-.008-.005-.009-1.718 1.025zm-.468-3.555l1.924.544.006-.02.006-.022-1.936-.502zm2.187-2.851l-.986-1.74h-.001l.987 1.74zm6.406 1.718l1.732-1.001-.007-.011-1.725 1.012zm6.641 11.485l1.738-.99-.007-.011-1.731 1.001zm-35.647-20.416c.09-.334.246-.647.459-.92l-3.158-2.456a6.621 6.621 0 00-1.163 2.332l3.862 1.044zm.459-.92c.212-.273.477-.502.779-.672l-1.963-3.485a6.619 6.619 0 00-1.974 1.701l3.158 2.456zm.798-.683c.306-.176.643-.291.993-.337l-.521-3.966c-.872.115-1.712.4-2.473.84l2.001 3.463zm.993-.337a2.685 2.685 0 011.048.069l1.036-3.863a6.693 6.693 0 00-2.605-.172l.521 3.966zm1.048.069c.341.091.66.249.94.464l2.437-3.171a6.654 6.654 0 00-2.341-1.156l-1.036 3.863zm.94.464c.281.216.515.484.692.79l3.466-1.997a6.679 6.679 0 00-1.721-1.964l-2.437 3.171zm.694.794l8.867 15.312 3.462-2.004-8.868-15.313-3.461 2.005zm10.208 12.348a11.496 11.496 0 00-3.595 1.372l2.032 3.446a7.47 7.47 0 012.343-.894l-.78-3.924zm-3.549 1.346a10.83 10.83 0 00-4.216 4.216l3.498 1.94a6.833 6.833 0 012.658-2.658l-1.94-3.498zm-.734 4.188l-6.094-10.585-3.466 1.995 6.093 10.586 3.467-1.996zm-6.105-10.605a11.727 11.727 0 00-4.757-4.474l-1.821 3.561a7.718 7.718 0 013.134 2.948l3.444-2.035zm-3.959-3.734l-.547-.898-3.417 2.08.547.898 3.417-2.08zm-.516-.846a2.8 2.8 0 01-.274-2.097l-3.868-1.017a6.797 6.797 0 00.664 5.089l3.478-1.975zm-15.588-.451c.137-.515.424-.977.823-1.329l-2.64-3.004a6.683 6.683 0 00-2.048 3.305l3.865 1.028zm.823-1.329c.4-.351.896-.576 1.423-.646l-.522-3.965a6.681 6.681 0 00-3.541 1.607l2.64 3.004zm1.423-.646a2.7 2.7 0 011.542.255l1.772-3.586a6.687 6.687 0 00-3.836-.634l.522 3.965zm1.542.255a2.68 2.68 0 011.139 1.07l3.468-1.994a6.688 6.688 0 00-2.835-2.662l-1.772 3.586zm1.143 1.077l1.836 3.164 3.46-2.008-1.836-3.164-3.46 2.008zm3.202.193a11.39 11.39 0 00-4.605 1.974l2.347 3.24a7.362 7.362 0 012.986-1.28l-.728-3.934zm-4.605 1.974a11.375 11.375 0 00-3.31 3.761l3.511 1.917a7.378 7.378 0 012.146-2.438l-2.347-3.24zm-.024 3.432a10.957 10.957 0 00-3.537-2.772l-1.768 3.588a6.954 6.954 0 012.244 1.759l3.061-2.575zm-2.693-1.986l-.547-.937-3.455 2.015.547.938 3.455-2.016zm-.539-.924a2.728 2.728 0 01-.271-2.05l-3.867-1.02a6.724 6.724 0 00.667 5.058l3.471-1.988zm32.539 61.879a23.822 23.822 0 01-18.049 2.378l-1.032 3.864a27.818 27.818 0 0021.079-2.777l-1.998-3.465zm-18.049 2.378a23.824 23.824 0 01-14.457-11.063l-3.46 2.007a27.82 27.82 0 0016.885 12.92l1.032-3.864zm-14.455-11.059l-14.453-25.039-3.464 1.999 14.453 25.039 3.464-1.999zm-14.452-25.039a2.685 2.685 0 01-.338-.994l-3.966.521c.115.871.4 1.711.839 2.472l3.465-1.999zm-.338-.994a2.699 2.699 0 01.069-1.047l-3.863-1.037a6.693 6.693 0 00-.172 2.605l3.966-.521zm.069-1.047c.092-.341.25-.661.465-.942l-3.173-2.436a6.703 6.703 0 00-1.155 2.341l3.863 1.037zm.465-.942a2.68 2.68 0 01.789-.691l-1.999-3.465a6.699 6.699 0 00-1.963 1.72l3.173 2.436zm.789-.691c.306-.177.644-.291.994-.337l-.52-3.966a6.682 6.682 0 00-2.473.838l1.999 3.465zm.994-.337a2.683 2.683 0 011.048.069l1.036-3.864a6.687 6.687 0 00-2.604-.171l.52 3.966zm1.048.069c.341.091.661.249.941.464l2.436-3.172a6.68 6.68 0 00-2.341-1.156l-1.036 3.864zm.941.464a2.7 2.7 0 01.692.79l3.465-1.999a6.702 6.702 0 00-1.721-1.963l-2.436 3.172zm.692.79l9.375 16.25 3.464-1.999-9.375-16.25-3.464 1.999zm9.375 16.25a4.35 4.35 0 001.591 1.591l1.999-3.465a.346.346 0 01-.126-.126l-3.464 2zm1.591 1.591a4.354 4.354 0 002.174.581l-.003-4a.346.346 0 01-.172-.046l-1.999 3.465zm2.204.581a4.503 4.503 0 002.109-.563l-1.937-3.499a.508.508 0 01-.235.062l.063 4zm2.139-.58a4.349 4.349 0 001.276-1.117l-3.172-2.437a.358.358 0 01-.101.089l1.997 3.465zm1.276-1.117c.347-.453.603-.969.751-1.521l-3.864-1.036a.363.363 0 01-.059.12l3.172 2.437zm.751-1.521a4.368 4.368 0 00.111-1.692l-3.966.522a.337.337 0 01-.009.134l3.864 1.036zm.111-1.692a4.344 4.344 0 00-.546-1.606l-3.463 2.001a.354.354 0 01.043.127l3.966-.522zm-.545-1.606l-14.844-25.703-3.464 2 14.844 25.704 3.464-2.001zm-14.844-25.702a2.694 2.694 0 01-.268-2.042l-3.863-1.036a6.688 6.688 0 00.667 5.077l3.464-1.999zm-.268-2.042a2.692 2.692 0 011.254-1.633l-1.999-3.464a6.687 6.687 0 00-3.118 4.061l3.863 1.036zm1.254-1.633a2.691 2.691 0 012.041-.268l1.037-3.863a6.688 6.688 0 00-5.077.667l1.999 3.464zm2.041-.268c.69.185 1.277.636 1.634 1.254l3.464-1.999a6.687 6.687 0 00-4.061-3.118l-1.037 3.863zm1.634 1.255l14.844 25.703 3.464-2-14.844-25.704-3.464 2.001zm14.843 25.702c.285.495.665.928 1.118 1.275l2.436-3.172a.349.349 0 01-.089-.102l-3.465 1.999zm1.118 1.275c.452.348.969.603 1.52.751l1.036-3.864a.363.363 0 01-.12-.059l-2.436 3.172zm1.52.751a4.368 4.368 0 001.692.111l-.521-3.966a.342.342 0 01-.135-.009l-1.036 3.864zm1.692.111a4.342 4.342 0 001.605-.544l-1.999-3.465a.354.354 0 01-.127.043l.521 3.966zm1.605-.544a4.35 4.35 0 001.275-1.118l-3.172-2.436a.349.349 0 01-.102.089l1.999 3.465zm1.275-1.118c.348-.452.603-.969.751-1.52l-3.864-1.037a.359.359 0 01-.059.121l3.172 2.436zm.751-1.52a4.368 4.368 0 00.111-1.692l-3.966.521a.336.336 0 01-.009.134l3.864 1.037zm.111-1.692a4.336 4.336 0 00-.544-1.605l-3.465 1.999a.354.354 0 01.043.127l3.966-.521zm-.544-1.605l-11.719-20.313-3.465 1.999 11.719 20.313 3.465-1.999zm-11.716-20.307a2.73 2.73 0 01-.271-2.051l-3.867-1.02a6.727 6.727 0 00.667 5.059l3.471-1.988zm-.268-2.059a2.6 2.6 0 01.455-.933l-3.174-2.434a6.597 6.597 0 00-1.153 2.363l3.872 1.004zm.455-.933a2.61 2.61 0 01.783-.681l-1.974-3.479a6.591 6.591 0 00-1.983 1.726l3.174 2.434zm.782-.681a2.725 2.725 0 012.051-.261l1.037-3.863a6.73 6.73 0 00-5.06.644l1.972 3.48zm2.051-.261a2.723 2.723 0 011.645 1.253l3.449-2.026a6.723 6.723 0 00-4.057-3.09l-1.037 3.863zm1.637 1.24l16.406 28.437 3.465-1.999-16.406-28.437-3.465 1.999zm16.407 28.438a4.34 4.34 0 001.591 1.59l1.999-3.465a.336.336 0 01-.126-.125l-3.464 2zm1.591 1.59a4.34 4.34 0 002.173.581l-.002-4a.333.333 0 01-.172-.046l-1.999 3.465zm2.225.581a4.618 4.618 0 002.068-.552l-1.898-3.521a.61.61 0 01-.277.074l.107 3.999zm2.145-.596a4.383 4.383 0 001.984-2.625l-3.864-1.037a.376.376 0 01-.173.229l2.053 3.433zm1.984-2.625c.295-1.1.15-2.271-.403-3.266l-3.496 1.944a.378.378 0 01.035.285l3.864 1.037zm-.417-3.292l-6.25-10.859-3.467 1.995 6.25 10.859 3.467-1.995zm-6.253-10.864a2.639 2.639 0 01-.334-.982l-3.966.521c.114.869.399 1.707.838 2.466l3.462-2.005zm-.334-.982a2.643 2.643 0 01.069-1.036l-3.862-1.042a6.643 6.643 0 00-.173 2.599l3.966-.521zm.069-1.036c.091-.337.247-.653.461-.929l-3.165-2.446a6.648 6.648 0 00-1.158 2.333l3.862 1.042zm.461-.929c.214-.276.48-.508.783-.681l-1.982-3.474a6.645 6.645 0 00-1.966 1.709l3.165 2.446zm.816-.7c.298-.178.629-.294.973-.343l-.558-3.961a6.617 6.617 0 00-2.463.868l2.048 3.436zm.973-.343a2.624 2.624 0 011.029.061l1.021-3.868a6.63 6.63 0 00-2.608-.154l.558 3.961zm1.029.061c.336.089.651.243.926.455l2.439-3.17a6.61 6.61 0 00-2.344-1.153l-1.021 3.868zm.926.455c.275.212.505.476.677.778l3.476-1.978a6.595 6.595 0 00-1.714-1.97l-2.439 3.17zm.682.788l6.641 11.523 3.466-1.997-6.641-11.524-3.466 1.998zm6.643 11.526a23.74 23.74 0 012.989 8.778l3.966-.525a27.744 27.744 0 00-3.493-10.257l-3.462 2.004zm2.989 8.778c.41 3.094.206 6.238-.6 9.253l3.864 1.034a27.747 27.747 0 00.702-10.812l-3.966.525zm-.6 9.253a23.747 23.747 0 01-4.1 8.317l3.174 2.435a27.754 27.754 0 004.79-9.718l-3.864-1.034zm-4.1 8.317a23.728 23.728 0 01-6.972 6.113l1.999 3.465a27.726 27.726 0 008.147-7.143l-3.174-2.435zm13.606-14.037a32.006 32.006 0 00-4.375-16.666l-3.453 2.02a28.004 28.004 0 013.828 14.583l4 .063zm-4.369-16.655l-6.641-11.523-3.465 1.997 6.64 11.523 3.466-1.997zm-6.642-11.525a11.293 11.293 0 00-4.746-4.462l-1.783 3.581a7.292 7.292 0 013.066 2.882l3.463-2.001zm-3.91-3.679l-.547-.938-3.455 2.016.547.937 3.455-2.015zm-.557-.955a2.537 2.537 0 01-.336-.966l-3.965.523a6.53 6.53 0 00.866 2.492l3.435-2.049zm-.336-.966a2.529 2.529 0 01.074-1.02l-3.849-1.088a6.53 6.53 0 00-.19 2.631l3.965-.523zm.086-1.062c.087-.338.242-.655.455-.932l-3.174-2.435a6.597 6.597 0 00-1.153 2.363l3.872 1.004zm.455-.932c.213-.278.479-.509.783-.682l-1.974-3.479a6.62 6.62 0 00-1.983 1.726l3.174 2.435zm.782-.681a2.73 2.73 0 012.051-.262l1.037-3.863a6.725 6.725 0 00-5.06.645l1.972 3.48zm2.051-.262a2.73 2.73 0 011.645 1.253l3.449-2.025a6.729 6.729 0 00-4.057-3.091l-1.037 3.863zm1.638 1.241l6.641 11.485 3.462-2.002-6.64-11.485-3.463 2.002zm6.634 11.473a24.012 24.012 0 013.143 11.471l3.999-.069a28.013 28.013 0 00-3.666-13.381l-3.476 1.979zm3.143 11.471a24.019 24.019 0 01-2.746 11.571l3.542 1.859a28.01 28.01 0 003.203-13.499l-3.999.069z" mask="url(#b)"/>
    <g clip-path="url(#clip1_150_4)">
      <path fill="#fff" stroke="#00717B" stroke-width="3.5" d="M198.25 250c0 26.648-21.602 48.25-48.25 48.25s-48.25-21.602-48.25-48.25 21.602-48.25 48.25-48.25 48.25 21.602 48.25 48.25z"/>
      <path fill="#00717B" d="M181.048 231.165a24.861 24.861 0 01-7.133 1.955 12.454 12.454 0 005.461-6.875 24.802 24.802 0 01-7.888 3.014 12.425 12.425 0 00-20.394 3.378 12.427 12.427 0 00-.774 7.955 35.285 35.285 0 01-25.605-12.981 12.412 12.412 0 00-1.68 6.245 12.415 12.415 0 005.525 10.341 12.38 12.38 0 01-5.627-1.554v.16a12.425 12.425 0 009.966 12.181c-1.83.495-3.749.568-5.611.213a12.423 12.423 0 004.42 6.173 12.42 12.42 0 007.185 2.451 24.919 24.919 0 01-15.429 5.32 25.109 25.109 0 01-2.965-.173 35.129 35.129 0 0019.04 5.581c22.853 0 35.346-18.928 35.346-35.344 0-.533-.013-1.072-.037-1.605a25.254 25.254 0 006.195-6.427l.005-.008z"/>
    </g>
    <circle cx="250" cy="250" r="50" fill="#fff"/>
    <path fill="#00717B" d="M250 200c-27.612 0-50 22.388-50 50s22.388 50 50 50 50-22.388 50-50-22.388-50-50-50zm24.029 37.69c.033.524.033 1.071.033 1.607 0 16.384-12.477 35.257-35.279 35.257a35.16 35.16 0 01-19.04-5.558c1.005.111 1.965.156 2.991.156a24.867 24.867 0 0015.391-5.29c-5.446-.112-10.022-3.683-11.585-8.594 1.909.279 3.627.279 5.592-.223a12.388 12.388 0 01-9.922-12.166v-.156a12.39 12.39 0 005.591 1.574 12.398 12.398 0 01-5.524-10.313c0-2.31.602-4.419 1.685-6.25a35.196 35.196 0 0025.558 12.958c-1.752-8.426 4.543-15.246 12.109-15.246 3.572 0 6.786 1.496 9.052 3.907 2.801-.525 5.48-1.574 7.868-2.98a12.337 12.337 0 01-5.446 6.819c2.5-.268 4.91-.96 7.143-1.931a25.984 25.984 0 01-6.217 6.429z"/>
    <path fill="#fff" d="M46 225c0 11.598-9.402 21-21 21s-21-9.402-21-21 9.402-21 21-21 21 9.402 21 21z"/>
    <path fill="#333" d="M25 204c-11.613 0-21 9.387-21 21s9.387 21 21 21 21-9.387 21-21-9.387-21-21-21zm9.03 30.03a2.097 2.097 0 01-1.48.614 2.098 2.098 0 01-1.481-.614L25 227.961l-6.069 6.069a2.092 2.092 0 01-3.574-1.481 2.096 2.096 0 01.613-1.48L22.039 225l-6.069-6.069a2.094 2.094 0 012.961-2.961L25 222.039l6.069-6.069a2.096 2.096 0 012.961 0 2.09 2.09 0 01.454 2.282 2.09 2.09 0 01-.454.679L27.961 225l6.069 6.069c.798.798.798 2.142 0 2.961z"/>
    <path fill="#fff" d="M96 225c0 11.598-9.402 21-21 21s-21-9.402-21-21 9.402-21 21-21 21 9.402 21 21z"/>
    <path fill="#00717B" d="M75 204c-11.613 0-21 9.387-21 21s9.387 21 21 21 21-9.387 21-21-9.387-21-21-21zm9.03 30.03a2.097 2.097 0 01-1.48.614 2.098 2.098 0 01-1.481-.614L75 227.961l-6.069 6.069a2.092 2.092 0 01-3.574-1.481 2.096 2.096 0 01.613-1.48L72.039 225l-6.069-6.069a2.094 2.094 0 012.961-2.961L75 222.039l6.069-6.069a2.096 2.096 0 012.961 0 2.09 2.09 0 01.454 2.282 2.09 2.09 0 01-.454.679L77.961 225l6.069 6.069c.798.798.798 2.142 0 2.961z"/>
    <path fill="#fff" d="M46 275c0 11.598-9.402 21-21 21s-21-9.402-21-21 9.402-21 21-21 21 9.402 21 21z"/>
    <path fill="#F29E03" d="M25 254c-11.613 0-21 9.387-21 21s9.387 21 21 21 21-9.387 21-21-9.387-21-21-21zm9.03 30.03a2.097 2.097 0 01-1.48.614 2.098 2.098 0 01-1.481-.614L25 277.961l-6.069 6.069a2.092 2.092 0 01-3.574-1.481 2.096 2.096 0 01.613-1.48L22.039 275l-6.069-6.069a2.094 2.094 0 012.961-2.961L25 272.039l6.069-6.069a2.096 2.096 0 012.961 0 2.09 2.09 0 01.454 2.282 2.09 2.09 0 01-.454.679L27.961 275l6.069 6.069c.798.798.798 2.142 0 2.961z"/>
    <path fill="#333" d="M96 275c0 11.598-9.402 21-21 21s-21-9.402-21-21 9.402-21 21-21 21 9.402 21 21z"/>
    <path fill="#fff" d="M75 254c-11.613 0-21 9.387-21 21s9.387 21 21 21 21-9.387 21-21-9.387-21-21-21zm9.03 30.03a2.097 2.097 0 01-1.48.614 2.098 2.098 0 01-1.481-.614L75 277.961l-6.069 6.069a2.092 2.092 0 01-3.574-1.481 2.096 2.096 0 01.613-1.48L72.039 275l-6.069-6.069a2.094 2.094 0 012.961-2.961L75 272.039l6.069-6.069a2.096 2.096 0 012.961 0 2.09 2.09 0 01.454 2.282 2.09 2.09 0 01-.454.679L77.961 275l6.069 6.069c.798.798.798 2.142 0 2.961z"/>
    <g clip-path="url(#clip2_150_4)">
      <path fill="#fff" stroke="#00717B" stroke-width="3.5" d="M97.892 50c0 26.45-21.443 47.892-47.892 47.892C23.55 97.892 2.108 76.449 2.108 50 2.108 23.55 23.551 2.108 50 2.108c26.45 0 47.892 21.443 47.892 47.892z"/>
      <path fill="#00717B" d="M81.928 32.59V69.6a4.354 4.354 0 01-4.353 4.352H67.413V49.28L50 62.347 32.587 49.282v24.672H22.425a4.35 4.35 0 01-4.353-4.355V32.59c0-5.382 6.144-8.455 10.448-5.225l4.067 3.052L50 43.476l17.413-13.064 4.067-3.046c4.3-3.227 10.448-.156 10.448 5.226v-.002z"/>
    </g>
    <g clip-path="url(#clip3_150_4)">
      <path fill="#00717B" d="M150 100c27.614 0 50-22.386 50-50S177.614 0 150 0s-50 22.386-50 50 22.386 50 50 50z"/>
      <path fill="#fff" d="M181.928 32.59V69.6a4.348 4.348 0 01-1.275 3.077 4.354 4.354 0 01-3.078 1.275h-10.162V49.28L150 62.347l-17.413-13.064v24.672h-10.162a4.346 4.346 0 01-3.079-1.275 4.346 4.346 0 01-1.274-3.08V32.59c0-5.382 6.144-8.455 10.448-5.225L150 43.475l21.48-16.109c4.301-3.227 10.448-.156 10.448 5.226v-.002z"/>
    </g>
    <g clip-path="url(#clip4_150_4)">
      <path fill="#fff" stroke="#00717B" stroke-width="3.5" d="M250.301 98.193c26.45 0 47.892-21.442 47.892-47.892 0-26.45-21.442-47.891-47.892-47.891-26.449 0-47.891 21.442-47.891 47.891 0 26.45 21.442 47.892 47.891 47.892z"/>
      <path fill="#00717B" d="M263.372 29.698a1.247 1.247 0 00-1.248-1.247h-6.235a11.898 11.898 0 00-12.472 11.224v6.735h-6.236a1.243 1.243 0 00-1.152.77 1.242 1.242 0 00-.095.478v6.484a1.25 1.25 0 001.247 1.248h6.236v16.712a1.247 1.247 0 001.247 1.247h7.483a1.249 1.249 0 001.247-1.248V55.39h6.536a1.246 1.246 0 001.221-.922l1.796-6.486a1.254 1.254 0 00-.212-1.08 1.25 1.25 0 00-.985-.492h-8.356v-6.735a2.495 2.495 0 012.495-2.245h6.235a1.25 1.25 0 001.248-1.247v-6.485z"/>
    </g>
    <g clip-path="url(#clip5_150_4)">
      <path fill="#00717B" stroke="#00717B" stroke-width="3.5" d="M350 98.193c26.616 0 48.193-21.577 48.193-48.193 0-26.616-21.577-48.193-48.193-48.193-26.616 0-48.193 21.577-48.193 48.193 0 26.616 21.577 48.193 48.193 48.193z"/>
      <path fill="#fff" d="M363.153 29.267a1.253 1.253 0 00-1.255-1.255h-6.275a11.974 11.974 0 00-12.551 11.295v6.777h-6.274a1.257 1.257 0 00-1.256 1.256v6.525a1.257 1.257 0 001.256 1.255h6.274v16.817a1.259 1.259 0 001.256 1.255h7.53a1.257 1.257 0 001.254-1.255V55.121h6.577a1.257 1.257 0 001.229-.928l1.807-6.527a1.258 1.258 0 00-.211-1.088 1.259 1.259 0 00-.994-.494h-8.408v-6.777a2.514 2.514 0 012.511-2.259h6.275a1.253 1.253 0 001.255-1.255v-6.526z"/>
    </g>
    <g clip-path="url(#clip6_150_4)">
      <path fill="#fff" stroke="#00717B" stroke-width="3.5" d="M450 97.892c26.45 0 47.892-21.442 47.892-47.892 0-26.45-21.442-47.892-47.892-47.892-26.45 0-47.892 21.442-47.892 47.892 0 26.45 21.442 47.892 47.892 47.892z"/>
      <path fill="#00717B" d="M431.376 40.687V52.66L450 39.358l18.624 13.302V40.688L450 27.384l-18.624 13.304v-.001z"/>
      <path fill="#00717B" d="M431.376 59.313v11.972L450 57.983l18.624 13.303V59.313L450 46.01l-18.624 13.3v.003z"/>
    </g>
    <g clip-path="url(#clip7_150_4)">
      <path fill="#00717B" stroke="#00717B" stroke-width="3.5" d="M550 97.892c26.449 0 47.892-21.443 47.892-47.892 0-26.45-21.443-47.892-47.892-47.892S502.108 23.551 502.108 50c0 26.45 21.443 47.892 47.892 47.892z"/>
      <path fill="#fff" d="M531.376 40.687V52.66L550 39.358l18.624 13.302V40.688L550 27.384l-18.624 13.304v-.001z"/>
      <path fill="#fff" d="M531.376 59.313v11.972L550 57.983l18.624 13.303V59.313L550 46.01l-18.624 13.3v.003z"/>
    </g>
    <g>
      <path fill="#fff" fill-rule="evenodd" d="M639.483 77.959c-1.083.154-.003 0-.003 0h-.013l-.033.008-.121.016a27.52 27.52 0 01-1.864.154c-1.174.055-2.786.06-4.441-.178-3.296-.467-5.301-2.8-6.596-4.317l-.124-.142c-.424-.492-.88-.954-1.363-1.387.429.792.875 1.675 1.355 2.624l.04.085.214.433c.729 1.45 1.208 2.416 2.003 3.225.775.791 1.983 1.557 4.426 2.04l7.474 1.013a2.176 2.176 0 011.883 2.159v4.28c0 3.333-1.562 6.304-3.957 8.104a8.7 8.7 0 01-8.929.983C612.092 89.279 600 71.959 600 51.783c0-27.466 22.405-49.699 50-49.699s50 22.232 50 49.7c0 20.279-12.246 37.645-29.737 45.358a8.713 8.713 0 01-8.904-1.029 10.114 10.114 0 01-3.942-8.091V75.145c0-.292-.205-1.975-1.342-4.238a2.176 2.176 0 01.032-2.014 2.18 2.18 0 011.668-1.13c1.429-.16 3.837-.622 6.267-1.485 2.475-.874 4.695-2.074 6.016-3.55 1.964-2.192 2.942-3.875 3.479-5.696.558-1.887.7-4.084.7-7.47 0-4.755-2.5-8.75-3.65-10.038a2.179 2.179 0 01-.433-2.18c.583-1.64 1.292-4.195 1.563-6.474.132-1.146.141-2.105.024-2.795a1.912 1.912 0 00-.224-.722 2.026 2.026 0 00-.863.037c-.708.134-1.612.468-2.638.976-2.041 1.008-4.167 2.5-5.482 3.567a2.169 2.169 0 01-2.105.354A38.784 38.784 0 00650 30.399c-4.196.1-9.037 1.291-10.692 1.888a2.162 2.162 0 01-2.103-.354 32.388 32.388 0 00-5.485-3.567 10.868 10.868 0 00-2.64-.976 2.028 2.028 0 00-.86-.036 1.906 1.906 0 00-.224.72c-.116.691-.108 1.65.024 2.796.272 2.28.984 4.834 1.563 6.475a2.18 2.18 0 01-.434 2.18C628 40.811 625.5 44.806 625.5 49.56c0 3.384.142 5.584.7 7.47.542 1.822 1.517 3.502 3.475 5.697 1.325 1.476 3.542 2.674 6.021 3.55a29.99 29.99 0 006.262 1.483 2.172 2.172 0 011.811 2.909 2.169 2.169 0 01-.786 1.029c-.687.491-1.141 1.376-1.395 2.396a8.116 8.116 0 00-.234 1.604v.08a2.176 2.176 0 01-1.871 2.179v.001z" clip-rule="evenodd"/>
      <path fill="#00717B" fill-rule="evenodd" d="M650 6.437c-25.229 0-45.654 20.322-45.654 45.346 0 18.376 11.012 34.188 26.862 41.301 1.658.745 3.28.45 4.546-.5a5.75 5.75 0 002.217-4.613v-2.375l-5.654-.767a1.893 1.893 0 01-.125-.02c-3.117-.609-5.221-1.704-6.763-3.284-1.295-1.329-2.087-2.92-2.759-4.27l-.233-.47a48.227 48.227 0 00-2.029-3.793c-.562-.892-1-1.35-1.433-1.638-1.1-.729-2.158-1.966-2.158-3.512a3 3 0 011.083-2.334 3.518 3.518 0 012.275-.759c.925 0 1.795.285 2.52.61.742.333 1.48.775 2.168 1.233 1.674 1.116 3.325 2.437 4.72 4.067 1.454 1.692 2.483 2.766 4.034 2.988 1.275.182 2.575.187 3.587.141a10.72 10.72 0 01.691-2.334 34.781 34.781 0 01-3.653-1.066c-2.725-.966-5.762-2.471-7.805-4.75-2.241-2.51-3.629-4.746-4.403-7.362-.754-2.55-.88-5.313-.88-8.713 0-5.209 2.253-9.597 3.946-11.926a36.066 36.066 0 01-1.396-6.253 14.65 14.65 0 01.004-4.033c.209-1.222.729-2.722 2.1-3.626 1.321-.88 2.872-.842 4.08-.617 1.253.238 2.558.76 3.758 1.355 1.954.966 3.896 2.259 5.349 3.354 2.51-.738 6.947-1.687 10.959-1.775h.092c4.017.087 8.254 1.036 10.7 1.771 1.458-1.092 3.396-2.388 5.346-3.35 1.2-.596 2.5-1.117 3.759-1.355 1.207-.225 2.757-.262 4.083.614 1.366.907 1.891 2.407 2.096 3.629.212 1.27.162 2.691 0 4.032a36.08 36.08 0 01-1.393 6.254c1.692 2.334 3.946 6.722 3.946 11.926 0 3.4-.125 6.162-.875 8.708-.779 2.625-2.166 4.858-4.408 7.366-2.042 2.28-5.08 3.784-7.804 4.751a35.25 35.25 0 01-4.425 1.237c.512 1.55.695 2.804.695 3.526v12.873c0 1.958.914 3.629 2.209 4.604 1.259.954 2.876 1.25 4.533.525 16-7.05 27.141-22.904 27.141-41.375.002-25.019-20.415-45.34-45.649-45.34zM639.483 77.96c-1.083.154-.003 0-.003 0h-.013l-.033.008-.121.016a27.52 27.52 0 01-1.864.154c-1.174.055-2.786.06-4.441-.178-3.296-.467-5.301-2.8-6.596-4.317l-.124-.142c-.424-.492-.88-.954-1.363-1.387.429.792.875 1.675 1.355 2.624l.04.085.214.433c.729 1.45 1.208 2.416 2.003 3.225.775.791 1.983 1.557 4.426 2.04l7.474 1.013a2.176 2.176 0 011.883 2.159v4.28c0 3.333-1.562 6.304-3.957 8.104a8.7 8.7 0 01-8.929.983C612.092 89.279 600 71.959 600 51.783c0-27.466 22.405-49.699 50-49.699s50 22.232 50 49.7c0 20.279-12.246 37.645-29.737 45.358a8.713 8.713 0 01-8.904-1.029 10.114 10.114 0 01-3.942-8.091V75.145c0-.292-.205-1.975-1.342-4.238a2.176 2.176 0 01.032-2.014 2.18 2.18 0 011.668-1.13c1.429-.16 3.837-.622 6.267-1.485 2.475-.874 4.695-2.074 6.016-3.55 1.964-2.192 2.942-3.875 3.479-5.696.558-1.887.7-4.084.7-7.47 0-4.755-2.5-8.75-3.65-10.038a2.179 2.179 0 01-.433-2.18c.583-1.64 1.292-4.195 1.563-6.474.132-1.146.141-2.105.024-2.795a1.912 1.912 0 00-.224-.722 2.026 2.026 0 00-.863.037c-.708.134-1.612.468-2.638.976-2.041 1.008-4.167 2.5-5.482 3.567a2.169 2.169 0 01-2.105.354A38.784 38.784 0 00650 30.399c-4.196.1-9.037 1.291-10.692 1.888a2.162 2.162 0 01-2.103-.354 32.388 32.388 0 00-5.485-3.567 10.868 10.868 0 00-2.64-.976 2.028 2.028 0 00-.86-.036 1.906 1.906 0 00-.224.72c-.116.691-.108 1.65.024 2.796.272 2.28.984 4.834 1.563 6.475a2.18 2.18 0 01-.434 2.18C628 40.811 625.5 44.806 625.5 49.56c0 3.384.142 5.584.7 7.47.542 1.822 1.517 3.502 3.475 5.697 1.325 1.476 3.542 2.674 6.021 3.55a29.99 29.99 0 006.262 1.483 2.172 2.172 0 011.811 2.909 2.169 2.169 0 01-.786 1.029c-.687.491-1.141 1.376-1.395 2.396a8.116 8.116 0 00-.234 1.604v.08a2.176 2.176 0 01-1.871 2.179v.001z" clip-rule="evenodd"/>
    </g>
    <g clip-path="url(#clip8_150_4)">
      <path fill="#fff" d="M700 51.205c0-26.948 21.847-48.795 48.795-48.795h2.41C778.154 2.41 800 24.257 800 51.205 800 78.155 778.154 100 751.205 100h-2.41C721.847 100 700 78.154 700 51.205z"/>
      <path fill="#00717B" fill-rule="evenodd" d="M739.483 77.959c-1.083.154-.003 0-.003 0h-.013l-.033.008-.121.016a27.52 27.52 0 01-1.864.154c-1.174.055-2.786.06-4.441-.178-3.296-.467-5.301-2.8-6.596-4.317l-.124-.142c-.424-.492-.88-.954-1.363-1.387.429.792.875 1.675 1.355 2.624l.04.085.214.433c.729 1.45 1.208 2.416 2.003 3.225.775.791 1.983 1.557 4.426 2.04l7.474 1.013a2.176 2.176 0 011.883 2.159v4.28c0 3.333-1.562 6.304-3.957 8.104a8.7 8.7 0 01-8.929.983C712.092 89.279 700 71.959 700 51.783c0-27.466 22.405-49.699 50-49.699s50 22.232 50 49.7c0 20.279-12.246 37.645-29.737 45.358a8.713 8.713 0 01-8.904-1.029 10.114 10.114 0 01-3.942-8.091V75.145c0-.292-.205-1.975-1.342-4.238a2.188 2.188 0 01.033-2.014 2.187 2.187 0 011.667-1.13c1.429-.16 3.837-.622 6.267-1.485 2.475-.874 4.695-2.074 6.016-3.55 1.964-2.192 2.942-3.875 3.479-5.696.558-1.887.7-4.084.7-7.47 0-4.755-2.5-8.75-3.65-10.038a2.179 2.179 0 01-.433-2.18c.583-1.64 1.292-4.195 1.563-6.474.132-1.146.141-2.105.024-2.795a1.912 1.912 0 00-.224-.722 2.026 2.026 0 00-.863.037c-.708.134-1.612.468-2.638.976-2.041 1.008-4.167 2.5-5.482 3.567a2.167 2.167 0 01-2.105.354A38.788 38.788 0 00750 30.399c-4.196.1-9.037 1.291-10.692 1.888a2.162 2.162 0 01-2.103-.354 32.394 32.394 0 00-5.485-3.567 10.868 10.868 0 00-2.64-.976 2.028 2.028 0 00-.86-.036 1.906 1.906 0 00-.224.72c-.116.691-.108 1.65.024 2.796.272 2.28.984 4.834 1.563 6.475a2.18 2.18 0 01-.434 2.18C728 40.811 725.5 44.806 725.5 49.561c0 3.383.142 5.583.7 7.47.542 1.821 1.517 3.5 3.475 5.696 1.325 1.476 3.542 2.674 6.021 3.55a29.99 29.99 0 006.262 1.483 2.172 2.172 0 011.811 2.909 2.168 2.168 0 01-.786 1.029c-.687.491-1.141 1.376-1.395 2.396a8.116 8.116 0 00-.234 1.604v.08a2.178 2.178 0 01-1.871 2.18z" clip-rule="evenodd"/>
    </g>
    <g clip-path="url(#clip9_150_4)">
      <path fill="#fff" stroke="#00717B" stroke-width="3.5" d="M850 97.892c26.45 0 47.892-21.442 47.892-47.892 0-26.45-21.442-47.892-47.892-47.892-26.45 0-47.892 21.442-47.892 47.892 0 26.45 21.442 47.892 47.892 47.892z"/>
      <path fill="#00717B" d="M831.33 37.22a5.824 5.824 0 005.906-5.82 5.82 5.82 0 00-1.735-4.147 5.827 5.827 0 00-4.171-1.675 5.822 5.822 0 000 11.643zm11.318 4.413V73.93h10.029V57.958c0-4.215.793-8.297 6.018-8.297 5.153 0 5.217 4.82 5.217 8.563v15.709h10.034V56.222c0-8.702-1.874-15.388-12.042-15.388-4.882 0-8.156 2.68-9.494 5.215h-.135v-4.416h-9.627zm-16.341 0h10.044V73.93h-10.044V41.632z"/>
    </g>
    <g clip-path="url(#clip10_150_4)">
      <path fill="#00717B" stroke="#00717B" stroke-width="3.5" d="M950 97.892c26.449 0 47.892-21.443 47.892-47.892 0-26.45-21.443-47.892-47.892-47.892S902.108 23.551 902.108 50c0 26.45 21.443 47.892 47.892 47.892z"/>
      <path fill="#fff" d="M931.33 37.22a5.829 5.829 0 004.905-2.561 5.816 5.816 0 10-9.638-6.516 5.816 5.816 0 001.766 8.212 5.82 5.82 0 002.967.865zm11.318 4.413V73.93h10.029V57.958c0-4.215.793-8.297 6.018-8.297 5.153 0 5.217 4.82 5.217 8.563v15.709h10.034V56.222c0-8.702-1.874-15.388-12.042-15.388-4.882 0-8.156 2.68-9.494 5.215h-.135v-4.416h-9.627zm-16.341 0h10.044V73.93h-10.044V41.632z"/>
    </g>
    <g>
      <path fill="#F29E03" d="M75 132.563v31.612A12.5 12.5 0 1081.25 175v-62.963a4.998 4.998 0 00-6.687-4.712l-40 14.287a5 5 0 00-3.314 4.707v44.1a12.502 12.502 0 00-15.085 1.987 12.499 12.499 0 1021.336 8.845v-35.294L75 132.569v-.006z"/>
    </g>
    <g>
      <path fill="#333" d="M175 132.563v31.612a12.502 12.502 0 00-18.643 9.194 12.502 12.502 0 0022.311 9.241 12.503 12.503 0 002.583-7.61v-62.963a5.01 5.01 0 00-2.121-4.093 4.999 4.999 0 00-4.567-.619l-40 14.287a5 5 0 00-3.314 4.707v44.1a12.5 12.5 0 00-15.085 1.987 12.493 12.493 0 004.051 20.384 12.496 12.496 0 0014.699-3.933 12.493 12.493 0 002.586-7.606v-35.294l37.5-13.388v-.006z"/>
    </g>
    <g>
      <path fill="#333" d="M246.575 181.537a4.157 4.157 0 006.85 0l37.5-54.166a4.158 4.158 0 00-3.425-6.537h-75a4.18 4.18 0 00-3.681 2.237 4.17 4.17 0 00.256 4.3l37.5 54.166z"/>
    </g>
    <g>
      <path fill="#F29E03" d="M346.575 181.537a4.157 4.157 0 006.85 0l37.5-54.166a4.159 4.159 0 00.269-4.307 4.161 4.161 0 00-3.694-2.23h-75a4.169 4.169 0 00-3.683 2.236 4.173 4.173 0 00.258 4.301l37.5 54.166z"/>
    </g>
    <g>
      <path fill="#fff" d="M471.871 147.621a8.84 8.84 0 018.699 14.747l-8.699-14.747zm0 0h-.006l-.054.015a8.848 8.848 0 00-3.75 2.232l-23.209 23.21a15.43 15.43 0 00-4.056 7.167l-1.641 6.557a3.695 3.695 0 004.47 4.482l6.559-1.641a15.422 15.422 0 007.167-4.056l23.219-23.219-8.699-14.747zm-26.622-38.229h-19.344a8.512 8.512 0 00-8.513 8.513v59.554a8.51 8.51 0 008.513 8.514h8.672l1.71-6.843a20.062 20.062 0 015.279-9.322l23.214-23.214a13.405 13.405 0 017.208-3.746l.325-.056v-6.326H452.97a7.729 7.729 0 01-7.721-7.731v-19.343zm26.264 22.442l-20.974-20.974-.277.277h-.392v17.598a3.1 3.1 0 003.1 3.099h18.543z"/>
      <path stroke="#F29E03" stroke-width="2" d="M471.871 147.621a8.84 8.84 0 018.699 14.747m-8.699-14.747l8.699 14.747m-8.699-14.747h-.006l-.054.015a8.848 8.848 0 00-3.75 2.232l-23.209 23.21a15.43 15.43 0 00-4.056 7.167l-1.641 6.557a3.695 3.695 0 004.47 4.482l6.559-1.641a15.422 15.422 0 007.167-4.056l23.219-23.219m-35.321-52.976h-19.344a8.512 8.512 0 00-8.513 8.513v59.554a8.51 8.51 0 008.513 8.514h8.672l1.71-6.843a20.062 20.062 0 015.279-9.322l23.214-23.214a13.405 13.405 0 017.208-3.746l.325-.056v-6.326H452.97a7.729 7.729 0 01-7.721-7.731v-19.343zm26.264 22.442H452.97a3.1 3.1 0 01-3.1-3.099v-17.598h.392l.277-.277 20.974 20.974z"/>
    </g>
    <g clip-path="url(#clip11_150_4)">
      <path fill="#fff" stroke="#00717B" stroke-width="3" d="M779.866 101H520.134C510.119 101 502 109.501 502 119.988v60.025c0 10.486 8.119 18.987 18.134 18.987h259.732c10.015 0 18.134-8.501 18.134-18.987v-60.025c0-10.487-8.119-18.988-18.134-18.988z"/>
      <path fill="#00717B" d="M623.345 143.373v-20.557h5.643c1.741 0 3.278.396 4.615 1.186 1.336.791 2.366 1.916 3.09 3.374.733 1.46 1.103 3.135 1.112 5.026v1.314c0 1.939-.366 3.638-1.099 5.096-.723 1.46-1.762 2.581-3.117 3.361-1.345.781-2.916 1.181-4.71 1.2h-5.534zm2.636-18.325v16.109h2.774c2.032 0 3.612-.65 4.738-1.949 1.136-1.298 1.703-3.148 1.703-5.548v-1.201c0-2.334-.536-4.146-1.607-5.435-1.062-1.299-2.572-1.958-4.532-1.976h-3.076zm31.201 8.711c0 2.013-.329 3.774-.989 5.28-.658 1.496-1.592 2.641-2.8 3.431-1.21.79-2.62 1.185-4.231 1.185-1.575 0-2.971-.395-4.188-1.185-1.218-.8-2.166-1.934-2.843-3.403-.668-1.478-1.011-3.186-1.03-5.125v-1.482c0-1.977.334-3.723 1.003-5.238.668-1.516 1.611-2.674 2.829-3.474 1.227-.809 2.627-1.214 4.202-1.214 1.602 0 3.012.4 4.229 1.2 1.227.79 2.171 1.943 2.829 3.459.66 1.506.989 3.261.989 5.266v1.3zm-2.622-1.328c0-2.437-.477-4.306-1.429-5.604-.952-1.309-2.284-1.964-3.996-1.964-1.666 0-2.98.655-3.942 1.964-.952 1.298-1.441 3.106-1.468 5.421v1.511c0 2.361.48 4.221 1.441 5.576.97 1.347 2.303 2.019 3.996 2.019 1.703 0 3.021-.635 3.955-1.906.934-1.279 1.415-3.111 1.443-5.491v-1.526zm10.89 4.462l.384 2.711.563-2.443 3.955-14.345h2.225l3.859 14.345.549 2.485.426-2.768 3.103-14.062h2.651l-4.848 20.557h-2.403l-4.119-14.98-.317-1.566-.315 1.566-4.272 14.98h-2.403l-4.834-20.557h2.637l3.159 14.077zm36.021 6.48h-2.651l-10.066-15.84v15.84h-2.65v-20.557h2.65l10.094 15.912v-15.91h2.623v20.555zm7.334-2.216h9.475v2.216h-12.126v-20.557h2.651v18.341zm26.958-7.398c0 2.013-.331 3.774-.99 5.28-.659 1.496-1.593 2.641-2.802 3.431-1.208.79-2.617 1.185-4.229 1.185-1.575 0-2.971-.395-4.188-1.185-1.218-.8-2.166-1.934-2.843-3.403-.668-1.478-1.011-3.186-1.03-5.125v-1.482c0-1.977.334-3.723 1.002-5.238.669-1.516 1.611-2.674 2.829-3.474 1.227-.809 2.628-1.214 4.202-1.214 1.603 0 3.013.4 4.231 1.2 1.226.79 2.169 1.943 2.828 3.459.659 1.506.99 3.261.99 5.266v1.3zm-2.624-1.328c0-2.437-.476-4.306-1.428-5.604-.952-1.309-2.285-1.964-3.997-1.964-1.665 0-2.98.655-3.941 1.964-.952 1.298-1.441 3.106-1.469 5.421v1.511c0 2.361.48 4.221 1.442 5.576.97 1.347 2.303 2.019 3.996 2.019 1.703 0 3.021-.635 3.955-1.906.934-1.279 1.415-3.111 1.442-5.491v-1.526zm17.318 5.577h-8.378l-1.881 5.365h-2.72l7.636-20.557h2.307l7.649 20.557h-2.704l-1.909-5.365zm-7.581-2.231h6.798l-3.407-9.614-3.391 9.614zm14.886 7.596v-20.557h5.644c1.74 0 3.278.396 4.615 1.186 1.337.791 2.366 1.916 3.09 3.374.732 1.46 1.103 3.135 1.112 5.026v1.314c0 1.939-.367 3.638-1.099 5.096-.723 1.46-1.763 2.581-3.117 3.361-1.346.781-2.916 1.181-4.71 1.2h-5.535zm2.637-18.325v16.109h2.774c2.033 0 3.611-.65 4.738-1.949 1.135-1.298 1.702-3.148 1.702-5.548v-1.201c0-2.334-.535-4.146-1.606-5.435-1.062-1.299-2.573-1.958-4.532-1.976h-3.076zm-99.344 31.504l6.537 16.772 6.537-16.773h3.419v20.557h-2.636v-8.006l.247-8.639-6.565 16.645h-2.018l-6.551-16.603.261 8.597v8.006h-2.637v-20.557l3.406.001zm26.861 10.32l5.22-10.32h2.993l-6.895 12.89v7.666h-2.636v-7.666l-6.893-12.891h3.021l5.19 10.321zm32.479 3.714c-.248 2.174-1.031 3.855-2.349 5.041-1.309 1.175-3.053 1.763-5.231 1.763-2.363 0-4.258-.87-5.686-2.612-1.419-1.741-2.128-4.071-2.128-6.988v-1.977c0-1.911.329-3.59.988-5.041.669-1.449 1.611-2.56 2.829-3.331 1.217-.782 2.628-1.172 4.23-1.172 2.123 0 3.826.612 5.108 1.836 1.282 1.213 2.029 2.899 2.239 5.054h-2.65c-.23-1.639-.728-2.824-1.498-3.558-.759-.735-1.826-1.101-3.199-1.101-1.685 0-3.008.639-3.969 1.919-.952 1.281-1.429 3.103-1.429 5.465v1.991c0 2.231.454 4.005 1.36 5.323.907 1.318 2.175 1.975 3.805 1.975 1.465 0 2.586-.337 3.364-1.015.788-.687 1.309-1.878 1.566-3.572h2.65zm10.231 2.922l5.713-16.957h2.884l-7.416 20.557h-2.335l-7.402-20.557h2.87l5.686 16.957zM500 118c0-9.941 8.059-18 18-18h81.609v100H521c-11.598 0-21-9.402-21-21v-61z"/>
      <path fill="#fff" d="M565.332 138.012h-9.316v-19.157h-12.422v19.157h-9.317l15.528 15.964 15.527-15.964zm13.471 20.855c-.652-.715-5.003-5.501-6.245-6.749a4.602 4.602 0 00-3.236-1.335h-5.456l9.516 9.559h-11.007a.838.838 0 00-.428.11.87.87 0 00-.317.315l-2.535 5.98h-18.582l-2.535-5.98a.868.868 0 00-.317-.314.84.84 0 00-.428-.111h-11.005l9.512-9.559h-5.454a4.612 4.612 0 00-3.236 1.335c-1.242 1.251-5.593 6.036-6.246 6.749-1.517 1.663-2.353 2.988-1.956 4.627l1.743 9.814c.398 1.641 2.146 2.988 3.888 2.988h50.657c1.741 0 3.49-1.347 3.887-2.988l1.743-9.814c.391-1.639-.441-2.964-1.963-4.627z"/>
    </g>
    <g clip-path="url(#clip12_150_4)">
      <path fill="#fff" stroke="#00717B" stroke-width="3" d="M779.866 201H520.134C510.12 201 502 209.501 502 219.988v60.025c0 10.486 8.12 18.987 18.134 18.987h259.732C789.88 299 798 290.499 798 280.013v-60.025c0-10.487-8.12-18.988-18.134-18.988z"/>
      <path fill="#00717B" d="M623.345 243.373v-20.557h5.643c1.741 0 3.278.396 4.615 1.186 1.336.791 2.366 1.916 3.09 3.374.733 1.46 1.103 3.135 1.112 5.026v1.314c0 1.939-.366 3.638-1.099 5.096-.723 1.46-1.762 2.581-3.117 3.361-1.345.781-2.916 1.181-4.71 1.2h-5.534zm2.636-18.325v16.109h2.774c2.032 0 3.612-.65 4.738-1.949 1.136-1.298 1.703-3.148 1.703-5.548v-1.201c0-2.334-.536-4.146-1.607-5.435-1.062-1.299-2.572-1.958-4.532-1.976h-3.076zm31.201 8.711c0 2.013-.329 3.774-.989 5.28-.658 1.496-1.592 2.641-2.8 3.431-1.21.79-2.62 1.185-4.231 1.185-1.575 0-2.971-.395-4.188-1.185-1.218-.8-2.166-1.934-2.843-3.403-.668-1.478-1.011-3.186-1.03-5.125v-1.482c0-1.977.334-3.723 1.003-5.238.668-1.516 1.611-2.674 2.829-3.474 1.227-.809 2.627-1.214 4.202-1.214 1.602 0 3.012.4 4.229 1.2 1.227.79 2.171 1.943 2.829 3.459.66 1.506.989 3.261.989 5.266v1.3zm-2.622-1.328c0-2.437-.477-4.306-1.429-5.604-.953-1.309-2.284-1.964-3.996-1.964-1.666 0-2.98.655-3.942 1.964-.952 1.298-1.441 3.106-1.468 5.421v1.511c0 2.361.48 4.221 1.441 5.576.97 1.347 2.303 2.019 3.996 2.019 1.703 0 3.021-.635 3.955-1.906.934-1.279 1.415-3.111 1.443-5.491v-1.526zm10.89 4.462l.384 2.711.563-2.443 3.955-14.345h2.225l3.859 14.345.549 2.485.426-2.768 3.103-14.062h2.651l-4.848 20.557h-2.403l-4.119-14.98-.317-1.566-.315 1.566-4.272 14.98h-2.403l-4.834-20.557h2.637l3.159 14.077zm36.021 6.48h-2.651l-10.066-15.84v15.84h-2.65v-20.557h2.65l10.094 15.912v-15.91h2.623v20.555zm7.334-2.216h9.475v2.216h-12.126v-20.557h2.651v18.341zm26.957-7.398c0 2.013-.33 3.774-.989 5.28-.659 1.496-1.593 2.641-2.802 3.431-1.208.79-2.618 1.185-4.229 1.185-1.575 0-2.971-.395-4.188-1.185-1.218-.8-2.166-1.934-2.843-3.403-.668-1.478-1.011-3.186-1.03-5.125v-1.482c0-1.977.334-3.723 1.002-5.238.669-1.516 1.611-2.674 2.829-3.474 1.227-.809 2.628-1.214 4.202-1.214 1.603 0 3.013.4 4.231 1.2 1.226.79 2.169 1.943 2.828 3.459.659 1.506.989 3.261.989 5.266v1.3zm-2.623-1.328c0-2.437-.476-4.306-1.428-5.604-.952-1.309-2.285-1.964-3.997-1.964-1.665 0-2.98.655-3.941 1.964-.952 1.298-1.441 3.106-1.47 5.421v1.511c0 2.361.481 4.221 1.443 5.576.97 1.347 2.303 2.019 3.996 2.019 1.703 0 3.021-.635 3.955-1.906.934-1.279 1.415-3.111 1.442-5.491v-1.526zm17.318 5.577h-8.378l-1.881 5.365h-2.72l7.636-20.557h2.307l7.649 20.557h-2.704l-1.909-5.365zm-7.581-2.231h6.798l-3.407-9.614-3.391 9.614zm14.886 7.596v-20.557h5.644c1.74 0 3.278.396 4.615 1.186 1.337.791 2.366 1.916 3.09 3.374.732 1.46 1.103 3.135 1.112 5.026v1.314c0 1.939-.367 3.638-1.099 5.096-.723 1.46-1.763 2.581-3.117 3.361-1.346.781-2.916 1.181-4.71 1.2h-5.535zm2.637-18.325v16.109h2.774c2.033 0 3.611-.65 4.738-1.949 1.135-1.298 1.702-3.148 1.702-5.548v-1.201c0-2.334-.535-4.146-1.606-5.435-1.062-1.299-2.573-1.958-4.532-1.976h-3.076zm-99.344 31.504l6.537 16.772 6.537-16.773h3.419v20.557h-2.636v-8.006l.247-8.639-6.565 16.645h-2.018l-6.551-16.603.261 8.597v8.006h-2.637v-20.557l3.406.001zm26.861 10.32l5.22-10.32h2.993l-6.895 12.89v7.666h-2.636v-7.666l-6.893-12.891h3.021l5.19 10.321zm32.479 3.714c-.248 2.174-1.031 3.855-2.349 5.041-1.309 1.175-3.053 1.763-5.231 1.763-2.363 0-4.258-.87-5.686-2.612-1.419-1.741-2.128-4.071-2.128-6.988v-1.977c0-1.911.329-3.59.988-5.041.669-1.449 1.611-2.56 2.829-3.331 1.217-.782 2.628-1.172 4.23-1.172 2.123 0 3.826.612 5.108 1.836 1.282 1.213 2.029 2.899 2.239 5.054h-2.65c-.23-1.639-.728-2.824-1.498-3.558-.759-.735-1.826-1.101-3.199-1.101-1.685 0-3.008.639-3.969 1.919-.952 1.281-1.429 3.103-1.429 5.465v1.991c0 2.231.454 4.005 1.36 5.323.907 1.318 2.175 1.976 3.805 1.976 1.465 0 2.586-.338 3.364-1.016.788-.687 1.309-1.878 1.566-3.572h2.65zm10.231 2.922l5.713-16.957h2.884l-7.416 20.557h-2.335l-7.402-20.557h2.87l5.686 16.957zm68.788-47.002c0-14.639-11.543-26.506-25.781-26.506H599.609v100h174.024c14.238 0 25.781-11.867 25.781-26.506v-46.988zm-234.082 11.506h-9.316v-19.157h-12.422v19.157h-9.317l15.528 15.964 15.527-15.964zm13.471 20.855c-.652-.715-5.003-5.501-6.245-6.749a4.604 4.604 0 00-3.236-1.335h-5.456l9.516 9.559h-11.007a.838.838 0 00-.428.11.87.87 0 00-.317.315l-2.535 5.98h-18.582l-2.535-5.98a.868.868 0 00-.317-.314.84.84 0 00-.428-.111h-11.005l9.512-9.559h-5.454a4.612 4.612 0 00-3.236 1.335c-1.242 1.251-5.593 6.036-6.246 6.749-1.517 1.663-2.353 2.988-1.956 4.627l1.743 9.814c.398 1.641 2.146 2.988 3.888 2.988h50.657c1.741 0 3.49-1.347 3.887-2.988l1.743-9.814c.391-1.639-.441-2.964-1.963-4.627z"/>
    </g>
    <g>
      <path fill="#fff" d="M900 100c-55.229 0-100 44.771-100 100s44.771 100 100 100 100-44.771 100-100-44.771-100-100-100z"/>
      <path fill="#F29E03" d="M900 100c-55.229 0-100 44.771-100 100s44.771 100 100 100 100-44.771 100-100-44.771-100-100-100zm-67.114 73.242h134.228v53.516H832.886v-53.516z"/>
    </g>
  </g>
  <defs>
    <clipPath id="clip0_150_4">
      <path fill="#fff" d="M0 0h1000v400H0z"/>
    </clipPath>
    <clipPath id="clip1_150_4">
      <path fill="#fff" d="M0 0h100v100H0z" transform="translate(100 200)"/>
    </clipPath>
    <clipPath id="clip2_150_4">
      <path fill="#fff" d="M0 0h100v100H0z"/>
    </clipPath>
    <clipPath id="clip3_150_4">
      <path fill="#fff" d="M0 0h100v100H0z" transform="translate(100)"/>
    </clipPath>
    <clipPath id="clip4_150_4">
      <path fill="#fff" d="M0 0h100v100H0z" transform="translate(200)"/>
    </clipPath>
    <clipPath id="clip5_150_4">
      <path fill="#fff" d="M0 0h100v100H0z" transform="translate(300)"/>
    </clipPath>
    <clipPath id="clip6_150_4">
      <path fill="#fff" d="M0 0h100v100H0z" transform="translate(400)"/>
    </clipPath>
    <clipPath id="clip7_150_4">
      <path fill="#fff" d="M0 0h100v100H0z" transform="translate(500)"/>
    </clipPath>
    <clipPath id="clip8_150_4">
      <path fill="#fff" d="M0 0h100v100H0z" transform="translate(700)"/>
    </clipPath>
    <clipPath id="clip9_150_4">
      <path fill="#fff" d="M0 0h100v100H0z" transform="translate(800)"/>
    </clipPath>
    <clipPath id="clip10_150_4">
      <path fill="#fff" d="M0 0h100v100H0z" transform="translate(900)"/>
    </clipPath>
    <clipPath id="clip11_150_4">
      <path fill="#fff" d="M0 0h300v100H0z" transform="translate(500 100)"/>
    </clipPath>
    <clipPath id="clip12_150_4">
      <path fill="#fff" d="M0 0h300v100H0z" transform="translate(500 200)"/>
    </clipPath>
  </defs>
</svg>
