<svg xmlns="http://www.w3.org/2000/svg" width="83" height="83" fill="none" viewBox="0 0 83 83">
  <path fill="#fff" d="M0 0h83v83H0z"/>
  <path fill="#00717B" fill-rule="evenodd" d="M32.771 64.706c-.899.128-.003 0-.003 0h-.01l-.028.007-.1.013c-.514.06-1.03.103-1.547.128-.975.045-2.313.049-3.686-.148-2.736-.388-4.4-2.324-5.475-3.583l-.103-.118a12.54 12.54 0 00-1.131-1.151c.356.657.726 1.39 1.124 2.178l.034.07.177.36c.605 1.203 1.003 2.005 1.663 2.676.643.657 1.646 1.293 3.673 1.694l6.204.84a1.805 1.805 0 011.563 1.792v3.552c0 2.767-1.297 5.233-3.285 6.727a7.218 7.218 0 01-7.411.816C10.036 74.102 0 59.726 0 42.98 0 20.183 18.596 1.73 41.5 1.73S83 20.182 83 42.98c0 16.832-10.164 31.246-24.682 37.648a7.23 7.23 0 01-7.39-.854 8.39 8.39 0 01-3.272-6.716V62.37c0-.242-.17-1.639-1.114-3.517a1.813 1.813 0 011.411-2.61c1.186-.132 3.185-.516 5.202-1.232 2.054-.726 3.897-1.722 4.993-2.947 1.63-1.819 2.442-3.216 2.888-4.727.463-1.567.581-3.39.581-6.2 0-3.947-2.075-7.263-3.03-8.332a1.81 1.81 0 01-.359-1.809c.484-1.362 1.072-3.482 1.297-5.374.11-.951.117-1.747.02-2.32a1.579 1.579 0 00-.186-.599 1.68 1.68 0 00-.716.031c-.588.111-1.338.388-2.19.81-1.694.836-3.458 2.074-4.55 2.96a1.797 1.797 0 01-1.747.294 32.186 32.186 0 00-8.656-1.567c-3.483.083-7.501 1.072-8.874 1.567a1.797 1.797 0 01-1.746-.294 26.896 26.896 0 00-4.552-2.96 9.02 9.02 0 00-2.192-.81 1.68 1.68 0 00-.713-.03 1.576 1.576 0 00-.186.598c-.097.573-.09 1.369.02 2.32.225 1.892.816 4.012 1.297 5.374a1.81 1.81 0 01-.36 1.809c-.954 1.069-3.029 4.385-3.029 8.331 0 2.808.118 4.634.581 6.2.45 1.512 1.259 2.906 2.884 4.728 1.1 1.225 2.94 2.22 4.998 2.947a24.883 24.883 0 005.197 1.231 1.805 1.805 0 01.851 3.268c-.57.408-.947 1.142-1.158 1.989a6.723 6.723 0 00-.194 1.331v.066a1.809 1.809 0 01-1.553 1.81z" clip-rule="evenodd"/>
</svg>
