<svg xmlns="http://www.w3.org/2000/svg" width="900" height="200" fill="none" viewBox="0 0 900 200">
  <path fill="#00717B" stroke="#fff" stroke-width="2" d="M46 15v-1H23c-7.72 0-14 6.18-14 13.83v33.55c0 7.65 6.28 13.83 14 13.83h2V85.071a5.89 5.89 0 001.198 3.554l.003.003a6.045 6.045 0 008.387 1.192h0L54.38 75.21H77c7.72 0 14-6.175 14-13.83V48.526l-1.2.244c-.743.152-1.511.23-2.3.23H84v12.38c0 3.702-3.062 6.83-7 6.83H52.075l-.264.196L32 83.032V68.21h-9c-3.938 0-7-3.127-7-6.83V27.83c0-3.702 3.062-6.83 7-6.83h23v-6zM57.5 4a8.5 8.5 0 00-8.5 8.5v25a8.5 8.5 0 008.5 8.5h30a8.5 8.5 0 008.5-8.5v-25A8.5 8.5 0 0087.5 4h-30zm5 27h20a1.5 1.5 0 110 3h-20a1.5 1.5 0 110-3zM61 17.5a1.5 1.5 0 011.5-1.5h20a1.5 1.5 0 110 3h-20a1.5 1.5 0 01-1.5-1.5z"/>
  <path fill="#F29E03" stroke="#fff" stroke-width="2" d="M146 15v-1h-23c-7.72 0-14 6.18-14 13.83v33.55c0 7.65 6.28 13.83 14 13.83h2V85.071a5.897 5.897 0 001.198 3.554l.003.003a6.044 6.044 0 008.387 1.192h.001l19.79-14.61H177c7.72 0 14-6.175 14-13.83V48.526l-1.2.244c-.743.152-1.512.23-2.3.23H184v12.38c0 3.702-3.062 6.83-7 6.83h-24.924l-.265.196L132 83.032V68.21h-9c-3.938 0-7-3.127-7-6.83V27.83c0-3.702 3.062-6.83 7-6.83h23v-6zm11.5-11a8.5 8.5 0 00-8.5 8.5v25a8.5 8.5 0 008.5 8.5h30a8.5 8.5 0 008.5-8.5v-25a8.5 8.5 0 00-8.5-8.5h-30zm5 27h20a1.502 1.502 0 011.061 2.56c-.282.282-.663.44-1.061.44h-20a1.502 1.502 0 01-1.061-2.56c.282-.282.663-.44 1.061-.44zM161 17.5a1.501 1.501 0 011.5-1.5h20a1.502 1.502 0 011.061 2.56c-.282.282-.663.44-1.061.44h-20a1.502 1.502 0 01-1.5-1.5z"/>
  <path fill="#00717B" stroke="#fff" stroke-width="2" d="M227.265 43.066l-1.04-.032-.667-.668-9.915 9.915a22.683 22.683 0 000 32.076 22.683 22.683 0 0032.076 0h0l13.21-13.217a22.68 22.68 0 00-6.26-36.499l-.638-.305-.5.5-4.234 4.235h-.001a8.261 8.261 0 00-1.267 1.637l-.655 1.113 1.24.356a13.453 13.453 0 015.792 22.446h-.001l-13.202 13.21s0 0 0 0a13.462 13.462 0 01-19.037-19.035s0 0 0 0l5.731-5.724.408-.408-.149-.557a28.015 28.015 0 01-.914-8.598l.023-.023v-.422zm11.813-14.213h0a22.68 22.68 0 006.26 36.499l.638.305.5-.501 5.601-5.608 1.223-1.224-1.672-.448a13.453 13.453 0 01-6.026-22.507h0l13.202-13.21s0 0 0 0a13.464 13.464 0 0119.037 0 13.462 13.462 0 010 19.037l-5.73 5.723-.409.407.149.558a28.04 28.04 0 01.893 8.98l-.165 2.64 1.87-1.87 9.915-9.915a22.679 22.679 0 000-32.076 22.68 22.68 0 00-32.076 0l-13.21 13.21z"/>
  <path fill="#F29E03" stroke="#fff" stroke-width="2" d="M327.265 43.066l-1.04-.032-.667-.668-9.915 9.915a22.683 22.683 0 000 32.076 22.683 22.683 0 0032.076 0h0l13.21-13.217a22.68 22.68 0 00-6.26-36.499l-.638-.305-.5.5-4.234 4.235h-.001a8.261 8.261 0 00-1.267 1.637l-.655 1.113 1.24.356a13.453 13.453 0 015.792 22.446h-.001l-13.202 13.21s0 0 0 0a13.462 13.462 0 01-19.037-19.035s0 0 0 0l5.731-5.724.408-.408-.149-.557a28.015 28.015 0 01-.914-8.598l.023-.023v-.422zm11.813-14.213h0a22.68 22.68 0 006.26 36.499l.638.305.5-.501 5.601-5.608 1.223-1.224-1.672-.448a13.453 13.453 0 01-6.026-22.507h0l13.202-13.21s0 0 0 0a13.464 13.464 0 0119.037 0 13.462 13.462 0 010 19.037l-5.73 5.723-.409.407.149.558a28.04 28.04 0 01.893 8.98l-.165 2.64 1.87-1.87 9.915-9.915a22.679 22.679 0 000-32.076 22.68 22.68 0 00-32.076 0l-13.21 13.21z"/>
  <path fill="#fff" stroke="#fff" stroke-width="2" d="M476.874 27.072h0a11.165 11.165 0 00-6.777-5.191 11 11 0 00-8.453 1.113c-.861.483-1.65 1.08-2.345 1.776l-4.768-8.242v-.001a11.166 11.166 0 00-6.763-5.214 11.149 11.149 0 00-8.469 1.096h0l-.008.004a11.584 11.584 0 00-2.92 2.435 10.842 10.842 0 00-3.936-1.914 11.002 11.002 0 00-8.454 1.118 11.169 11.169 0 00-5.188 6.774 10.763 10.763 0 00-.34 3.915c-.746.244-1.467.56-2.153.944l-.007.004-.006.004a11.195 11.195 0 00-4.075 15.27h0l.004.008.062.104c-.952.251-1.866.636-2.715 1.144a11.157 11.157 0 00-4.07 15.229h0l14.454 25.039h0A32.288 32.288 0 00464.006 94.3a31.86 31.86 0 0013.992-16.437 32.21 32.21 0 005.516-39.306s0 0 0 0l-6.64-11.485zm-9.491-11.894l.084.023.087.008.82.078.044.004h.044a4.085 4.085 0 003.981-3.046l.001-.005 1.639-6.046.001-.006a4.118 4.118 0 00-.423-3.134 4.125 4.125 0 00-4.123-2.017 4.13 4.13 0 00-3.442 3.038l-1.6 6.05-.001.002a4.125 4.125 0 002.888 5.05zm11.129-6.893l-.002.002-3.594 5.117-.005.007a4.13 4.13 0 001.026 5.72 4.088 4.088 0 005.734-.985l.002-.002 3.585-5.106.003-.004a4.116 4.116 0 00.711-3.088 4.133 4.133 0 00-1.693-2.683h0l-.01-.007a4.162 4.162 0 00-5.757 1.029zm9.801 18.563l.014-.01.013-.01 5.118-3.593.002-.002a4.161 4.161 0 001.028-5.758h.001l-.007-.009a4.125 4.125 0 00-5.771-.983l-.004.003-5.11 3.589-.008.006a4.124 4.124 0 002.372 7.476h.02a4.36 4.36 0 002.332-.71z"/>
  <path fill="#00717B" d="M470.918 75.542a27.932 27.932 0 00-2.227-23.243l-6.64-11.523a7.11 7.11 0 00-3.555-3.047 7.03 7.03 0 00-8.594 10.078L439.746 30.23a6.988 6.988 0 00-3.594-3.047 7.03 7.03 0 00-8.593 10.078l-3.125-5.39a6.875 6.875 0 00-3.555-3.047l-.938-1.602a7.035 7.035 0 0112.188-7.031l3.125 5.43a7.043 7.043 0 01-.701-5.339 7.023 7.023 0 013.279-4.27 7.035 7.035 0 019.609 2.578l10.157 17.578a7.025 7.025 0 01-.701-5.339 7.034 7.034 0 0112.888-1.693l6.641 11.485a28.167 28.167 0 01-5.508 34.922z" opacity=".2"/>
  <path fill="#00717B" d="M476.008 27.573a10.156 10.156 0 00-6.172-4.727 10.001 10.001 0 00-7.695 1.016 9.722 9.722 0 00-3.008 2.617l-5.469-9.453a10.16 10.16 0 00-10.111-5.016 10.159 10.159 0 00-3.756 1.266 10.578 10.578 0 00-3.281 3.008 9.849 9.849 0 00-4.336-2.383 10.001 10.001 0 00-7.695 1.016 10.155 10.155 0 00-4.727 6.171 9.757 9.757 0 00-.195 4.375c-.97.238-1.903.606-2.774 1.094a10.195 10.195 0 00-3.711 13.907l.782 1.328a9.498 9.498 0 00-3.79 1.289 10.153 10.153 0 00-3.71 13.867l14.453 25.039a31.288 31.288 0 0042.695 11.445A30.86 30.86 0 00477.141 77.3a31.213 31.213 0 005.508-38.242l-6.641-11.484zm-33.086-8.867a3.904 3.904 0 015.352 1.445l8.32 14.414c-.749.232-1.469.546-2.149.938a10.303 10.303 0 00-3.007 2.617l-5.469-9.453a10.001 10.001 0 00-4.063-3.907l-.429-.703a3.948 3.948 0 011.445-5.351zm-15.312 1.601a3.944 3.944 0 015.351 1.446l1.289 2.265c-.746.24-1.466.553-2.148.938a9.769 9.769 0 00-3.282 3.008 9.904 9.904 0 00-2.226-1.563l-.391-.742a3.903 3.903 0 01-.408-2.968 3.918 3.918 0 011.815-2.384zm44.414 52.54a24.74 24.74 0 01-11.641 15.156 25.002 25.002 0 01-34.141-9.141l-14.453-25.04a3.904 3.904 0 01.269-4.333 3.903 3.903 0 014.106-1.408 4.023 4.023 0 012.383 1.836l9.375 16.25a3.2 3.2 0 002.695 1.562 3.126 3.126 0 002.696-4.687l-14.844-25.703a3.92 3.92 0 116.797-3.907l14.844 25.703a3.126 3.126 0 105.39-3.125l-11.719-20.312a3.944 3.944 0 011.446-5.352 3.906 3.906 0 015.312 1.446l16.406 28.437a3.207 3.207 0 002.735 1.563 3.358 3.358 0 001.562-.43 3.125 3.125 0 001.133-4.258l-6.25-10.86a3.866 3.866 0 01-.39-2.929 3.734 3.734 0 011.835-2.383 3.678 3.678 0 012.93-.39 3.828 3.828 0 012.383 1.797l6.641 11.523a24.816 24.816 0 012.5 18.984zm6.953-9.454a30.828 30.828 0 00-4.024-12.656l-6.64-11.523a10.277 10.277 0 00-4.063-3.907l-.43-.703a3.946 3.946 0 01-.39-2.969 4.024 4.024 0 011.836-2.382 3.865 3.865 0 015.312 1.445l6.641 11.484a25.044 25.044 0 011.758 21.211zm-13.516-53.008l1.602-6.054a3.117 3.117 0 011.453-1.906 3.128 3.128 0 014.281 1.132 3.127 3.127 0 01.32 2.375l-1.64 6.055a3.087 3.087 0 01-3.008 2.305l-.82-.079a3.124 3.124 0 01-2.188-3.828zm10.274 3.594l3.593-5.117a3.165 3.165 0 014.375-.781 3.117 3.117 0 011.283 2.033 3.12 3.12 0 01-.541 2.342l-3.593 5.117a3.085 3.085 0 01-4.336.742 3.122 3.122 0 01-.781-4.336zm17.148 8.438l-5.117 3.593a3.36 3.36 0 01-1.797.547 3.125 3.125 0 01-1.797-5.664l5.117-3.594a3.129 3.129 0 013.487-.102c.349.22.651.507.888.845a3.165 3.165 0 01-.781 4.375z"/>
  <path fill="#fff" stroke="#fff" stroke-width="2" d="M576.874 27.072h0a11.165 11.165 0 00-6.777-5.191 11 11 0 00-8.453 1.113c-.861.483-1.65 1.08-2.345 1.776l-4.768-8.242v-.001a11.166 11.166 0 00-6.763-5.214 11.149 11.149 0 00-8.469 1.096h0l-.008.004a11.584 11.584 0 00-2.92 2.435 10.842 10.842 0 00-3.936-1.914 11.002 11.002 0 00-8.454 1.118 11.169 11.169 0 00-5.188 6.774 10.763 10.763 0 00-.34 3.915c-.746.244-1.467.56-2.153.944l-.007.004-.006.004a11.195 11.195 0 00-4.075 15.27h0l.004.008.062.104c-.952.251-1.866.636-2.715 1.144a11.157 11.157 0 00-4.07 15.229h0l14.454 25.039h0A32.288 32.288 0 00564.006 94.3a31.86 31.86 0 0013.992-16.437 32.21 32.21 0 005.516-39.306s0 0 0 0l-6.64-11.485zm-9.491-11.894l.084.023.087.008.82.078.044.004h.044a4.085 4.085 0 003.981-3.046l.001-.005 1.639-6.046.001-.006a4.118 4.118 0 00-.423-3.134 4.125 4.125 0 00-4.123-2.017 4.13 4.13 0 00-3.442 3.038l-1.6 6.05-.001.002a4.125 4.125 0 002.888 5.05zm11.129-6.893l-.002.002-3.594 5.117-.005.007a4.13 4.13 0 001.026 5.72 4.088 4.088 0 005.734-.985l.002-.002 3.585-5.106.003-.004a4.116 4.116 0 00.711-3.088 4.133 4.133 0 00-1.693-2.683h0l-.01-.007a4.162 4.162 0 00-5.757 1.029zm9.801 18.563l.014-.01.013-.01 5.118-3.593.002-.002a4.161 4.161 0 001.028-5.758h.001l-.007-.009a4.125 4.125 0 00-5.771-.983l-.004.003-5.11 3.589-.008.006a4.124 4.124 0 002.372 7.476h.02a4.36 4.36 0 002.332-.71z"/>
  <path fill="#F29E03" d="M570.918 75.542a27.932 27.932 0 00-2.227-23.243l-6.64-11.523a7.11 7.11 0 00-3.555-3.047 7.03 7.03 0 00-8.594 10.078L539.746 30.23a6.988 6.988 0 00-3.594-3.047 7.03 7.03 0 00-8.593 10.078l-3.125-5.39a6.875 6.875 0 00-3.555-3.047l-.938-1.602a7.035 7.035 0 0112.188-7.031l3.125 5.43a7.043 7.043 0 01-.701-5.339 7.023 7.023 0 013.279-4.27 7.035 7.035 0 019.609 2.578l10.157 17.578a7.025 7.025 0 01-.701-5.339 7.034 7.034 0 0112.888-1.693l6.641 11.485a28.167 28.167 0 01-5.508 34.922z" opacity=".2"/>
  <path fill="#F29E03" d="M576.008 27.573a10.156 10.156 0 00-6.172-4.727 10.001 10.001 0 00-7.695 1.016 9.722 9.722 0 00-3.008 2.617l-5.469-9.453a10.16 10.16 0 00-10.111-5.016 10.159 10.159 0 00-3.756 1.266 10.578 10.578 0 00-3.281 3.008 9.849 9.849 0 00-4.336-2.383 10.001 10.001 0 00-7.695 1.016 10.155 10.155 0 00-4.727 6.171 9.757 9.757 0 00-.195 4.375c-.97.238-1.903.606-2.774 1.094a10.195 10.195 0 00-3.711 13.907l.782 1.328a9.498 9.498 0 00-3.79 1.289 10.153 10.153 0 00-3.71 13.867l14.453 25.039a31.288 31.288 0 0042.695 11.445A30.86 30.86 0 00577.141 77.3a31.213 31.213 0 005.508-38.242l-6.641-11.484zm-33.086-8.867a3.904 3.904 0 015.352 1.445l8.32 14.414c-.749.232-1.469.546-2.149.938a10.303 10.303 0 00-3.007 2.617l-5.469-9.453a10.001 10.001 0 00-4.063-3.907l-.429-.703a3.948 3.948 0 011.445-5.351zm-15.312 1.601a3.944 3.944 0 015.351 1.446l1.289 2.265c-.746.24-1.466.553-2.148.938a9.769 9.769 0 00-3.282 3.008 9.904 9.904 0 00-2.226-1.563l-.391-.742a3.903 3.903 0 01-.408-2.968 3.918 3.918 0 011.815-2.384zm44.414 52.54a24.74 24.74 0 01-11.641 15.156 25.002 25.002 0 01-34.141-9.141l-14.453-25.04a3.904 3.904 0 01.269-4.333 3.903 3.903 0 014.106-1.408 4.023 4.023 0 012.383 1.836l9.375 16.25a3.2 3.2 0 002.695 1.562 3.126 3.126 0 002.696-4.687l-14.844-25.703a3.92 3.92 0 116.797-3.907l14.844 25.703a3.126 3.126 0 105.39-3.125l-11.719-20.312a3.944 3.944 0 011.446-5.352 3.906 3.906 0 015.312 1.446l16.406 28.437a3.207 3.207 0 002.735 1.563 3.358 3.358 0 001.562-.43 3.125 3.125 0 001.133-4.258l-6.25-10.86a3.866 3.866 0 01-.39-2.929 3.734 3.734 0 011.835-2.383 3.678 3.678 0 012.93-.39 3.828 3.828 0 012.383 1.797l6.641 11.523a24.816 24.816 0 012.5 18.984zm6.953-9.454a30.828 30.828 0 00-4.024-12.656l-6.64-11.523a10.277 10.277 0 00-4.063-3.907l-.43-.703a3.946 3.946 0 01-.39-2.969 4.024 4.024 0 011.836-2.382 3.865 3.865 0 015.312 1.445l6.641 11.484a25.044 25.044 0 011.758 21.211zm-13.516-53.008l1.602-6.054a3.117 3.117 0 011.453-1.906 3.128 3.128 0 014.281 1.132 3.127 3.127 0 01.32 2.375l-1.64 6.055a3.087 3.087 0 01-3.008 2.305l-.82-.079a3.124 3.124 0 01-2.188-3.828zm10.274 3.594l3.593-5.117a3.165 3.165 0 014.375-.781 3.117 3.117 0 011.283 2.033 3.117 3.117 0 01-.541 2.342l-3.593 5.117a3.085 3.085 0 01-4.336.742 3.122 3.122 0 01-.781-4.336zm17.148 8.438l-5.117 3.593a3.36 3.36 0 01-1.797.547 3.125 3.125 0 01-1.797-5.664l5.117-3.594a3.129 3.129 0 013.487-.102c.349.22.651.507.888.845a3.165 3.165 0 01-.781 4.375z"/>
  <path fill="#fff" stroke="#fff" stroke-width="2" d="M660.929 184.626v-1h-24.858v1c0 3.283 1.311 6.431 3.642 8.751A12.459 12.459 0 00648.5 197c3.295 0 6.455-1.303 8.787-3.623a12.347 12.347 0 003.642-8.751zm24.008-11.823l-.001-.001c-2.501-4.979-4.225-12.135-5.321-18.738-1.094-6.59-1.544-12.504-1.544-14.936v0a29.36 29.36 0 00-6.677-18.632 29.6 29.6 0 00-16.184-10.041 6.655 6.655 0 00-1.732-4.256A6.723 6.723 0 00648.5 104a6.723 6.723 0 00-4.978 2.199 6.703 6.703 0 00-1.4 2.398 6.654 6.654 0 00-.332 1.856c-13.098 3.024-22.861 14.716-22.861 28.675 0 2.432-.45 8.346-1.544 14.936-1.096 6.603-2.82 13.759-5.321 18.738l-.001.001c-1.244 2.482-2.621 4.312-4.115 5.302l-2.768 1.833H691.821l-2.769-1.833c-1.494-.99-2.871-2.82-4.115-5.302z"/>
  <path fill="#00717B" d="M632.425 179.047h55.368c-1.683-1.125-3.136-3.125-4.391-5.651-5.066-10.172-6.867-28.933-6.867-33.906 0-1.492-.113-2.955-.338-4.385l-5.28 5.301c.112 4 .884 12.172 2.572 20.23.907 4.334 2.122 8.85 3.732 12.76h-39.167l-5.629 5.651zm31.416-56.001a22.403 22.403 0 00-10.966-5.708l-4.486-.921-4.486.91a22.513 22.513 0 00-12.951 7.855 22.665 22.665 0 00-5.079 14.308c0 3.549-.755 12.415-2.584 21.146a97.869 97.869 0 01-.935 4.058l-4.652 4.67-4.652 4.671c5.054-10.172 7.194-29.572 7.194-34.545 0-13.675 9.682-25.09 22.544-27.695a5.678 5.678 0 011.427-4.356 5.627 5.627 0 014.174-1.86 5.617 5.617 0 014.175 1.86 5.676 5.676 0 011.426 4.356 28.009 28.009 0 0113.831 7.255l-3.98 3.996zm-4.194 61.652c0 2.997-1.186 5.872-3.297 7.992a11.238 11.238 0 01-7.961 3.31 11.24 11.24 0 01-7.961-3.31 11.328 11.328 0 01-3.297-7.992h22.516zm-52.773 3.532a3.005 3.005 0 000 4.238 2.98 2.98 0 004.222 0l83.03-83.352a3.003 3.003 0 00-.969-4.888 2.984 2.984 0 00-2.285 0 2.978 2.978 0 00-.968.65l-83.03 83.352z"/>
  <path fill="#fff" stroke="#fff" stroke-width="2" d="M760.929 184.626v-1h-24.858v1c0 3.283 1.311 6.431 3.642 8.751A12.459 12.459 0 00748.5 197c3.295 0 6.455-1.303 8.787-3.623a12.347 12.347 0 003.642-8.751zm24.008-11.823l-.001-.001c-2.501-4.979-4.225-12.135-5.321-18.738-1.094-6.59-1.544-12.504-1.544-14.936v0a29.36 29.36 0 00-6.677-18.632 29.6 29.6 0 00-16.184-10.041 6.655 6.655 0 00-1.732-4.256A6.723 6.723 0 00748.5 104a6.723 6.723 0 00-4.978 2.199 6.703 6.703 0 00-1.4 2.398 6.654 6.654 0 00-.332 1.856c-13.098 3.024-22.861 14.716-22.861 28.675 0 2.432-.45 8.346-1.544 14.936-1.096 6.603-2.82 13.759-5.321 18.738l-.001.001c-1.244 2.482-2.621 4.312-4.115 5.302l-2.768 1.833H791.821l-2.769-1.833c-1.494-.99-2.871-2.82-4.115-5.302z"/>
  <path fill="#F29E03" d="M732.425 179.047h55.368c-1.683-1.125-3.136-3.125-4.391-5.651-5.066-10.172-6.867-28.933-6.867-33.906 0-1.492-.113-2.955-.338-4.385l-5.28 5.301c.112 4 .884 12.172 2.572 20.23.907 4.334 2.122 8.85 3.732 12.76h-39.167l-5.629 5.651zm31.416-56.001a22.403 22.403 0 00-10.966-5.708l-4.486-.921-4.486.91a22.513 22.513 0 00-12.951 7.855 22.665 22.665 0 00-5.079 14.308c0 3.549-.755 12.415-2.584 21.146a97.869 97.869 0 01-.935 4.058l-9.304 9.341c5.054-10.172 7.194-29.572 7.194-34.545 0-13.675 9.682-25.09 22.544-27.695a5.678 5.678 0 011.427-4.356 5.627 5.627 0 014.174-1.86 5.617 5.617 0 014.175 1.86 5.676 5.676 0 011.426 4.356 28.009 28.009 0 0113.831 7.255l-3.98 3.996zm-4.194 61.652c0 2.997-1.186 5.872-3.297 7.992a11.238 11.238 0 01-7.961 3.31 11.24 11.24 0 01-7.961-3.31 11.328 11.328 0 01-3.297-7.992h22.516zm-52.773 3.532a3.005 3.005 0 000 4.238 2.98 2.98 0 004.222 0l83.03-83.352a3.003 3.003 0 00-.969-4.888 2.984 2.984 0 00-2.285 0 2.978 2.978 0 00-.968.65l-83.03 83.352z"/>
  <path fill="#fff" stroke="#fff" stroke-width="2" d="M662.429 84.626v-1h-24.858v1c0 3.283 1.311 6.431 3.642 8.751A12.458 12.458 0 00650 97c3.295 0 6.455-1.303 8.787-3.623a12.349 12.349 0 003.642-8.751zm24.008-11.823h-.001c-2.501-4.98-4.225-12.136-5.321-18.74-1.094-6.59-1.544-12.504-1.544-14.935v0a29.36 29.36 0 00-6.677-18.632 29.6 29.6 0 00-16.184-10.041 6.655 6.655 0 00-1.732-4.256A6.72 6.72 0 00650 4a6.734 6.734 0 00-4.978 2.2 6.7 6.7 0 00-1.4 2.397 6.647 6.647 0 00-.332 1.856c-13.098 3.024-22.861 14.716-22.861 28.675 0 2.431-.45 8.346-1.544 14.936-1.096 6.602-2.82 13.76-5.321 18.738l-.001.001c-1.244 2.482-2.621 4.312-4.115 5.302l-2.768 1.833H693.321l-2.769-1.833c-1.494-.99-2.871-2.82-4.115-5.302z"/>
  <path fill="#00717B" d="M650 96c3.031 0 5.938-1.198 8.081-3.332a11.349 11.349 0 003.348-8.042h-22.858c0 3.016 1.205 5.91 3.348 8.042A11.455 11.455 0 00650 96zm0-80.087l-4.554.916a22.887 22.887 0 00-13.145 7.903 22.692 22.692 0 00-5.158 14.396c0 3.572-.766 12.495-2.623 21.282-.914 4.362-2.149 8.906-3.789 12.841h58.538c-1.64-3.935-2.869-8.474-3.789-12.841-1.857-8.787-2.623-17.71-2.623-21.282a22.69 22.69 0 00-5.16-14.393 22.886 22.886 0 00-13.143-7.9L650 15.906v.006zm35.543 57.338c1.274 2.542 2.748 4.556 4.457 5.687h-80c1.709-1.131 3.183-3.145 4.457-5.687 5.143-10.237 6.972-29.118 6.972-34.123 0-13.763 9.828-25.251 22.885-27.873a5.665 5.665 0 011.448-4.383A5.717 5.717 0 01650 5a5.736 5.736 0 014.238 1.872 5.683 5.683 0 011.448 4.383 28.605 28.605 0 0116.435 9.876 28.357 28.357 0 016.45 17.997c0 5.005 1.829 23.886 6.972 34.123z"/>
  <path fill="#fff" stroke="#fff" stroke-width="2" d="M762.429 84.626v-1h-24.858v1c0 3.283 1.311 6.431 3.642 8.751A12.458 12.458 0 00750 97c3.295 0 6.455-1.303 8.787-3.623a12.349 12.349 0 003.642-8.751zm24.008-11.823h-.001c-2.501-4.98-4.225-12.136-5.321-18.74-1.094-6.59-1.544-12.504-1.544-14.935v0a29.36 29.36 0 00-6.677-18.632 29.6 29.6 0 00-16.184-10.041 6.655 6.655 0 00-1.732-4.256A6.72 6.72 0 00750 4a6.734 6.734 0 00-4.978 2.2 6.7 6.7 0 00-1.4 2.397 6.647 6.647 0 00-.332 1.856c-13.098 3.024-22.861 14.716-22.861 28.675 0 2.431-.45 8.346-1.544 14.936-1.096 6.602-2.82 13.76-5.321 18.738l-.001.001c-1.244 2.482-2.621 4.312-4.115 5.302l-2.768 1.833H793.321l-2.769-1.833c-1.494-.99-2.871-2.82-4.115-5.302z"/>
  <path fill="#F29E03" d="M750 96c3.031 0 5.938-1.198 8.081-3.332a11.349 11.349 0 003.348-8.042h-22.858c0 3.016 1.205 5.91 3.348 8.042A11.455 11.455 0 00750 96zm0-80.087l-4.554.916a22.887 22.887 0 00-13.145 7.903 22.692 22.692 0 00-5.158 14.396c0 3.572-.766 12.495-2.623 21.282-.914 4.362-2.149 8.906-3.789 12.841h58.538c-1.64-3.935-2.869-8.474-3.789-12.841-1.857-8.787-2.623-17.71-2.623-21.282a22.69 22.69 0 00-5.16-14.393 22.886 22.886 0 00-13.143-7.9L750 15.906v.006zm35.543 57.338c1.274 2.542 2.748 4.556 4.457 5.687h-80c1.709-1.131 3.183-3.145 4.457-5.687 5.143-10.237 6.972-29.118 6.972-34.123 0-13.763 9.828-25.251 22.885-27.873a5.665 5.665 0 011.448-4.383A5.717 5.717 0 01750 5a5.736 5.736 0 014.238 1.872 5.683 5.683 0 011.448 4.383 28.605 28.605 0 0116.435 9.876 28.357 28.357 0 016.45 17.997c0 5.005 1.829 23.886 6.972 34.123z"/>
  <g>
    <path fill="#fff" d="M78 107.53c0-.663-.268-1.299-.746-1.768a2.57 2.57 0 00-1.8-.732H62.728c-6.41-.314-12.684 1.875-17.454 6.09-4.77 4.215-7.647 10.112-8.002 16.402v13.496H24.547a2.576 2.576 0 00-1.799.733 2.484 2.484 0 00-.747 1.767v12.994c0 .663.27 1.298.747 1.767a2.573 2.573 0 001.8.733h12.726V192.5c0 .663.269 1.298.746 1.767a2.573 2.573 0 001.8.733H55.09a2.57 2.57 0 001.798-.734 2.479 2.479 0 00.746-1.766v-33.488h13.34a2.578 2.578 0 001.568-.505c.451-.334.777-.807.924-1.343l3.665-12.996a2.447 2.447 0 00-.429-2.168 2.532 2.532 0 00-.89-.722 2.585 2.585 0 00-1.124-.26H57.635v-13.496a4.967 4.967 0 011.66-3.215 5.142 5.142 0 013.432-1.283h12.727a2.57 2.57 0 001.8-.733 2.474 2.474 0 00.746-1.767V107.53z"/>
  </g>
  <g>
    <path fill="#00717B" d="M178 107.53c0-.663-.268-1.299-.746-1.768a2.568 2.568 0 00-1.8-.732h-12.727c-6.408-.314-12.683 1.875-17.453 6.09s-7.647 10.112-8.001 16.402v13.496h-12.727a2.575 2.575 0 00-1.799.733 2.483 2.483 0 00-.747 1.767v12.994c.001.663.269 1.298.746 1.767a2.575 2.575 0 001.8.733h12.727V192.5c0 .663.269 1.298.746 1.767a2.573 2.573 0 001.8.733h15.272a2.568 2.568 0 001.798-.734 2.48 2.48 0 00.746-1.766v-33.488h13.34a2.577 2.577 0 001.568-.505 2.49 2.49 0 00.924-1.343l3.666-12.996a2.466 2.466 0 00-.43-2.168 2.53 2.53 0 00-.89-.722 2.584 2.584 0 00-1.124-.26h-17.054v-13.496a4.965 4.965 0 011.661-3.215 5.14 5.14 0 013.431-1.283h12.727c.675 0 1.323-.264 1.8-.733a2.472 2.472 0 00.746-1.767V107.53z"/>
  </g>
  <g>
    <path fill="#fff" d="M215.672 126.663a10.844 10.844 0 009.131-4.769 10.843 10.843 0 001.021-10.25 10.832 10.832 0 10-10.152 15.019zm21.067 8.213v60.12h18.668v-29.732c0-7.845 1.476-15.443 11.203-15.443 9.592 0 9.711 8.971 9.711 15.939V195h18.677v-32.967c0-16.197-3.488-28.644-22.416-28.644-9.087 0-15.181 4.988-17.672 9.709h-.252v-8.222h-17.919zm-30.417 0h18.695v60.12h-18.695v-60.12z"/>
  </g>
  <g>
    <path fill="#fff" d="M495 121.679a36.997 36.997 0 01-10.603 2.905 18.514 18.514 0 008.118-10.218 36.876 36.876 0 01-11.725 4.479 18.469 18.469 0 00-31.464 16.845 52.427 52.427 0 01-38.059-19.295 18.452 18.452 0 00-2.498 9.283 18.475 18.475 0 008.213 15.371 18.405 18.405 0 01-8.363-2.311v.238a18.471 18.471 0 0014.812 18.106c-2.72.737-5.571.845-8.339.318a18.474 18.474 0 0017.25 12.818 37.054 37.054 0 01-22.934 7.908c-1.473 0-2.945-.086-4.408-.258a52.224 52.224 0 0028.301 8.296c33.969 0 52.539-28.134 52.539-52.535 0-.793-.02-1.593-.056-2.386a37.55 37.55 0 009.208-9.552l.008-.012z"/>
  </g>
  <g>
    <path fill="#00717B" d="M595 121.679a36.997 36.997 0 01-10.603 2.905 18.514 18.514 0 008.118-10.218 36.876 36.876 0 01-11.725 4.479 18.469 18.469 0 00-31.464 16.845 52.427 52.427 0 01-38.059-19.295 18.452 18.452 0 00-2.498 9.283 18.475 18.475 0 008.213 15.371 18.405 18.405 0 01-8.363-2.311v.238a18.471 18.471 0 0014.812 18.106c-2.72.737-5.571.845-8.339.318a18.474 18.474 0 0017.25 12.818 37.054 37.054 0 01-22.934 7.908c-1.473 0-2.945-.086-4.408-.258a52.224 52.224 0 0028.301 8.296c33.969 0 52.539-28.134 52.539-52.535 0-.793-.02-1.593-.056-2.386a37.55 37.55 0 009.208-9.552l.008-.012z"/>
  </g>
  <g>
    <path fill="#00717B" d="M315.669 126.663a10.844 10.844 0 009.131-4.769 10.835 10.835 0 001.022-10.25 10.827 10.827 0 00-3.554-4.524 10.83 10.83 0 10-12.122 17.932 10.833 10.833 0 005.523 1.611zm21.068 8.213v60.12h18.668v-29.732c0-7.845 1.476-15.443 11.202-15.443 9.592 0 9.711 8.971 9.711 15.939V195h18.677v-32.967c0-16.197-3.487-28.644-22.415-28.644-9.088 0-15.181 4.988-17.673 9.709h-.251v-8.222h-17.919zm-30.418 0h18.695v60.12h-18.695v-60.12z"/>
  </g>
  <g>
    <path fill="#333" d="M846.575 81.537a4.161 4.161 0 005.36 1.323 4.161 4.161 0 001.49-1.323l37.5-54.166a4.158 4.158 0 00-3.425-6.537h-75a4.177 4.177 0 00-4.151 4.423 4.17 4.17 0 00.726 2.114l37.5 54.166z"/>
  </g>
  <g>
    <path fill="#F29E03" d="M846.575 181.537a4.157 4.157 0 006.85 0l37.5-54.166a4.159 4.159 0 00.269-4.307 4.161 4.161 0 00-3.694-2.23h-75a4.169 4.169 0 00-3.683 2.236 4.173 4.173 0 00.258 4.301l37.5 54.166z"/>
  </g>
</svg>
