<svg xmlns="http://www.w3.org/2000/svg" width="512" height="438" fill="none" viewBox="0 0 512 438">
  <g clip-path="url(#clip0_101_60)">
    <path fill="#F2994A" d="M124.5 0C55.74 0 0 55.74 0 124.5 0 193.26 55.74 249 124.5 249c68.76 0 124.5-55.74 124.5-124.5C249 55.74 193.26 0 124.5 0zM40.943 91.187h167.114v66.626H40.943V91.187z"/>
  </g>
  <g clip-path="url(#clip1_101_60)">
    <path fill="#fff" stroke="#F29E03" d="M485.076 49.323a11.287 11.287 0 0111.11 18.834l-11.11-18.834v0zm0 0h-.007l-.069.02a11.296 11.296 0 00-4.79 2.85v.001l-29.64 29.64a19.7 19.7 0 00-5.18 9.153s0 0 0 0l-2.096 8.375a4.727 4.727 0 001.237 4.475 4.72 4.72 0 004.472 1.249h.001l8.375-2.096a19.698 19.698 0 009.153-5.18v0l29.653-29.653-11.109-18.834v0zM451.077 1V.5h-24.704A10.871 10.871 0 00415.5 11.373V87.43a10.874 10.874 0 0010.873 10.873h11.075l.095-.38 2.088-8.36a25.62 25.62 0 016.742-11.904v0l29.647-29.647a17.122 17.122 0 019.206-4.785l.415-.071v-8.079h-24.704a9.874 9.874 0 01-9.86-9.873V1zm32.335 28.162h1.207l-.853-.854-25.933-25.933-.354.354h-.5v22.475a3.959 3.959 0 003.958 3.958h22.475z"/>
  </g>
  <path fill="#F29E03" d="M311.25 27.027v26.238a10.375 10.375 0 105.188 8.985V9.991a4.15 4.15 0 00-5.551-3.911l-33.2 11.858a4.155 4.155 0 00-2.75 3.907v36.603a10.374 10.374 0 105.188 8.99V38.144l31.125-11.112v-.005z"/>
  <path fill="#333" d="M394.25 27.027v26.238a10.375 10.375 0 105.188 8.985V9.991a4.15 4.15 0 00-5.551-3.911l-33.2 11.858a4.155 4.155 0 00-2.75 3.907v36.603a10.374 10.374 0 105.188 8.99V38.144l31.125-11.112v-.005z"/>
  <path fill="#00717B" stroke="#00717B" stroke-width="3.5" d="M373.5 164.25c21.953 0 39.75-17.797 39.75-39.75s-17.797-39.75-39.75-39.75-39.75 17.797-39.75 39.75 17.797 39.75 39.75 39.75z"/>
  <path fill="#fff" d="M358.004 113.893a4.833 4.833 0 002.943-8.714 4.83 4.83 0 10-2.943 8.714zm9.394 3.662v26.807h8.324v-13.257c0-3.498.658-6.886 4.995-6.886 4.277 0 4.33 4 4.33 7.107v13.038h8.328v-14.7c0-7.222-1.555-12.772-9.995-12.772-4.052 0-6.769 2.224-7.88 4.329h-.112v-3.666h-7.99zm-13.563 0h8.336v26.807h-8.336v-26.807z"/>
  <path stroke="#00717B" stroke-width="3.5" d="M290.5 164.25c21.953 0 39.75-17.797 39.75-39.75s-17.797-39.75-39.75-39.75-39.75 17.797-39.75 39.75 17.797 39.75 39.75 39.75z"/>
  <path fill="#00717B" d="M275.004 113.893a4.829 4.829 0 003.462-1.39 4.841 4.841 0 001.44-3.441 4.839 4.839 0 00-1.44-3.442 4.829 4.829 0 00-8.224 3.442 4.832 4.832 0 004.762 4.831zm9.394 3.662v26.807h8.324v-13.257c0-3.498.658-6.886 4.995-6.886 4.277 0 4.33 4 4.33 7.107v13.038h8.328v-14.7c0-7.222-1.555-12.772-9.995-12.772-4.052 0-6.769 2.224-7.88 4.329h-.112v-3.666h-7.99zm-13.563 0h8.336v26.807h-8.336v-26.807z"/>
  <path fill="#fff" d="M332 208.5c0-22.367 18.133-40.5 40.5-40.5h2c22.368 0 40.5 18.133 40.5 40.5 0 22.368-18.132 40.5-40.5 40.5h-2c-22.367 0-40.5-18.132-40.5-40.5z"/>
  <path fill="#00717B" fill-rule="evenodd" d="M364.771 230.706c-.899.128-.003 0-.003 0h-.01l-.028.007-.1.013c-.514.06-1.03.103-1.547.128-.975.045-2.313.049-3.686-.148-2.736-.388-4.4-2.324-5.475-3.583l-.103-.118a12.54 12.54 0 00-1.131-1.151c.356.657.726 1.39 1.124 2.178l.034.07.177.36c.605 1.203 1.003 2.005 1.663 2.676.643.657 1.646 1.293 3.673 1.694l6.204.84a1.808 1.808 0 011.563 1.792v3.552c0 2.767-1.297 5.233-3.285 6.727a7.216 7.216 0 01-7.411.816C342.036 240.102 332 225.726 332 208.98c0-22.797 18.596-41.25 41.5-41.25s41.5 18.452 41.5 41.25c0 16.832-10.164 31.246-24.682 37.648a7.222 7.222 0 01-3.813.596 7.223 7.223 0 01-3.577-1.45 8.392 8.392 0 01-3.272-6.716V228.37c0-.242-.17-1.639-1.114-3.517a1.81 1.81 0 011.411-2.61c1.186-.132 3.185-.516 5.202-1.232 2.054-.726 3.897-1.722 4.993-2.947 1.63-1.819 2.442-3.216 2.888-4.727.463-1.567.581-3.39.581-6.2 0-3.947-2.075-7.263-3.03-8.332a1.814 1.814 0 01-.359-1.809c.484-1.362 1.072-3.482 1.297-5.374.11-.951.117-1.747.02-2.32a1.58 1.58 0 00-.186-.599 1.68 1.68 0 00-.716.031c-.588.111-1.338.388-2.19.81-1.694.836-3.458 2.074-4.55 2.96a1.79 1.79 0 01-1.747.294 32.2 32.2 0 00-8.656-1.567c-3.483.083-7.501 1.072-8.874 1.567a1.803 1.803 0 01-1.746-.294 26.93 26.93 0 00-4.552-2.96 9.013 9.013 0 00-2.192-.81 1.682 1.682 0 00-.713-.03 1.575 1.575 0 00-.186.598c-.097.573-.09 1.369.02 2.32.225 1.892.816 4.012 1.297 5.374a1.81 1.81 0 01-.36 1.809c-.954 1.069-3.029 4.385-3.029 8.331 0 2.808.118 4.634.581 6.2.45 1.512 1.259 2.906 2.884 4.728 1.1 1.225 2.94 2.22 4.998 2.947a24.882 24.882 0 005.197 1.231 1.802 1.802 0 011.555 1.34c.092.355.074.729-.051 1.074a1.811 1.811 0 01-.653.854c-.57.408-.947 1.142-1.158 1.989a6.722 6.722 0 00-.194 1.331v.066a1.805 1.805 0 01-1.553 1.81zM290.5 171.343c-20.94 0-37.893 16.867-37.893 37.637 0 15.252 9.14 28.376 22.296 34.28 1.376.618 2.722.373 3.773-.416a4.777 4.777 0 001.84-3.828v-1.971l-4.693-.637c-.035-.005-.07-.01-.104-.017-2.587-.505-4.333-1.414-5.613-2.725-1.075-1.103-1.732-2.424-2.29-3.545l-.193-.39a39.924 39.924 0 00-1.684-3.148c-.467-.74-.83-1.12-1.19-1.359-.913-.605-1.791-1.632-1.791-2.915a2.498 2.498 0 01.899-1.937 2.915 2.915 0 011.888-.63c.768 0 1.49.236 2.092.506.616.276 1.228.643 1.799 1.023 1.39.927 2.76 2.023 3.918 3.376 1.207 1.404 2.061 2.296 3.348 2.48 1.058.151 2.137.155 2.977.117.117-.666.31-1.315.574-1.937a28.808 28.808 0 01-3.032-.885c-2.262-.802-4.783-2.051-6.478-3.943-1.86-2.082-3.012-3.939-3.655-6.11-.626-2.117-.73-4.41-.73-7.232 0-4.323 1.87-7.965 3.275-9.898a29.924 29.924 0 01-1.159-5.19 12.15 12.15 0 01.004-3.348c.173-1.014.605-2.259 1.743-3.009 1.096-.73 2.383-.699 3.386-.512 1.04.197 2.123.63 3.119 1.124 1.622.802 3.234 1.875 4.44 2.784 2.083-.612 5.766-1.4 9.096-1.473h.076c3.334.072 6.851.86 8.881 1.47 1.21-.907 2.819-1.982 4.437-2.78.996-.495 2.075-.928 3.12-1.125 1.002-.187 2.289-.218 3.389.509 1.134.753 1.57 1.998 1.74 3.012.176 1.055.134 2.234 0 3.347a30.041 30.041 0 01-1.156 5.191c1.404 1.937 3.275 5.579 3.275 9.898 0 2.822-.104 5.115-.726 7.228-.647 2.179-1.798 4.032-3.659 6.114-1.695 1.892-4.216 3.14-6.477 3.943a29.25 29.25 0 01-3.673 1.027c.425 1.287.577 2.327.577 2.926v10.685c0 1.625.758 3.012 1.833 3.821 1.045.792 2.387 1.038 3.763.436 13.28-5.851 22.527-19.01 22.527-34.341.001-20.766-16.945-37.633-37.889-37.633zm-8.729 59.363c-.899.128-.003 0-.003 0h-.01l-.028.007-.1.013c-.514.06-1.03.103-1.547.128-.975.045-2.313.049-3.686-.148-2.736-.388-4.4-2.324-5.475-3.583l-.103-.118a12.54 12.54 0 00-1.131-1.151c.356.657.726 1.39 1.124 2.178l.034.07.177.36c.605 1.203 1.003 2.005 1.663 2.676.643.657 1.646 1.293 3.673 1.694l6.204.84a1.808 1.808 0 011.563 1.792v3.552c0 2.767-1.297 5.233-3.285 6.727a7.216 7.216 0 01-7.411.816C259.036 240.102 249 225.726 249 208.98c0-22.797 18.596-41.25 41.5-41.25s41.5 18.452 41.5 41.25c0 16.832-10.164 31.246-24.682 37.648a7.222 7.222 0 01-3.813.596 7.223 7.223 0 01-3.577-1.45 8.392 8.392 0 01-3.272-6.716V228.37c0-.242-.17-1.639-1.114-3.517a1.808 1.808 0 01.027-1.672 1.803 1.803 0 011.384-.938c1.186-.132 3.185-.516 5.202-1.232 2.054-.726 3.897-1.722 4.993-2.947 1.63-1.819 2.442-3.216 2.888-4.727.463-1.567.581-3.39.581-6.2 0-3.947-2.075-7.263-3.03-8.332a1.814 1.814 0 01-.359-1.809c.484-1.362 1.072-3.482 1.297-5.374.11-.951.117-1.747.02-2.32a1.58 1.58 0 00-.186-.599 1.68 1.68 0 00-.716.031c-.588.111-1.338.388-2.19.81-1.694.836-3.458 2.074-4.55 2.96a1.79 1.79 0 01-1.747.294 32.2 32.2 0 00-8.656-1.567c-3.483.083-7.501 1.072-8.874 1.567a1.803 1.803 0 01-1.746-.294 26.93 26.93 0 00-4.552-2.96 9.013 9.013 0 00-2.192-.81 1.682 1.682 0 00-.713-.03 1.575 1.575 0 00-.186.598c-.097.573-.09 1.369.02 2.32.225 1.892.816 4.012 1.297 5.374a1.81 1.81 0 01-.36 1.809c-.954 1.069-3.029 4.385-3.029 8.331 0 2.808.118 4.634.581 6.2.45 1.512 1.259 2.906 2.884 4.728 1.1 1.225 2.94 2.22 4.998 2.947a24.882 24.882 0 005.197 1.231 1.802 1.802 0 011.555 1.34c.092.355.074.729-.051 1.074a1.811 1.811 0 01-.653.854c-.57.408-.947 1.142-1.158 1.989a6.722 6.722 0 00-.194 1.331v.066c.004.439-.151.864-.436 1.197-.286.332-.683.55-1.117.612v.001z" clip-rule="evenodd"/>
  <g clip-path="url(#clip2_101_60)">
    <path fill="#00717B" stroke="#00717B" stroke-width="3.5" d="M290.5 353.5c22.091 0 40-17.909 40-40s-17.909-40-40-40-40 17.909-40 40 17.909 40 40 40z"/>
    <path fill="#fff" d="M301.417 296.292c0-.276-.11-.541-.305-.737a1.046 1.046 0 00-.737-.305h-5.208a9.94 9.94 0 00-10.417 9.375v5.625h-5.208a1.043 1.043 0 00-1.042 1.042v5.416c0 .276.11.541.305.737.196.195.461.305.737.305h5.208v13.958c0 .276.11.541.305.737.196.195.461.305.737.305h6.25a1.047 1.047 0 001.041-1.042V317.75h5.459a1.047 1.047 0 001.02-.77l1.5-5.417a1.046 1.046 0 00-.176-.904 1.03 1.03 0 00-.824-.409h-6.979v-5.625c.052-.516.294-.994.68-1.34a2.08 2.08 0 011.404-.535h5.208c.276 0 .541-.11.737-.305.195-.196.305-.461.305-.737v-5.416z"/>
  </g>
  <g clip-path="url(#clip3_101_60)">
    <path stroke="#00717B" stroke-width="3.5" d="M207.75 353.5c21.953 0 39.75-17.797 39.75-39.75S229.703 274 207.75 274 168 291.797 168 313.75s17.797 39.75 39.75 39.75z"/>
    <path fill="#00717B" d="M218.599 296.65a1.035 1.035 0 00-1.036-1.036h-5.175a9.874 9.874 0 00-10.352 9.316v5.59h-5.176a1.04 1.04 0 00-.956.64c-.052.125-.079.26-.079.396v5.382a1.033 1.033 0 001.035 1.035h5.176v13.871a1.04 1.04 0 001.035 1.036h6.211a1.04 1.04 0 001.035-1.036v-13.871h5.425a1.028 1.028 0 001.013-.765l1.491-5.383a1.032 1.032 0 00-.176-.897 1.044 1.044 0 00-.818-.408h-6.935v-5.59a2.07 2.07 0 012.071-1.863h5.175a1.035 1.035 0 001.036-1.035v-5.382z"/>
  </g>
  <path stroke="#00717B" stroke-width="3.5" d="M81.25 313.5c0 21.953-17.797 39.75-39.75 39.75S1.75 335.453 1.75 313.5s17.797-39.75 39.75-39.75 39.75 17.797 39.75 39.75z"/>
  <path fill="#00717B" d="M68 299.05v30.717a3.614 3.614 0 01-3.613 3.612h-8.434v-20.475L41.5 323.747l-14.453-10.843v20.478h-8.434a3.608 3.608 0 01-3.339-2.232 3.606 3.606 0 01-.274-1.383V299.05c0-4.467 5.099-7.018 8.672-4.337l3.375 2.533L41.5 308.085l14.453-10.843 3.375-2.528c3.57-2.679 8.672-.13 8.672 4.337v-.001zM124.5 355c22.92 0 41.5-18.58 41.5-41.5S147.42 272 124.5 272 83 290.58 83 313.5s18.58 41.5 41.5 41.5z"/>
  <path fill="#fff" d="M151 299.05v30.717a3.602 3.602 0 01-1.058 2.554 3.604 3.604 0 01-2.555 1.058h-8.434v-20.475L124.5 323.747l-14.453-10.843v20.478h-8.434a3.603 3.603 0 01-2.556-1.059A3.601 3.601 0 0198 329.767V299.05c0-4.467 5.099-7.018 8.672-4.337l3.375 2.533 14.453 10.839 14.453-10.843 3.375-2.528c3.57-2.679 8.672-.13 8.672 4.337v-.001z"/>
  <path fill="#00717B" d="M361.254 391v-17.063h4.816c1.485 0 2.797.329 3.938.985 1.14.656 2.019 1.59 2.637 2.8.625 1.212.941 2.602.949 4.172v1.09c0 1.61-.313 3.02-.938 4.23-.617 1.212-1.504 2.142-2.66 2.79-1.148.648-2.488.98-4.019.996h-4.723zm2.25-15.21v13.37h2.367c1.734 0 3.082-.539 4.043-1.617.969-1.078 1.453-2.613 1.453-4.605v-.997c0-1.937-.457-3.441-1.371-4.511-.906-1.078-2.195-1.625-3.867-1.64h-2.625zm26.625 7.23c0 1.671-.281 3.132-.844 4.382-.562 1.242-1.359 2.192-2.39 2.848-1.032.656-2.235.984-3.61.984-1.344 0-2.535-.328-3.574-.984-1.039-.664-1.848-1.605-2.426-2.824-.57-1.227-.863-2.645-.879-4.254v-1.23c0-1.641.285-3.09.856-4.348.57-1.258 1.375-2.219 2.414-2.883 1.047-.672 2.242-1.008 3.586-1.008 1.367 0 2.57.332 3.609.996 1.047.656 1.852 1.613 2.414 2.871.563 1.25.844 2.707.844 4.371v1.079zm-2.238-1.102c0-2.023-.407-3.574-1.219-4.652-.813-1.086-1.949-1.63-3.41-1.63-1.422 0-2.543.544-3.364 1.63-.812 1.078-1.23 2.578-1.253 4.5v1.254c0 1.96.41 3.503 1.23 4.628.828 1.118 1.965 1.676 3.41 1.676 1.453 0 2.578-.527 3.375-1.582.797-1.062 1.207-2.582 1.231-4.558v-1.266zm9.293 3.703l.328 2.25.48-2.027 3.375-11.907h1.899l3.293 11.907.468 2.062.364-2.297 2.648-11.672h2.262L408.164 391h-2.051l-3.515-12.434-.27-1.3-.269 1.3L398.414 391h-2.051l-4.125-17.063h2.25l2.696 11.684zM427.922 391h-2.262l-8.59-13.148V391h-2.261v-17.063h2.261l8.614 13.207v-13.205h2.238V391zm6.258-1.84h8.086V391h-10.348v-17.063h2.262v15.223zm23.004-6.14c0 1.671-.282 3.132-.844 4.382-.563 1.242-1.36 2.192-2.391 2.848-1.031.656-2.234.984-3.609.984-1.344 0-2.535-.328-3.574-.984-1.039-.664-1.848-1.605-2.426-2.824-.57-1.227-.863-2.645-.879-4.254v-1.23c0-1.641.285-3.09.855-4.348.571-1.258 1.375-2.219 2.414-2.883 1.047-.672 2.243-1.008 3.586-1.008 1.368 0 2.571.332 3.61.996 1.047.656 1.851 1.613 2.414 2.871.562 1.25.844 2.707.844 4.371v1.079zm-2.239-1.102c0-2.023-.406-3.574-1.218-4.652-.813-1.086-1.95-1.63-3.411-1.63-1.421 0-2.543.544-3.363 1.63-.812 1.078-1.23 2.578-1.254 4.5v1.254c0 1.96.41 3.503 1.231 4.628.828 1.118 1.965 1.676 3.41 1.676 1.453 0 2.578-.527 3.375-1.582.797-1.062 1.207-2.582 1.23-4.558v-1.266zm14.778 4.629h-7.149L460.969 391h-2.321l6.516-17.063h1.969L473.66 391h-2.308l-1.629-4.453zm-6.469-1.852h5.801l-2.907-7.98-2.894 7.98zM475.957 391v-17.063h4.816c1.485 0 2.797.329 3.938.985 1.141.656 2.019 1.59 2.637 2.8.625 1.212.941 2.602.949 4.172v1.09c0 1.61-.313 3.02-.938 4.23-.617 1.212-1.504 2.142-2.66 2.79-1.148.648-2.488.98-4.019.996h-4.723zm2.25-15.21v13.37h2.367c1.735 0 3.082-.539 4.043-1.617.969-1.078 1.453-2.613 1.453-4.605v-.997c0-1.937-.457-3.441-1.371-4.511-.906-1.078-2.195-1.625-3.867-1.64h-2.625zm-84.773 26.148l5.578 13.921 5.578-13.922h2.918V419h-2.25v-6.645l.211-7.171L399.867 419h-1.722l-5.59-13.781.222 7.136V419h-2.25v-17.063l2.907.001zm22.921 8.566l4.454-8.566h2.554l-5.883 10.699V419h-2.25v-6.363l-5.882-10.7h2.578l4.429 8.567zm27.715 3.082c-.211 1.805-.879 3.2-2.004 4.184-1.117.976-2.605 1.464-4.464 1.464-2.016 0-3.633-.722-4.852-2.168-1.211-1.445-1.816-3.379-1.816-5.8v-1.641c0-1.586.281-2.98.843-4.184.571-1.203 1.375-2.125 2.414-2.765 1.039-.649 2.243-.973 3.61-.973 1.812 0 3.265.508 4.359 1.524 1.094 1.007 1.731 2.406 1.91 4.195h-2.261c-.196-1.36-.621-2.344-1.278-2.953-.648-.61-1.558-.914-2.73-.914-1.438 0-2.567.53-3.387 1.593-.812 1.063-1.219 2.575-1.219 4.536v1.652c0 1.852.387 3.324 1.16 4.418.774 1.094 1.856 1.64 3.247 1.64 1.25 0 2.207-.28 2.871-.843.672-.57 1.117-1.559 1.336-2.965h2.261zm8.731 2.426l4.875-14.075h2.461L453.809 419h-1.993l-6.316-17.063h2.449l4.852 14.075zM511.5 377c0-12.15-9.85-22-22-22H341v83h148.5c12.15 0 22-9.85 22-22v-39zm-199.75 9.55h-7.95v-15.9h-10.6v15.9h-7.95l13.25 13.25 13.25-13.25zm11.495 17.31c-.556-.594-4.269-4.566-5.329-5.602a3.984 3.984 0 00-2.761-1.108h-4.656l8.12 7.934h-9.392a.725.725 0 00-.636.353l-2.163 4.963h-15.857l-2.163-4.963a.73.73 0 00-.636-.353h-9.391l8.117-7.934h-4.654a3.993 3.993 0 00-2.761 1.108c-1.06 1.038-4.773 5.01-5.33 5.602-1.295 1.38-2.008 2.48-1.669 3.84l1.487 8.146c.34 1.362 1.831 2.48 3.318 2.48h43.227c1.486 0 2.978-1.118 3.317-2.48l1.487-8.146c.334-1.36-.376-2.46-1.675-3.84z"/>
  <path stroke="#00717B" stroke-width="3" d="M495 356.5H273c-8.56 0-15.5 6.94-15.5 15.5v49c0 8.56 6.94 15.5 15.5 15.5h222c8.56 0 15.5-6.94 15.5-15.5v-49c0-8.56-6.94-15.5-15.5-15.5z"/>
  <g>
    <path fill="#00717B" d="M105.254 391v-17.063h4.816c1.485 0 2.797.329 3.938.985 1.14.656 2.019 1.59 2.637 2.8.625 1.212.941 2.602.949 4.172v1.09c0 1.61-.313 3.02-.938 4.23-.617 1.212-1.504 2.142-2.66 2.79-1.148.648-2.488.98-4.019.996h-4.723zm2.25-15.21v13.37h2.367c1.734 0 3.082-.539 4.043-1.617.969-1.078 1.453-2.613 1.453-4.605v-.997c0-1.937-.457-3.441-1.371-4.511-.906-1.078-2.195-1.625-3.867-1.64h-2.625zm26.625 7.23c0 1.671-.281 3.132-.844 4.382-.562 1.242-1.359 2.192-2.39 2.848-1.032.656-2.235.984-3.61.984-1.344 0-2.535-.328-3.574-.984-1.039-.664-1.848-1.605-2.426-2.824-.57-1.227-.863-2.645-.879-4.254v-1.23c0-1.641.285-3.09.856-4.348.57-1.258 1.375-2.219 2.414-2.883 1.047-.672 2.242-1.008 3.586-1.008 1.367 0 2.57.332 3.609.996 1.047.656 1.852 1.613 2.414 2.871.563 1.25.844 2.707.844 4.371v1.079zm-2.238-1.102c0-2.023-.407-3.574-1.219-4.652-.813-1.086-1.949-1.63-3.41-1.63-1.422 0-2.543.544-3.364 1.63-.812 1.078-1.23 2.578-1.253 4.5v1.254c0 1.96.41 3.503 1.23 4.628.828 1.118 1.965 1.676 3.41 1.676 1.453 0 2.578-.527 3.375-1.582.797-1.062 1.207-2.582 1.231-4.558v-1.266zm9.293 3.703l.328 2.25.48-2.027 3.375-11.907h1.899l3.293 11.907.468 2.062.364-2.297 2.648-11.672h2.262L152.164 391h-2.051l-3.515-12.434-.27-1.3-.269 1.3L142.414 391h-2.051l-4.125-17.063h2.25l2.696 11.684zM171.922 391h-2.262l-8.59-13.148V391h-2.261v-17.063h2.261l8.614 13.207v-13.205h2.238V391zm6.258-1.84h8.086V391h-10.348v-17.063h2.262v15.223zm23.004-6.14c0 1.671-.282 3.132-.844 4.382-.563 1.242-1.36 2.192-2.391 2.848-1.031.656-2.234.984-3.609.984-1.344 0-2.535-.328-3.574-.984-1.039-.664-1.848-1.605-2.426-2.824-.57-1.227-.863-2.645-.879-4.254v-1.23c0-1.641.285-3.09.855-4.348.571-1.258 1.375-2.219 2.414-2.883 1.047-.672 2.243-1.008 3.586-1.008 1.368 0 2.571.332 3.61.996 1.047.656 1.851 1.613 2.414 2.871.562 1.25.844 2.707.844 4.371v1.079zm-2.239-1.102c0-2.023-.406-3.574-1.218-4.652-.813-1.086-1.95-1.63-3.411-1.63-1.421 0-2.543.544-3.363 1.63-.812 1.078-1.23 2.578-1.254 4.5v1.254c0 1.96.41 3.503 1.231 4.628.828 1.118 1.965 1.676 3.41 1.676 1.453 0 2.578-.527 3.375-1.582.797-1.062 1.207-2.582 1.23-4.558v-1.266zm14.778 4.629h-7.149L204.969 391h-2.321l6.516-17.063h1.969L217.66 391h-2.308l-1.629-4.453zm-6.469-1.852h5.801l-2.907-7.98-2.894 7.98zM219.957 391v-17.063h4.816c1.485 0 2.797.329 3.938.985 1.141.656 2.019 1.59 2.637 2.8.625 1.212.941 2.602.949 4.172v1.09c0 1.61-.313 3.02-.938 4.23-.617 1.212-1.504 2.142-2.66 2.79-1.148.648-2.488.98-4.019.996h-4.723zm2.25-15.21v13.37h2.367c1.735 0 3.082-.539 4.043-1.617.969-1.078 1.453-2.613 1.453-4.605v-.997c0-1.937-.457-3.441-1.371-4.511-.906-1.078-2.195-1.625-3.867-1.64h-2.625zm-84.773 26.148l5.578 13.921 5.578-13.922h2.918V419h-2.25v-6.645l.211-7.171L143.867 419h-1.722l-5.59-13.781.222 7.136V419h-2.25v-17.063l2.907.001zm22.921 8.566l4.454-8.566h2.554l-5.883 10.699V419h-2.25v-6.363l-5.882-10.7h2.578l4.429 8.567zm27.715 3.082c-.211 1.805-.879 3.2-2.004 4.184-1.117.976-2.605 1.464-4.464 1.464-2.016 0-3.633-.722-4.852-2.168-1.211-1.445-1.816-3.379-1.816-5.8v-1.641c0-1.586.281-2.98.843-4.184.571-1.203 1.375-2.125 2.414-2.765 1.039-.649 2.243-.973 3.61-.973 1.812 0 3.265.508 4.359 1.524 1.094 1.007 1.731 2.406 1.91 4.195h-2.261c-.196-1.36-.621-2.344-1.278-2.953-.648-.61-1.558-.914-2.73-.914-1.438 0-2.567.53-3.387 1.593-.812 1.063-1.219 2.575-1.219 4.536v1.652c0 1.852.387 3.324 1.16 4.418.774 1.094 1.856 1.64 3.247 1.64 1.25 0 2.207-.28 2.871-.843.672-.57 1.117-1.559 1.336-2.965h2.261zm8.731 2.426l4.875-14.075h2.461L197.809 419h-1.993l-6.316-17.063h2.449l4.852 14.075zM0 373c0-9.941 8.059-18 18-18h67v83H21c-11.598 0-21-9.402-21-21v-44z"/>
    <path fill="#fff" d="M55.75 386.55H47.8v-15.9H37.2v15.9h-7.95L42.5 399.8l13.25-13.25zm11.495 17.31c-.556-.594-4.269-4.566-5.329-5.602a3.984 3.984 0 00-2.761-1.108h-4.656l8.12 7.934h-9.392a.728.728 0 00-.636.353l-2.163 4.963H34.571l-2.163-4.963a.732.732 0 00-.636-.353h-9.391l8.117-7.934h-4.654a3.994 3.994 0 00-2.761 1.108c-1.06 1.038-4.773 5.01-5.33 5.602-1.295 1.38-2.008 2.48-1.669 3.84l1.487 8.146c.34 1.362 1.831 2.48 3.318 2.48h43.227c1.486 0 2.978-1.118 3.317-2.48l1.487-8.146c.334-1.36-.376-2.46-1.675-3.84z"/>
    <path stroke="#00717B" stroke-width="3" d="M239 356.5H17c-8.56 0-15.5 6.94-15.5 15.5v49c0 8.56 6.94 15.5 15.5 15.5h222c8.56 0 15.5-6.94 15.5-15.5v-49c0-8.56-6.94-15.5-15.5-15.5z"/>
  </g>
  <g>
    <path fill="#00717B" d="M453.657 256.676a3.447 3.447 0 002.843 1.494 3.456 3.456 0 002.843-1.494l31.125-44.958a3.462 3.462 0 00-1.051-4.929 3.462 3.462 0 00-1.792-.497h-62.25a3.46 3.46 0 00-3.446 3.671c.038.629.246 1.236.603 1.755l31.125 44.958z"/>
  </g>
  <g>
    <path fill="#333" d="M453.657 173.676a3.447 3.447 0 002.843 1.494 3.456 3.456 0 002.843-1.494l31.125-44.958a3.454 3.454 0 00-2.843-5.426h-62.25a3.465 3.465 0 00-2.843 5.426l31.125 44.958z"/>
  </g>
  <g>
    <path fill="#00717B" stroke="#00717B" stroke-width="3.5" d="M456.5 353.25c21.953 0 39.75-17.797 39.75-39.75s-17.797-39.75-39.75-39.75-39.75 17.797-39.75 39.75 17.797 39.75 39.75 39.75z"/>
    <path fill="#fff" d="M441.042 305.77v9.938l15.458-11.041 15.458 11.041v-9.937L456.5 294.729l-15.458 11.042v-.001z"/>
    <path fill="#fff" d="M441.042 321.23v9.937l15.458-11.042 15.458 11.042v-9.938L456.5 310.188l-15.458 11.04v.002z"/>
  </g>
  <g>
    <path fill="#00717B" d="M358.042 305.77v9.938l15.458-11.041 15.458 11.041v-9.937L373.5 294.729l-15.458 11.042v-.001z"/>
    <path fill="#00717B" d="M358.042 321.23v9.937l15.458-11.042 15.458 11.042v-9.938L373.5 310.188l-15.458 11.04v.002z"/>
    <path stroke="#00717B" stroke-width="3.5" d="M373.5 353.25c21.953 0 39.75-17.797 39.75-39.75s-17.797-39.75-39.75-39.75-39.75 17.797-39.75 39.75 17.797 39.75 39.75 39.75z"/>
  </g>
  <defs>
    <clipPath id="clip0_101_60">
      <path fill="#fff" d="M0 0h249v249H0z"/>
    </clipPath>
    <clipPath id="clip1_101_60">
      <path fill="#fff" d="M0 0h85v106H0z" transform="translate(415)"/>
    </clipPath>
    <clipPath id="clip2_101_60">
      <path fill="#fff" d="M0 0h83v83H0z" transform="translate(249 272)"/>
    </clipPath>
    <clipPath id="clip3_101_60">
      <path fill="#fff" d="M0 0h83v83H0z" transform="translate(166 272)"/>
    </clipPath>
  </defs>
</svg>
