<svg xmlns="http://www.w3.org/2000/svg" width="83" height="83" fill="none" viewBox="0 0 83 83">
  <path fill="#00717B" stroke="#00717B" stroke-width="3.5" d="M41.5 81.25c21.953 0 39.75-17.797 39.75-39.75S63.453 1.75 41.5 1.75 1.75 19.547 1.75 41.5 19.547 81.25 41.5 81.25z"/>
  <path fill="#fff" d="M26.004 30.893a4.834 4.834 0 004.527-6.697 4.83 4.83 0 10-4.527 6.697zm9.394 3.662v26.807h8.324V48.105c0-3.498.658-6.886 4.995-6.886 4.277 0 4.33 4 4.33 7.107v13.038h8.328v-14.7c0-7.222-1.555-12.772-9.995-12.772-4.052 0-6.769 2.224-7.88 4.329h-.112v-3.666h-7.99zm-13.563 0h8.336v26.807h-8.336V34.555z"/>
</svg>
